<?xml version="1.0" standalone="no"?>
<!DOCTYPE svg PUBLIC "-//W3C//DTD SVG 1.1//EN" "http://www.w3.org/Graphics/SVG/1.1/DTD/svg11.dtd" >
<svg>
<metadata>
Created by FontForge 20090914 at Thu Nov 10 11:04:37 2016
 By www-data
&#194;&#169; 1981 Linotype-Hell AG
</metadata>
<defs>
<font id="Palatino-Bold" horiz-adv-x="1024" >
  <font-face 
    font-family="Palatino"
    font-weight="700"
    font-stretch="normal"
    units-per-em="2048"
    panose-1="2 0 8 3 0 0 0 0 0 0"
    ascent="1638"
    descent="-410"
    x-height="939.999"
    cap-height="1399"
    bbox="-340 -556 2045 1904"
    underline-thickness="102"
    underline-position="-154"
    unicode-range="U+0008-U+FB02"
  />
<missing-glyph horiz-adv-x="1536" 
d="M256 0v1280h1024v-1280h-1024zM288 32h960v1216h-960v-1216z" />
    <glyph glyph-name=".notdef" horiz-adv-x="1536" 
d="M256 0v1280h1024v-1280h-1024zM288 32h960v1216h-960v-1216z" />
    <glyph glyph-name="uni001D" horiz-adv-x="0" 
 />
    <glyph glyph-name="uni001D" horiz-adv-x="0" 
 />
    <glyph glyph-name="uni001D" horiz-adv-x="0" 
 />
    <glyph glyph-name="space" unicode="&#x9;" horiz-adv-x="512" 
 />
    <glyph glyph-name="space" unicode=" " horiz-adv-x="512" 
 />
    <glyph glyph-name="uni000D" unicode="&#xd;" horiz-adv-x="0" 
 />
    <glyph glyph-name="exclam" unicode="!" horiz-adv-x="569" 
d="M246 415c-5.33301 26.667 -11.002 67.667 -17.002 123c-11.333 108.667 -22.666 200.667 -33.999 276l-34 225c-7.33301 54 -13.666 110.667 -18.999 170c-2 27.333 -3 48.333 -3 63c0 9.33301 0.333008 23 1 41c18.667 10.667 36.667 20 54 28l151 63l103 -1
c0.666992 -20 1 -35 1 -45c0 -44 -7.33301 -117.333 -22 -220l-46 -334l-50 -355l-76 -42zM289.998 289c42.667 0 79.167 -15.3311 109.5 -45.998s45.5 -67.334 45.5 -110.001s-15.167 -79.334 -45.5 -110.001s-66.833 -46 -109.5 -46c-43.333 0 -80.166 15.333 -110.499 46
s-45.5 67.334 -45.5 110.001c0 43.333 15.167 80.166 45.5 110.499s67.166 45.5 110.499 45.5z" />
    <glyph glyph-name="quotedbl" unicode="&#x22;" horiz-adv-x="823" 
d="M611 787l-80.998 442l-10 47c-1.33301 11.333 -2 21.333 -2 30c0 24 6.66699 48 20 72s31.5 42.333 54.5 55s45.833 19 68.5 19c22 0 44.667 -6.33301 68 -19s41.666 -31.167 54.999 -55.5s20 -48.5 20 -72.5c0 -15.333 -2.33301 -33 -7 -53
c-2.66699 -10 -4.33398 -17.667 -5.00098 -23l-82 -442h-99zM113.002 787l-81.998 442l-9 46c-2 12 -3 22.333 -3 31c0 24 6.66699 48 20 72s31.666 42.333 54.999 55s46 19 68 19s44.667 -6.33301 68 -19s41.666 -31 54.999 -55s20 -48.333 20 -73
c0 -15.333 -2.33301 -33 -7 -53c-2 -10 -3.66699 -17.667 -5 -23l-82 -442h-98z" />
    <glyph glyph-name="numbersign" unicode="#" horiz-adv-x="1241" 
d="M253 0l68 448h-216v158h240l36 223h-217v158h239l63 419h158l-62 -419h222l62 419h156l-59 -419h193v-158h-216l-35 -223h197v-158h-220l-67 -448h-157l67 448h-225l-68 -448h-159zM505 606h223l33 223h-222z" />
    <glyph glyph-name="dollar" unicode="$" 
d="M66 53l-6 11.9961c6.66699 42.667 11.667 86 15 130s5.66602 105 6.99902 183h82l2 -92c0.666992 -15.333 1.66699 -28.666 3 -39.999c2 -11.333 5.66699 -24.333 11 -39c58.667 -78 149 -120 271 -126v493c-69.333 9.33301 -123.833 20.166 -163.5 32.499
s-73.667 29 -102 50s-51.833 44.833 -70.5 71.5c-14 20 -25.333 43.333 -34 70c-14.667 44.667 -22 92.334 -22 143.001c0 87.333 12.833 157.166 38.5 209.499s70.334 99.833 134.001 142.5s136.834 68.667 219.501 78v109h102c0 -10 -0.666992 -22.667 -2 -38
s-2.33301 -37.666 -3 -66.999c137.333 -5.33301 250.333 -30.666 339 -75.999v-13c-7.33301 -31.333 -12.333 -61.666 -15 -90.999l-12 -192h-81l-5 122c-0.666992 13.333 -3.66699 27 -9 41c-20 27.333 -48.667 50 -86 68s-81 28.333 -131 31v-442
c88 -13.333 158.333 -30.666 211 -51.999s93.5 -47.166 122.5 -77.499s50.5 -66 64.5 -107s21 -86.5 21 -136.5c0 -76 -12.667 -142.167 -38 -198.5s-57.166 -103 -95.499 -140s-79.833 -65.833 -124.5 -86.5s-98.334 -36.334 -161.001 -47.001v-87l5 -117h-109
c3.33301 67.333 5.66602 133.333 6.99902 198c-76 0.666992 -141.333 6.66699 -196 18s-117.667 32.333 -189 63zM451 1260c-44.667 -12 -76.999 -25.333 -96.999 -40c-26.667 -19.333 -47.667 -45.333 -63 -78s-23 -68 -23 -106c0 -52 14.667 -94.833 44 -128.5
s75.666 -56.5 138.999 -68.5v421zM548.001 88.9961c64 17.333 112.999 48.001 146.999 92.001s51 97.333 51 160c0 38 -7.16699 71.667 -21.5 101s-37.666 53.666 -69.999 72.999s-67.833 32 -106.5 38v-464z" />
    <glyph glyph-name="percent" unicode="%" horiz-adv-x="1821" 
d="M1330 1484l-742 -1551h-107l743 1551h106zM83 1082c0 69.333 15.3311 131.332 45.998 185.999s72.834 96.834 126.501 126.501s115.5 44.5 185.5 44.5c68 0 128.833 -14.667 182.5 -44s94.834 -69.833 123.501 -121.5s43 -110.5 43 -176.5
c0 -107.333 -33.167 -194.5 -99.5 -261.5s-151.5 -100.5 -255.5 -100.5c-104.667 0 -189.5 32.5 -254.5 97.5s-97.5 148.167 -97.5 249.5zM294.998 1082c0 -109.333 14.999 -185.998 44.999 -229.998c23.333 -32.667 53.666 -49 90.999 -49
c50.667 0 87.834 24.5 111.501 73.5s35.5 124.167 35.5 225.5c0 105.333 -13.333 176.666 -40 213.999s-60 56 -100 56c-39.333 0 -70.666 -17 -93.999 -51c-32.667 -46.667 -49 -126.334 -49 -239.001zM1039 326.001c0 69.333 15.332 131.332 45.999 185.999
s72.834 96.834 126.501 126.501s115.5 44.5 185.5 44.5c68.667 0 129.5 -14.833 182.5 -44.5s94 -70.167 123 -121.5s43.5 -110 43.5 -176c0 -108 -33.167 -195.333 -99.5 -262s-151.5 -100 -255.5 -100c-104.667 0 -189.5 32.333 -254.5 97s-97.5 148 -97.5 250zM1251 326
c0 -110 14.999 -186.667 44.999 -230c23.333 -32.667 54 -49 92 -49c50.667 0 87.667 24.5 111 73.5s35 124.5 35 226.5c0 104.667 -13.333 175.5 -40 212.5s-60 55.5 -100 55.5c-39.333 0 -70.666 -16.667 -93.999 -50c-32.667 -47.333 -49 -127 -49 -239z" />
    <glyph glyph-name="ampersand" unicode="&#x26;" horiz-adv-x="1706" 
d="M1646 254l29.002 -64.999c-22 -20 -54.833 -53.5 -98.5 -100.5s-74.5 -82.5 -92.5 -106.5c-49.333 -10.667 -88.666 -16 -117.999 -16c-58 0 -112 8.66699 -162 26c-68 24.667 -139.667 64.334 -215 119.001c-62.667 -49.333 -127.834 -86 -195.501 -110
s-144.5 -36 -230.5 -36c-152.667 0 -268.834 41.333 -348.501 124s-119.5 176.667 -119.5 282c0 78 20 145.667 60 203c53.333 77.333 140.666 145 261.999 203c-25.333 56 -43 104.833 -53 146.5s-15 83.834 -15 126.501c0 58 11.333 100 34 126l96 111
c38.667 44.667 65.5 72.667 80.5 84s40.667 22.833 77 34.5s72.833 17.5 109.5 17.5c45.333 0 86 -9 122 -27s63.333 -44.333 82 -79s28 -73 28 -115c0 -64.667 -22.833 -127.834 -68.5 -189.501s-131.5 -131.834 -257.5 -210.501c60 -91.333 128.333 -179.333 205 -264
s150.667 -154 222 -208c22.667 37.333 39 71.166 49 101.499s15 60.833 15 91.5c0 24 -3.33301 49.833 -10 77.5s-16.334 51.834 -29.001 72.501h-180l-9 12c13.333 21.333 23.333 38.333 30 51l35 75c116 -3.33301 192 -5 228 -5c182.667 0 321.667 5.33301 417 16l9 -8
c-14 -38.667 -23.167 -67 -27.5 -85s-7.16602 -38.667 -8.49902 -62l-9 -10l-142 10c-27.333 1.33301 -77.666 2.66602 -150.999 3.99902c6.66699 -32 10 -60 10 -84c0 -50 -10 -98.667 -30 -146s-55.667 -102.333 -107 -165c46 -32 97.667 -56.667 155 -74s111 -26 161 -26
c16 0 29.167 1.5 39.5 4.5s22.166 8.5 35.499 16.5zM609.002 886.001c42 29.333 74.333 55.3311 97 77.998c30.667 30.667 53.5 62 68.5 94s22.5 64.333 22.5 97c0 42.667 -12 76.834 -36 102.501s-54 38.5 -90 38.5c-24.667 0 -47.667 -6.5 -69 -19.5
s-37.5 -31.5 -48.5 -55.5s-16.5 -49.333 -16.5 -76c0 -73.333 24 -159.666 72 -258.999zM457.002 691.999c-35.333 -21.333 -63.502 -49 -84.502 -83s-31.5 -72.667 -31.5 -116c0 -64.667 17.833 -128 53.5 -190s81.334 -109.833 137.001 -143.5
s112.834 -50.5 171.501 -50.5c67.333 0 134 21.333 200 64c-100 84.667 -182.667 165.334 -248 242.001c-66 77.333 -132 169.666 -198 276.999z" />
    <glyph glyph-name="quotesingle" unicode="'" horiz-adv-x="465" 
d="M182 787l-81.998 442l-9 46c-2 12 -3 22.333 -3 31c0 24 6.66699 48 20 72s31.666 42.333 54.999 55s46 19 68 19s44.667 -6.33301 68 -19s41.666 -31 54.999 -55s20 -48.333 20 -73c0 -15.333 -2.33301 -33 -7 -53c-2 -10 -3.66699 -17.667 -5 -23l-82 -442h-98z" />
    <glyph glyph-name="parenleft" unicode="(" horiz-adv-x="682" 
d="M570 -217c-63.333 36.667 -128.831 94.168 -196.498 172.501s-121.167 159.5 -160.5 243.5c-30 62.667 -51.667 126.667 -65 192s-20 141.666 -20 228.999c0 120.667 14.667 230 44 328s79.666 195.333 150.999 292s152.333 176 243 238l53 -47
c-48.667 -59.333 -83.5 -106.833 -104.5 -142.5s-38.5 -76.5 -52.5 -122.5c-18.667 -59.333 -33.834 -136.833 -45.501 -232.5s-17.5 -205.167 -17.5 -328.5c0 -208.667 17.833 -369 53.5 -481s91.167 -208.333 166.5 -289z" />
    <glyph glyph-name="parenright" unicode=")" horiz-adv-x="682" 
d="M107 1478c63.333 -36.667 128.832 -94.1689 196.499 -172.502s121.167 -159.166 160.5 -242.499c30 -63.333 51.667 -127.666 65 -192.999s20 -141.333 20 -228c0 -121.333 -14.667 -231 -44 -329s-79.666 -195.167 -150.999 -291.5s-152.333 -175.833 -243 -238.5
l-53 47c48.667 59.333 83.5 106.833 104.5 142.5s38.833 76.5 53.5 122.5c18.667 59.333 33.667 136.833 45 232.5s17 205.167 17 328.5c0 208.667 -17.833 369.167 -53.5 481.5s-91.167 208.5 -166.5 288.5z" />
    <glyph glyph-name="asterisk" unicode="*" horiz-adv-x="909" 
d="M175 788c-8 21.333 -16 39.998 -24 55.998c-1.33301 2 -21.666 34.333 -60.999 97l8 15l239 89c9.33301 4 23.666 9.66699 42.999 17c-42 21.333 -136.333 62 -283 122l-7 15c46 66 76.333 118 91 156l33 1c51.333 -61.333 120.333 -139.333 207 -234
c13.333 132.667 22.333 230 27 292l17 13c54.667 -24 117 -38.667 187 -44l11 -29c-38 -53.333 -94.333 -140.333 -169 -261c53.333 9.33301 96.666 18 129.999 26l160 39l11 -8c4 -58 11 -117 21 -177l-21 -21c-13.333 4.66699 -40.666 11.667 -81.999 21
c-122 27.333 -198.333 43.333 -229 48c19.333 -35.333 48 -81.666 86 -138.999s63 -93.333 75 -108l-7 -14l-28 -12c-30 -12 -76.667 -32.667 -140 -62l-31 13c-2.66699 52.667 -11 152.334 -25 299.001l-97 -98l-108 -117z" />
    <glyph glyph-name="plus" unicode="+" horiz-adv-x="1241" 
d="M70 515v172h463v456h176v-456h462v-172h-462v-456h-176v456h-463z" />
    <glyph glyph-name="comma" unicode="," horiz-adv-x="512" 
d="M0 -315c33.333 64 60.8311 124.333 82.498 181s40.167 116 55.5 178c11.333 46.667 21.333 104 30 172l163 34c26.667 7.33301 62.334 20 107.001 38l36 -34c-28.667 -66 -73.167 -153.167 -133.5 -261.5s-116.166 -198.5 -167.499 -270.5l-143 -62z" />
    <glyph glyph-name="hyphen" unicode="-" horiz-adv-x="682" 
d="M581 395l-532.002 -0.000976562l-15 15c10.667 19.333 21.334 45.666 32.001 78.999c16.667 52.667 28.334 95.667 35.001 129h527l19 -20c-13.333 -23.333 -24.833 -49.166 -34.5 -77.499s-20.167 -70.166 -31.5 -125.499z" />
    <glyph glyph-name="period" unicode="." horiz-adv-x="512" 
d="M255 290c43.333 0 80.166 -15.167 110.499 -45.5s45.5 -67.166 45.5 -110.499s-15.167 -80.333 -45.5 -111s-67.166 -46 -110.499 -46s-80.333 15.333 -111 46s-46 67.667 -46 111s15.167 80.166 45.5 110.499s67.5 45.5 111.5 45.5z" />
    <glyph glyph-name="slash" unicode="/" horiz-adv-x="606" 
d="M-19 -56l493 1552h157l-493 -1552h-157z" />
    <glyph glyph-name="zero" unicode="0" 
d="M69 633c0 116 8.33496 221.999 25.002 317.999c10.667 62 30 119 58 171s60 94.333 96 127s77.667 57.667 125 75s98.666 26 153.999 26c67.333 0 125.666 -9.33301 174.999 -28s90.166 -45.167 122.499 -79.5s58.833 -77.833 79.5 -130.5s34.834 -114.5 42.501 -185.5
s11.5 -143.167 11.5 -216.5c0 -110 -5.5 -206.167 -16.5 -288.5s-30.667 -152.666 -59 -210.999s-60.5 -105 -96.5 -140s-76.833 -61.333 -122.5 -79s-100.167 -26.5 -163.5 -26.5c-62.667 0 -118 9.5 -166 28.5s-87 43.167 -117 72.5s-55.833 66.333 -77.5 111
s-36.5 89.667 -44.5 135c-17.333 96 -26 203 -26 321zM312.002 771.999c0 -120.667 5.33203 -236 15.999 -346s28.667 -195.333 54 -256c14 -33.333 35.667 -60 65 -80c22 -15.333 48 -23 78 -23c54 0 98.667 27.667 134 83s53 189.333 53 402
c0 147.333 -9 288.666 -27 423.999c-9.33301 72 -22.166 126 -38.499 162s-36.5 62.5 -60.5 79.5s-52 25.5 -84 25.5c-55.333 0 -98 -23.667 -128 -71c-41.333 -63.333 -62 -196.666 -62 -399.999z" />
    <glyph glyph-name="one" unicode="1" 
d="M155 0l-0.00488281 81.002l188 20c20 2.66699 34.833 8.33398 44.5 17.001s16.834 26.334 21.501 53.001c8.66699 51.333 13 167.666 13 348.999v240c0 96.667 -1 186.667 -3 270l-3 83c0 21.333 -2 35.166 -6 41.499s-9 9.5 -15 9.5c-4.66699 0 -19 -5.33301 -43 -16
c-130 -57.333 -213 -95.666 -249 -114.999l-12 7c-3.33301 14 -6.66602 35.333 -9.99902 64c-3.33301 22.667 -7 43 -11 61l1 7c129.333 37.333 228.333 67.666 297 90.999s174.334 61.666 317.001 114.999l22 -15c0 -10.667 -1.66699 -39.334 -5 -86.001l-7 -103
c-2 -56 -4.66699 -206 -8 -450v-148c0 -135.333 0.333008 -224.333 1 -267c2 -85.333 4.66699 -138.666 8 -159.999c2 -14.667 5.66699 -25.5 11 -32.5s12.666 -12.167 21.999 -15.5c18.667 -6.66699 64.334 -11.334 137.001 -14.001
c22.667 -0.666992 44.334 -2.66699 65.001 -6v-81c-145.333 6.66699 -262.666 10 -351.999 10c-64 0 -205.333 -3.33301 -424 -10z" />
    <glyph glyph-name="two" unicode="2" 
d="M54 0v103.002l242 243c108 110.667 182.333 194.334 223 251.001s71 114 91 172c14.667 42 22 86.333 22 133c0 76.667 -19.667 135 -59 175s-92.666 60 -159.999 60c-38 0 -73.833 -7.66699 -107.5 -23s-62.5 -38.333 -86.5 -69
c-12.667 -41.333 -26.334 -94 -41.001 -158h-77l29 252l9 88c46 44 97.333 75.833 154 95.5s119 29.5 187 29.5c98.667 0 178.5 -16.167 239.5 -48.5s106.5 -77.333 136.5 -135s45 -116.834 45 -177.501c0 -38.667 -5.66699 -76.834 -17 -114.501s-31 -79 -59 -124
s-57.667 -84.833 -89 -119.5l-114 -116l-105 -103l-179 -169l3 -13h176c25.333 0 110.333 1.66699 255 5l103 3l83 5l8 -13c-6.66699 -58.667 -10 -104.334 -10 -137.001c0 -22 2.33301 -50 7 -84l-5 -11l-281 8c-71.333 2 -123 3 -155 3c-34 0 -91.667 -1.33301 -173 -4z
" />
    <glyph glyph-name="three" unicode="3" 
d="M99 18c-3.33301 26.667 -11.167 76.999 -23.5 150.999s-21.5 124.667 -27.5 152l67 20c18.667 -44.667 35.334 -78.667 50.001 -102c23.333 -36.667 47.166 -65.5 71.499 -86.5s53.5 -38 87.5 -51s71 -19.5 111 -19.5c74 0 134.167 24 180.5 72s69.5 112.667 69.5 194
c0 86.667 -25.167 151.5 -75.5 194.5s-113.833 64.5 -190.5 64.5c-36.667 0 -76 -6 -118 -18l-12 13l2 13l16 55l20 82c5.33301 0.666992 8.33301 1 9 1l73 -1c36 0 71.667 9.5 107 28.5s62.666 45.333 81.999 79s29 68.834 29 105.501c0 52 -18.667 95.667 -56 131
s-86.333 53 -147 53c-30.667 0 -61 -4.5 -91 -13.5s-52.833 -19.833 -68.5 -32.5s-27.834 -27 -36.501 -43s-18.667 -40.667 -30 -74c-6.66699 -18.667 -12 -32.667 -16 -42l-72 5l43 204c6 28.667 11.333 62.667 16 102c86.667 64.667 195.334 97 326.001 97
c116.667 0 206 -27.5 268 -82.5s93 -123.167 93 -204.5c0 -62 -18.333 -117.333 -55 -166s-92.667 -92.667 -168 -132c13.333 0 32.333 -2.66699 57 -8c36.667 -7.33301 71.334 -20.166 104.001 -38.499s59.5 -40.166 80.5 -65.499s36.5 -53 46.5 -83s15 -67 15 -111
c0 -60 -11.333 -116.167 -34 -168.5s-54.5 -98.833 -95.5 -139.5s-86 -74.834 -135 -102.501s-98.5 -48.834 -148.5 -63.501s-109.667 -22 -179 -22c-48.667 0 -90.667 4 -126 12s-75 21.667 -119 41z" />
    <glyph glyph-name="four" unicode="4" 
d="M291 0l0.00195312 82.0029c106.667 7.33301 167.667 12.666 183 15.999s26 8.66602 32 15.999c8 10 14 29.667 18 59c1.33301 11.333 3.66602 69.666 6.99902 174.999h-132c-39.333 0 -122.333 -0.666992 -249 -2l-110 -3l-14 83c17.333 50 59.333 139.667 126 269
c94 181.333 172.667 323 236 425c64 102 110.333 170.333 139 205c8.66699 2 45 9 109 21l142 28l18 -17c-2.66699 -24 -4.33398 -44 -5.00098 -60c-2 -30.667 -4 -76.334 -6 -137.001l-5 -154l-2 -269v-226c22 -0.666992 34 -1 36 -1l142 6l6 -11l-3 -94
c0 -9.33301 1 -30.666 3 -63.999c-38.667 0.666992 -59.667 1 -63 1h-121c-0.666992 -21.333 0 -68 2 -140c0.666992 -42 3.33398 -69 8.00098 -81c3.33301 -8 12.666 -18 27.999 -30l152 -18v-79c-28 -0 -52 0.333008 -72 1l-262 7zM173.002 511.003l359 -0.000976562
l4 364l2 145l5 172c-95.333 -153.333 -163 -266.666 -203 -339.999s-95.667 -187 -167 -341z" />
    <glyph glyph-name="five" unicode="5" 
d="M186 564l-38.9961 21.002c4 35.333 6.66699 86 8 152l5 159v131l-4 118l-2 82c-0.666992 17.333 -1.66699 34.166 -3 50.499s-3.33301 34.833 -6 55.5l13 10c158.667 -6.66699 297 -10 415 -10c43.333 0 77.666 0.333008 102.999 1l193 9l9 -16c-8 -72 -12 -119 -12 -141
c0 -18 1 -40.667 3 -68l-10 -13c-26 1.33301 -51.667 2.33301 -77 3c-112 2 -184.667 3 -218 3c-140.667 0 -239.334 -2.33301 -296.001 -7l-8 -317c57.333 26.667 105.333 44.667 144 54s81 14 127 14c123.333 0 220.333 -33.833 291 -101.5s106 -157.167 106 -268.5
c0 -88.667 -25.5 -175 -76.5 -259s-129.5 -152 -235.5 -204c-78.667 -38 -170.334 -57 -275.001 -57c-44.667 0 -82 3 -112 9s-69.333 18.333 -118 37c-3.33301 26.667 -8.5 55.5 -15.5 86.5s-24.167 97.833 -51.5 200.5l66 23c22.667 -50.667 48.834 -93 78.501 -127
s66.667 -60.833 111 -80.5s89.166 -29.5 134.499 -29.5c73.333 0 133.666 24.833 180.999 74.5s71 117.5 71 203.5c0 89.333 -24.5 159 -73.5 209s-114.833 75 -197.5 75c-33.333 0 -63 -3.5 -89 -10.5s-48 -15.167 -66 -24.5c-9.33301 -4.66699 -34 -20.334 -74 -47.001z
" />
    <glyph glyph-name="six" unicode="6" 
d="M813 1352l78.9971 -63.998l-31 -33c-25.333 3.33301 -47.666 5 -66.999 5c-62 0 -122.5 -15.5 -181.5 -46.5s-108 -75 -147 -132s-67.5 -119.167 -85.5 -186.5c-13.333 -47.333 -24.666 -120.666 -33.999 -219.999c63.333 57.333 107 96 131 116
c10 8 18.667 13.333 26 16c19.333 8 43.333 14.833 72 20.5s56.334 8.5 83.001 8.5c48.667 0 97 -13.5 145 -40.5s86.167 -68.833 114.5 -125.5s42.5 -128 42.5 -214c0 -149.333 -41.833 -268.5 -125.5 -357.5s-189.5 -133.5 -317.5 -133.5
c-74.667 0 -139.5 14.167 -194.5 42.5s-101 68.166 -138 119.499s-63.833 110.166 -80.5 176.499s-25 142.166 -25 227.499c0 142 20.667 261.5 62 358.5s97.5 180 168.5 249s148.333 121.833 232 158.5s174.167 55 271.5 55zM339.997 427.002
c0 -112.667 17 -200.666 51 -263.999s84 -95 150 -95c52 0 94.667 21.333 128 64s50 114.667 50 216c0 74 -9.16699 133.833 -27.5 179.5s-43.333 79 -75 100s-65.167 31.5 -100.5 31.5c-33.333 0 -64.333 -8.66699 -93 -26s-49.667 -41.333 -63 -72
s-20 -75.334 -20 -134.001z" />
    <glyph glyph-name="seven" unicode="7" 
d="M191 0l-10.001 21.998l259 446l183 305l56 100l110 204l-7 18h-253c-54 0 -125.667 -1.33301 -215 -4c-44 -0.666992 -71.667 -5 -83 -13c-8.66699 -5.33301 -15.334 -15 -20.001 -29c-6.66699 -19.333 -16.667 -83.666 -30 -192.999l-83 2c4 88.667 6 163.334 6 224.001
c0 62.667 -2 146 -6 250l13 11l274 -8c58.667 -1.33301 123 -2 193 -2c30.667 0 173.667 1.66699 429 5v-91l-183 -337c-68 -132 -122.333 -241.333 -163 -328c-41.333 -87.333 -85.166 -186.5 -131.499 -297.5s-83.5 -205.833 -111.5 -284.5c-40.667 3.33301 -77 5 -109 5
c-29.333 0 -68.666 -1.66699 -117.999 -5z" />
    <glyph glyph-name="eight" unicode="8" 
d="M311 657c-52.667 30.667 -91.498 58.499 -116.498 83.499s-45.333 57.5 -61 97.5s-23.5 84.333 -23.5 133c0 65.333 12.333 121 37 167s54.667 84 90 114s71.333 52.333 108 67c54 22 120.667 33 200 33c111.333 0 197.666 -28.333 258.999 -85s92 -126 92 -208
c0 -44 -8.66699 -84.333 -26 -121s-41.333 -70 -72 -100c-19.333 -18.667 -50.333 -41.667 -93 -69c56 -23.333 99 -46.5 129 -69.5s53.667 -48.5 71 -76.5s30.166 -58.833 38.499 -92.5s12.5 -69.834 12.5 -108.501c0 -94.667 -23.333 -178.334 -70 -251.001
s-113 -128 -199 -166c-59.333 -26.667 -130.333 -40 -213 -40c-78 0 -142.667 12 -194 36c-36 17.333 -70.167 41.333 -102.5 72s-57.833 66.334 -76.5 107.001s-28 89.334 -28 146.001c0 44.667 6.33301 84.834 19 120.501s30.667 67.167 54 94.5s47.333 49 72 65
c5.33301 3.33301 36.333 20.333 93 51zM605.002 804.999c37.333 24.667 66.832 56.999 88.499 96.999s32.5 82.667 32.5 128c0 65.333 -19.667 117.5 -59 156.5s-92 58.5 -158 58.5c-63.333 0 -111.166 -18.833 -143.499 -56.5s-48.5 -79.5 -48.5 -125.5
c0 -24.667 4.5 -47.667 13.5 -69s24 -42.5 45 -63.5s47.5 -39.833 79.5 -56.5c45.333 -23.333 77.333 -38.666 96 -45.999zM397.001 617.998c-49.333 -38 -85.332 -79 -107.999 -123s-34 -92.667 -34 -146c0 -81.333 24.667 -147.833 74 -199.5s109.666 -77.5 180.999 -77.5
c64 0 117.167 22 159.5 66s63.5 99 63.5 165c0 47.333 -8.33301 87 -25 119s-44.667 61 -84 87s-106 58.667 -200 98z" />
    <glyph glyph-name="nine" unicode="9" 
d="M209 -35l-78.0049 63.999l24 38c22.667 -7.33301 47 -11 73 -11c50.667 0 97.834 9.33301 141.501 28s82.5 43 116.5 73c26 22 49 47.333 69 76c29.333 41.333 54 90.166 74 146.499s36 143.833 48 262.5c-64.667 -59.333 -108.667 -98 -132 -116
c-8.66699 -7.33301 -20 -14.333 -34 -21c-48 -16 -95.667 -24 -143 -24c-86 0 -158.5 32.833 -217.5 98.5s-88.5 159.5 -88.5 281.5c0 149.333 41.833 268.5 125.5 357.5s189.834 133.5 318.501 133.5c74.667 0 139.5 -14.167 194.5 -42.5s101 -68.166 138 -119.499
s63.667 -110.166 80 -176.499s24.5 -142.166 24.5 -227.499c0 -142 -20.667 -261.833 -62 -359.5s-97.666 -180.834 -168.999 -249.501s-148.666 -121.167 -231.999 -157.5s-173.666 -54.5 -270.999 -54.5zM681.995 889.999c0 112 -16.833 199.831 -50.5 263.498
s-83.834 95.5 -150.501 95.5c-51.333 0 -93.833 -21.333 -127.5 -64s-50.5 -114.667 -50.5 -216c0 -74 9.33301 -133.833 28 -179.5s43.834 -79.167 75.501 -100.5s65.167 -32 100.5 -32c32.667 0 63.5 8.83301 92.5 26.5s50 41.834 63 72.501s19.5 75.334 19.5 134.001z
" />
    <glyph glyph-name="colon" unicode=":" horiz-adv-x="512" 
d="M256 929c43.333 0 80.166 -15.333 110.499 -46s45.5 -67.667 45.5 -111c0 -42.667 -15.167 -79.334 -45.5 -110.001s-67.166 -46 -110.499 -46s-80.333 15.333 -111 46s-46 67.334 -46 110.001c0 43.333 15.167 80.333 45.5 111s67.5 46 111.5 46zM256 290
c43.333 0 80.166 -15.167 110.499 -45.5s45.5 -67.166 45.5 -110.499s-15.167 -80.333 -45.5 -111s-67.166 -46 -110.499 -46s-80.333 15.333 -111 46s-46 67.667 -46 111s15.167 80.166 45.5 110.499s67.5 45.5 111.5 45.5z" />
    <glyph glyph-name="semicolon" unicode=";" horiz-adv-x="512" 
d="M266 929c43.333 0 80.168 -15.165 110.501 -45.498s45.5 -67.5 45.5 -111.5c0 -42.667 -15.333 -79.334 -46 -110.001s-67.667 -46 -111 -46c-42.667 0 -79.334 15.167 -110.001 45.5s-46 67.166 -46 110.499c0 44 15.167 81.167 45.5 111.5s67.5 45.5 111.5 45.5z
M-52.998 -314.998c33.333 64 60.8311 124.333 82.498 181s40.167 116 55.5 178c11.333 46.667 21.333 104 30 172l163 34c26.667 7.33301 62.334 20 107.001 38l36 -34c-28.667 -66 -73.167 -153.167 -133.5 -261.5s-116.166 -198.5 -167.499 -270.5l-143 -62z" />
    <glyph glyph-name="less" unicode="&#x3c;" horiz-adv-x="1241" 
d="M1154 -31l-1065 481v154l1065 482v-176l-832 -382l832 -383v-176z" />
    <glyph glyph-name="equal" unicode="=" horiz-adv-x="1241" 
d="M70 887h1101v-172h-1101v172zM70 524h1101v-172h-1101v172z" />
    <glyph glyph-name="greater" unicode="&#x3e;" horiz-adv-x="1241" 
d="M87 1086l1065 -481v-154l-1065 -482v176l832 382l-832 383v176z" />
    <glyph glyph-name="question" unicode="?" horiz-adv-x="909" 
d="M365 389c-16 18 -29.166 40.501 -39.499 67.501s-15.5 53.5 -15.5 79.5c0 34 7.33301 67.833 22 101.5s41.334 73.167 80.001 118.5l54 64c30.667 36 55.167 73.667 73.5 113s27.5 75 27.5 107c0 48.667 -17.167 89.5 -51.5 122.5s-78.5 49.5 -132.5 49.5
c-38.667 0 -73.334 -4.66699 -104.001 -14c-22.667 -6.66699 -38 -15.334 -46 -26.001c-19.333 -24 -43 -74.667 -71 -152l-74 12c2 12 11.167 46 27.5 102s25.833 91.667 28.5 107c4.66699 20.667 8.66699 44 12 70c38 32.667 84 57.167 138 73.5s111 24.5 171 24.5
c78 0 145.667 -13.667 203 -41s100.666 -66 129.999 -116s44 -102.333 44 -157c0 -58 -14.5 -112.5 -43.5 -163.5s-76.167 -101.833 -141.5 -152.5l-68 -53c-70 -54 -119.667 -101.667 -149 -143c-20 -28.667 -30 -55 -30 -79c0 -22 7.66699 -50.667 23 -86z
M400.001 289.001c43.333 0 80 -15.167 110 -45.5s45 -67.166 45 -110.499c0 -42.667 -15 -79.167 -45 -109.5s-66.667 -45.5 -110 -45.5s-80.166 15.167 -110.499 45.5s-45.5 66.833 -45.5 109.5c0 43.333 15.167 80.166 45.5 110.499s67.166 45.5 110.499 45.5z" />
    <glyph glyph-name="at" unicode="@" horiz-adv-x="1530" 
d="M1312 362l133.996 -0.000976562c-38.667 -70.667 -82.667 -130 -132 -178c-66.667 -67.333 -143.667 -119 -231 -155s-179 -54 -275 -54c-129.333 0 -252.833 31.667 -370.5 95s-208.334 148.666 -272.001 255.999s-95.5 228 -95.5 362c0 118.667 24.333 228.667 73 330
c38.667 80 89.334 149.5 152.001 208.5s130.334 104.5 203.001 136.5c92.667 40.667 194 61 304 61c108.667 0 208.334 -20.333 299.001 -61c72 -32 133.833 -73.667 185.5 -125s93.167 -110.333 124.5 -177s47 -141 47 -223c0 -97.333 -23.167 -189 -69.5 -275
s-110.833 -153.667 -193.5 -203s-153 -74 -211 -74c-22.667 0 -44.334 7.16699 -65.001 21.5s-36.5 32.5 -47.5 54.5s-19.833 54.667 -26.5 98c-38 -50 -66.5 -84 -85.5 -102s-42.667 -32.5 -71 -43.5s-57.5 -16.5 -87.5 -16.5c-43.333 0 -86.666 11.333 -129.999 34
c-29.333 15.333 -52.333 33 -69 53s-31.167 48.5 -43.5 85.5s-18.5 77.5 -18.5 121.5c0 66 13.5 127.333 40.5 184s61.5 105.334 103.5 146.001s86.833 72 134.5 94s97.167 33 148.5 33c35.333 0 65.166 -6.5 89.499 -19.5s43.166 -30.833 56.499 -53.5
c9.33301 -16 17.666 -40.333 24.999 -73l35 128h194l-144 -536c-3.33301 -12 -6.66602 -30.167 -9.99902 -54.5s-5 -39.5 -5 -45.5c0 -10 4.16699 -18.833 12.5 -26.5s18.5 -11.5 30.5 -11.5c19.333 0 43 9.66699 71 29c42.667 30 82.334 71.167 119.001 123.5
s63.834 108 81.501 167s26.5 112.833 26.5 161.5c0 81.333 -22.667 160.333 -68 237s-111.333 137 -198 181s-182 66 -286 66c-173.333 0 -318 -58.667 -434 -176s-174 -266.666 -174 -447.999c0 -118.667 26.833 -224.667 80.5 -318s129 -165.833 226 -217.5
s201.833 -77.5 314.5 -77.5c70.667 0 137.334 11.5 200.001 34.5s121.667 57.833 177 104.5c40.667 34 82.334 80 125.001 138zM538.996 505.999c0 -49.333 9.83301 -86 29.5 -110s43.5 -36 71.5 -36c30 0 60 13.333 90 40c44 40.667 81.333 99 112 175
c38.667 98 58 186.333 58 265c0 40 -8.66699 74 -26 102s-42 42 -74 42c-26.667 0 -51 -7.66699 -73 -23c-32.667 -21.333 -63 -57.5 -91 -108.5s-51.167 -109 -69.5 -174s-27.5 -122.5 -27.5 -172.5z" />
    <glyph glyph-name="A" unicode="A" horiz-adv-x="1593" 
d="M49 0l-0.000976562 83c55.333 4 88.666 7.83301 99.999 11.5s21.333 10.167 30 19.5s25.334 42.666 50.001 99.999c36.667 82.667 81.334 189.667 134.001 321l261 644l88 227h142l447 -1044l69 -154c23.333 -54 38.333 -85.167 45 -93.5s14 -14.166 22 -17.499
c8.66699 -4 30 -7.33301 64 -10c10 -0.666992 24.667 -2 44 -4v-83l-278 6l-351 -6v83c74 3.33301 117.833 7.16602 131.5 11.499s20.5 14.5 20.5 30.5c0 16.667 -7.66699 44 -23 82l-86 220h-514l-44 -120c-33.333 -91.333 -50 -148.666 -50 -171.999
c0 -16 5.33301 -27.333 16 -34c16 -9.33301 63.667 -15.333 143 -18v-83l-231 6zM490.999 541c62 -2 133 -3 213 -3c78 0 146.667 1 206 3l-214 516z" />
    <glyph glyph-name="B" unicode="B" horiz-adv-x="1366" 
d="M160 0l-0.00292969 47c36 21.333 65.333 42 88 62c4 32 6.66699 68.667 8 110c2.66699 93.333 4 273.333 4 540c0 68.667 -1.66699 176.334 -5 323.001c-2 112 -5.66699 176 -11 192c-3.33301 10 -8.66602 17 -15.999 21c-14.667 8.66699 -64.334 15.667 -149.001 21v83
l198 -5c46 -0.666992 98.333 -1 157 -1c66 0 114.667 0.666992 146 2c101.333 4 167 6 197 6c109.333 0 194 -11.333 254 -34s103.833 -55.5 131.5 -98.5s41.5 -91.167 41.5 -144.5c0 -57.333 -16 -110.833 -48 -160.5s-72.667 -87.834 -122 -114.501
c-29.333 -16.667 -94.333 -39 -195 -67c121.333 -14.667 205.833 -33.834 253.5 -57.501s85.834 -61.167 114.501 -112.5s43 -108.333 43 -171c0 -52 -10.167 -102.333 -30.5 -151s-50.666 -93.167 -90.999 -133.5s-84.166 -72.166 -131.499 -95.499
s-94.833 -39.333 -142.5 -48s-96.5 -13 -146.5 -13c-44.667 0 -104 1 -178 3s-126.333 3 -157 3c-54.667 0 -125.667 -2 -213 -6zM538.997 822l59.001 -0.998047c45.333 0 87.166 3.66699 125.499 11s69.5 20.166 93.5 38.499s44.167 45.666 60.5 81.999
s24.5 78.166 24.5 125.499c0 48 -9.33301 88.833 -28 122.5s-43 57.667 -73 72s-75 21.5 -135 21.5c-43.333 0 -82.666 -2.66699 -117.999 -8c-2.66699 -29.333 -4.33398 -54.666 -5.00098 -75.999l-2 -137l-2 -108v-143zM542.998 112.002c22 -4.66699 63.332 -7 123.999 -7
c83.333 0 150.333 27.167 201 81.5s76 132.166 76 233.499c0 71.333 -13.167 129.333 -39.5 174s-61.666 76.334 -105.999 95.001s-104.833 28 -181.5 28c-28.667 0 -54.667 -1.33301 -78 -4v-456l2 -119z" />
    <glyph glyph-name="C" unicode="C" horiz-adv-x="1479" 
d="M1427 181l-45.999 -100.999c-84 -44 -159 -74.167 -225 -90.5s-148.667 -24.5 -248 -24.5c-141.333 0 -266 22.333 -374 67c-86 35.333 -158.667 82.666 -218 141.999s-105 124 -137 194c-48.667 104.667 -73 218.334 -73 341.001c0 141.333 32 264.666 96 369.999
s156.333 189 277 251s271.334 93 452.001 93c88.667 0 168.667 -6.33301 240 -19c71.333 -13.333 151.666 -36 240.999 -68l13 -16c-22 -89.333 -36 -198.666 -42 -327.999h-78c-2 76 -5.33301 134.667 -10 176c-44.667 46.667 -94.834 81.5 -150.501 104.5
s-126.834 34.5 -213.501 34.5c-156.667 0 -282 -49.5 -376 -148.5s-141 -237.167 -141 -414.5c0 -107.333 15.833 -201 47.5 -281s73.834 -146.167 126.501 -198.5s105.667 -90.5 159 -114.5c72.667 -32 160.667 -48 264 -48c68 0 132.167 7.66699 192.5 23
s126.5 41.666 198.5 78.999z" />
    <glyph glyph-name="D" unicode="D" horiz-adv-x="1706" 
d="M131 0l0.00292969 47.998c5.33301 3.33301 14.666 8.66602 27.999 15.999c26 14.667 49.333 29.334 70 44.001c4 45.333 6.33301 87.333 7 126c1.33301 38.667 2.66602 141.667 3.99902 309v164c0 88 -1.66699 219 -5 393c-2 90 -6.33301 148 -13 174
c-2 6 -4.66699 10.667 -8 14c-5.33301 5.33301 -13.833 9.33301 -25.5 12s-53.5 8.66699 -125.5 18v81l363 -6c44 0 124 1.66699 240 5c85.333 2 153.666 3 204.999 3c118 0 212.667 -7.16699 284 -21.5s133.333 -37.166 186 -68.499s97.167 -68.833 133.5 -112.5
s63.833 -90.5 82.5 -140.5c31.333 -84 47 -175.667 47 -275c0 -106.667 -14.333 -199 -43 -277s-65.667 -145.667 -111 -203s-94.666 -105.666 -147.999 -144.999c-71.333 -52 -151.333 -91.333 -240 -118s-199.334 -40 -332.001 -40l-296 6zM531.003 121.998
c61.333 -9.33301 120.331 -13.998 176.998 -13.998c89.333 0 168 9.33301 236 28c50.667 14 94.834 34.167 132.501 60.5s74 65.166 109 116.499s62.5 113.166 82.5 185.499s30 150.833 30 235.5c0 76 -9.66699 149.5 -29 220.5s-51 133 -95 186s-99.667 91.667 -167 116
s-169.666 36.5 -306.999 36.5c-50.667 0 -107 -4.33301 -169 -13c-2.66699 -38.667 -4.33398 -77.667 -5.00098 -117c-3.33301 -142.667 -5 -282 -5 -418v-230c0 -106 1.66699 -215 5 -327c0.666992 -18.667 2.33398 -40.667 5.00098 -66z" />
    <glyph glyph-name="E" unicode="E" horiz-adv-x="1251" 
d="M123 0l-0.000976562 53.998c40.667 18.667 73.334 37.667 98.001 57c4 28.667 7.33301 73.334 10 134.001c5.33301 116 8 200.333 8 253v450c0 17.333 -1 82.333 -3 195c-2 75.333 -6.66699 121.333 -14 138c-3.33301 6.66699 -8.33301 11.334 -15 14.001
c-18 8.66699 -66 15 -144 19v85l244 -5c40.667 -0.666992 80.667 -1 120 -1c90.667 0 192.334 1 305.001 3l223 5c24 0 72.667 -1.33301 146 -4c6.66699 0 17.667 -2 33 -6l7 -13l-19 -144c-0.666992 -10.667 -4 -58.667 -10 -144h-78
c-1.33301 80.667 -4.66602 130.334 -9.99902 149.001c-2 7.33301 -6.33301 13 -13 17c-11.333 7.33301 -47.5 13.5 -108.5 18.5s-118.833 7.5 -173.5 7.5c-65.333 0 -129.333 -2.33301 -192 -7c-9.33301 -75.333 -14 -171 -14 -287v-205c46 -3.33301 93.333 -5 142 -5
c51.333 0 115 1.33301 191 4c18 0.666992 30.333 2.66699 37 6c4.66699 2 8.33398 5.33301 11.001 10c4 6.66699 7.66699 21 11 43c4.66699 32 7.33398 64 8.00098 96h81l-4 -220l4 -219h-87c1.33301 66.667 -1.66699 110.334 -9 131.001
c-4.66699 13.333 -11.334 22.666 -20.001 27.999s-29 9.66602 -61 12.999c-48 4.66699 -94.667 7 -140 7c-68 0 -122.667 -2 -164 -6v-424c0 -48 1 -88.667 3 -122c56 -4 120.333 -6 193 -6c70.667 0 136.667 2.33301 198 7s98.666 11 111.999 19
c5.33301 3.33301 9.66602 9.33301 12.999 18c12.667 30.667 25.667 91.667 39 183h82c-14.667 -132 -22 -240.667 -22 -326l-13 -13c-18.667 -2 -38.667 -3.33301 -60 -4c-62 -2 -102.667 -3 -122 -3l-116 2c-136 2.66699 -260 4 -372 4c-16.667 0 -128.334 -2 -335.001 -6z
" />
    <glyph glyph-name="F" unicode="F" horiz-adv-x="1139" 
d="M970 486l-80.002 -0.00195312c-2 84 -7.66699 134.667 -17 152c-4.66699 8.66699 -17 14.667 -37 18c-50.667 8.66699 -129 13 -235 13c-16 0 -42 -0.333008 -78 -1v-192c0 -48 1.16699 -113.667 3.5 -197s6.5 -135.666 12.5 -156.999c2 -6.66699 6 -12.5 12 -17.5
s15.833 -9 29.5 -12s62.167 -7.5 145.5 -13.5v-79l-392 7c-56.667 0 -146.334 -2.33301 -269.001 -7v83c70.667 1.33301 114 4 130 8c6 1.33301 11.333 4.33301 16 9s8.83398 15 12.501 31s6.83398 56.667 9.50098 122c4.66699 112 7 185.667 7 221v414
c0 8.66699 -3 105 -9 289c-2 48 -6.33301 82.667 -13 104c-1.33301 5.33301 -4 9.66602 -8 12.999c-5.33301 4 -15.166 7.33301 -29.499 10s-52.833 6.33398 -115.5 11.001v84l355 -6l482 8c66.667 0 130 -3.33301 190 -10l9 -14
c-7.33301 -37.333 -13.833 -85.833 -19.5 -145.5s-8.5 -110.834 -8.5 -153.501h-82c0 21.333 -2 64 -6 128c-1.33301 20.667 -4.16602 33.667 -8.49902 39s-18.833 11 -43.5 17c-54 14.667 -120.333 22 -199 22c-12.667 0 -44.334 -1 -95.001 -3
c-51.333 -2 -86.333 -3.66699 -105 -5c-7.33301 -67.333 -11 -187.666 -11 -360.999v-140c83.333 -2.66699 141 -4 173 -4c57.333 0 104 2.33301 140 7c17.333 2 28.666 5.66699 33.999 11s9.83301 16.333 13.5 33s5.83398 49.334 6.50098 98.001h87
c-4.66699 -110 -7 -254.667 -7 -434z" />
    <glyph glyph-name="G" unicode="G" horiz-adv-x="1706" 
d="M1465 994l-79.998 -0.00390625c0 21.333 -1.33301 53.333 -4 96c-2.66699 28.667 -6 53.334 -10 74.001c-16.667 19.333 -35 36 -55 50c-43.333 28.667 -93.333 51.334 -150 68.001s-120.334 25 -191.001 25c-166.667 0 -300.167 -51.667 -400.5 -155
s-150.5 -245.333 -150.5 -426c0 -197.333 56.333 -358 169 -482c98.667 -108.667 224.334 -163 377.001 -163c89.333 0 174.666 18.333 255.999 55c2 18 3.66699 52.167 5 102.5s2 81.833 2 94.5c0 64 -3 102 -9 114c-3.33301 8 -12 13.667 -26 17
c-22.667 6.66699 -86 13 -190 19v81l299 -4l301 4v-66c-26.667 -5.33301 -47.667 -12.666 -63 -21.999c-8 -5.33301 -13.667 -10.666 -17 -15.999s-5.33301 -14.666 -6 -27.999c-0.666992 -7.33301 -1.83398 -34.333 -3.50098 -81s-2.5 -82 -2.5 -106
c0 -50.667 3 -102.667 9 -156c-125.333 -46 -234 -78 -326 -96c-92.667 -18.667 -184.334 -28 -275.001 -28c-107.333 0 -207.666 13.667 -300.999 41s-173.333 67 -240 119s-117.667 106 -153 162s-63 118.5 -83 187.5s-30 144.5 -30 226.5c0 104.667 15.5 196 46.5 274
s74.167 146.333 129.5 205s118.333 106.167 189 142.5s144.334 62.166 221.001 77.499c77.333 15.333 161.666 23 252.999 23c112 0 216.667 -10 314 -30c97.333 -20.667 174.333 -43.667 231 -69l8 -19c-8 -28.667 -14.667 -59.667 -20 -93
c-7.33301 -49.333 -15.333 -122 -24 -218z" />
    <glyph glyph-name="H" unicode="H" horiz-adv-x="1706" 
d="M71 0l0.00390625 88c62.667 1.33301 101.167 3.33301 115.5 6s24.666 6.5 30.999 11.5s11.166 11.833 14.499 20.5c6.66699 20 10.334 67 11.001 141l4 198v468c0 89.333 -1.66699 173.666 -5 252.999c-2 48.667 -6 79.667 -12 93
c-3.33301 6.66699 -8.83301 12.334 -16.5 17.001s-18.834 8 -33.501 10s-51 3.66699 -109 5v88c108 -4 223.667 -6 347 -6c108.667 0 204.667 2 288 6v-88c-71.333 -2.66699 -113.333 -5.33398 -126 -8.00098c-12.667 -3.33301 -21.667 -8.16602 -27 -14.499
s-9.33301 -29.833 -12 -70.5c-6 -68.667 -9 -167 -9 -295v-114c48 -4 148.667 -6 302 -6c193.333 0 312.666 2 357.999 6v114c0 104.667 -1 173 -3 205c-5.33301 88 -9.33301 137.667 -12 149c-1.33301 5.33301 -4.33301 10.333 -9 15s-12.667 8.33398 -24 11.001
c-12 2.66699 -53.667 5.33398 -125 8.00098v88c83.333 -4 179.666 -6 288.999 -6c122.667 0 238 2 346 6v-88c-62.667 -1.33301 -101.167 -3.33301 -115.5 -6s-24.833 -6.5 -31.5 -11.5s-11.334 -12.167 -14.001 -21.5c-6.66699 -20 -10.334 -67 -11.001 -141l-4 -198v-468
c0 -95.333 1.66699 -181.333 5 -258c2.66699 -45.333 6.66699 -74.333 12 -87c3.33301 -6.66699 8.83301 -12.334 16.5 -17.001s18.834 -8 33.501 -10s51 -3.66699 109 -5v-88c-108 4 -223.667 6 -347 6c-108.667 0 -204.667 -2 -288 -6v88
c70.667 2.66699 111.667 5.33398 123 8.00098c14 3.33301 23.667 8 29 14s9.66602 28 12.999 66c5.33301 69.333 8 169 8 299v209c-34 4.66699 -131.667 7 -293 7c-155.333 0 -258.333 -0.666992 -309 -2c-18.667 -0.666992 -38 -2.33398 -58 -5.00098v-209
c0 -104 1 -172 3 -204c6 -88 10.333 -137.667 13 -149c1.33301 -6 4.33301 -11.167 9 -15.5s12.834 -7.83301 24.501 -10.5s53.167 -5.33398 124.5 -8.00098v-88c-83.333 4 -179.666 6 -288.999 6c-122.667 0 -238 -2 -346 -6z" />
    <glyph glyph-name="I" unicode="I" horiz-adv-x="797" 
d="M732 1399l0.000976562 -88c-70.667 -2 -113.667 -5.33301 -129 -10c-10 -2.66699 -17.833 -7.5 -23.5 -14.5s-9.83398 -18.5 -12.501 -34.5c-1.33301 -12 -4 -82.333 -8 -211c-1.33301 -57.333 -2 -121.666 -2 -192.999v-403l3 -183
c0 -68.667 3.33301 -113.334 10 -134.001c2.66699 -9.33301 7.16699 -16.5 13.5 -21.5s16.333 -9 30 -12s53.167 -5.16699 118.5 -6.5v-88c-107.333 4 -223.333 6 -348 6c-110.667 0 -206.334 -2 -287.001 -6v88c72.667 2.66699 114.834 5.5 126.501 8.5
s19.667 6.83301 24 11.5s7.5 12.334 9.5 23.001c0.666992 5.33301 4.33398 55.666 11.001 150.999c2 33.333 3 85.333 3 156v418c0 134 -0.666992 219.667 -2 257c-4 86.667 -8.33301 140 -13 160c-1.33301 8 -4.33301 14.167 -9 18.5s-12.834 8 -24.501 11
s-53.5 5.83301 -125.5 8.5v88c83.333 -4 179.333 -6 288 -6c124 0 239.667 2 347 6z" />
    <glyph glyph-name="J" unicode="J" horiz-adv-x="797" 
d="M5 -239l23 13c33.333 -29.333 60 -48.666 80 -57.999s41 -14 63 -14c26 0 46 5.66699 60 17s24.333 28.333 31 51s11 76.334 13 161.001l5 210v782c0 85.333 -1 162.666 -3 231.999c-2.66699 70 -6.66699 111.333 -12 124c-2.66699 6.66699 -7 12 -13 16
c-8.66699 6 -13.334 9 -14.001 9l-161 7v88c126.667 -4.66699 257.334 -7 392.001 -7c110 0 203.667 2.33301 281 7v-87c-64.667 -1.33301 -102 -3 -112 -5c-19.333 -2.66699 -33.666 -7.66699 -42.999 -15c-6 -4.66699 -10.667 -11.334 -14 -20.001
c-4.66699 -11.333 -8.33398 -45 -11.001 -101c-2 -32 -3 -86.667 -3 -164v-364l2 -428c0 -88.667 -5 -155.667 -15 -201c-14.667 -70.667 -41.667 -135.667 -81 -195c-52 -78 -121 -142.667 -207 -194c-68 -41.333 -129.667 -62 -185 -62c-25.333 0 -52.333 5 -81 15
c3.33301 46 5 107 5 183z" />
    <glyph glyph-name="K" unicode="K" horiz-adv-x="1593" 
d="M1559 87l0.00585938 -87.001c-95.333 2.66699 -178 4 -248 4c-54.667 0 -107.334 -1.33301 -158.001 -4c-19.333 38.667 -72 107 -158 205l-284 333c-60 70.667 -99 111.334 -117 122.001c-10.667 7.33301 -21 11 -31 11c-8 0 -14.333 -2.66699 -19 -8
c-2.66699 -2.66699 -4 -11.334 -4 -26.001v-225c0 -11.333 1.33301 -78 4 -200c0.666992 -51.333 5 -83.333 13 -96c4.66699 -7.33301 13.667 -13.333 27 -18s57 -8.33398 131 -11.001v-87c-108.667 4 -224.334 6 -347.001 6c-108.667 0 -204.667 -2 -288 -6v87
c67.333 3.33301 111.666 8 132.999 14c7.33301 2 13.5 5.83301 18.5 11.5s9 14.667 12 27s5.83301 37.833 8.5 76.5c6 98.667 9 171.667 9 219v363l-7 312c-1.33301 75.333 -4.66602 125.666 -9.99902 150.999c-2.66699 14 -6.33398 23.167 -11.001 27.5
s-11.334 7.83301 -20.001 10.5c-14 4 -58.333 8 -133 12v88c83.333 -4 179.666 -6 288.999 -6c122.667 0 238 2 346 6v-88c-77.333 -1.33301 -124.333 -6.66602 -141 -15.999c-10 -6 -17 -18.667 -21 -38c-8.66699 -43.333 -13 -125.666 -13 -246.999v-276l17 -7
c62.667 50 148.667 131.333 258 244l142 145c53.333 54.667 93.666 98 120.999 130l49 57l15 18v12c0 13.333 -1 35.333 -3 66c69.333 -2 115 -3 137 -3l234 3v-81c-50.667 -1.33301 -86.5 -4.33301 -107.5 -9s-39.5 -11.667 -55.5 -21
c-24 -13.333 -63.333 -43.666 -118 -90.999c-33.333 -28.667 -99.333 -88.667 -198 -180l-198 -190c25.333 -34 71 -90 137 -168l219 -257l203 -233c37.333 -40 64.5 -63.667 81.5 -71s45.5 -11 85.5 -11z" />
    <glyph glyph-name="L" unicode="L" horiz-adv-x="1251" 
d="M137 0l0.000976562 51.999c35.333 14.667 64.666 30.334 87.999 47.001c8 6 13.333 12 16 18s5 37.667 7 95c4.66699 112.667 7 263.667 7 453c0 206 -0.333008 332 -1 378c-2.66699 116 -6 187 -10 213c-2.66699 13.333 -6.16699 22.666 -10.5 27.999
s-11.833 9.66602 -22.5 12.999c-18.667 6 -65 10.667 -139 14v88c83.333 -4 179.666 -6 288.999 -6c122.667 0 238 2 346 6v-88c-76 -3.33301 -122 -9.33301 -138 -18c-7.33301 -4 -12.666 -10.5 -15.999 -19.5s-6.33301 -49.833 -9 -122.5
c-3.33301 -72.667 -5 -166 -5 -280v-22l1 -258l3 -462c88 -4 151 -6 189 -6c102 0 192 6.33301 270 19c24 3.33301 38.667 7.33301 44 12s11 18.334 17 41.001c14 54 26.667 110.667 38 170h83l-3 -32l-22 -173l-12 -144c-19.333 -5.33301 -38 -8.66602 -56 -9.99902
c-43.333 -4 -107.333 -6 -192 -6c-13.333 0 -91.666 1.66699 -234.999 5c-107.333 2.66699 -183.333 4 -228 4c-64.667 0 -164.334 -3 -299.001 -9z" />
    <glyph glyph-name="M" unicode="M" horiz-adv-x="2048" 
d="M72 0l-0.00390625 85.0049c74 5.33301 118.333 10.666 133 15.999c8 2.66699 14.667 7.33398 20 14.001s9 17.667 11 33c3.33301 19.333 7.33301 93.666 12 222.999c2.66699 63.333 4 200.333 4 411c0 106.667 -1.33301 215 -4 325
c-1.33301 88.667 -5.33301 142.667 -12 162c-2.66699 9.33301 -6.83398 16.333 -12.501 21s-17.167 8.33398 -34.5 11.001c-43.333 7.33301 -82.333 11.666 -117 12.999v85c137.333 -4.66699 232.333 -7 285 -7c68.667 0 137.334 2.33301 206.001 7l30 -68
c28.667 -65.333 51.334 -115.333 68.001 -150l48 -103l12 -27l318 -656l108 214l45 92l132 277l137 292c16 34.667 33.667 77.667 53 129c84.667 -4.66699 140 -7 166 -7l300 7v-85h-14c-24 0 -49.333 -1.66699 -76 -5c-20.667 -2.66699 -36.334 -7.83398 -47.001 -15.501
s-18 -16.834 -22 -27.501c-6.66699 -18.667 -10 -42 -10 -70v-30l-6 -377v-351l-1 -71c0 -36.667 2.33301 -84.334 7 -143.001s8.33398 -91.834 11.001 -99.501s6.66699 -13.5 12 -17.5c7.33301 -6 18 -10.333 32 -13c7.33301 -1.33301 45.333 -4.33301 114 -9v-85l-319 6
l-312 -6v85c82.667 2.66699 129.834 7.5 141.501 14.5s19.834 22.833 24.501 47.5c5.33301 24.667 8 107.334 8 248.001v728l-232 -469l-102 -216c-82.667 -172.667 -152.667 -324.334 -210 -455.001h-68c-17.333 41.333 -37.333 86.666 -60 135.999l-220 467l-263 537v-491
c0 -82 1 -179.333 3 -292c2.66699 -112.667 5.33398 -176.667 8.00098 -192s6.66699 -26.166 12 -32.499s14.333 -11.833 27 -16.5c16.667 -5.33301 58.667 -10 126 -14v-85l-111 5c-23.333 0.666992 -62 1 -116 1c-103.333 0 -185 -2 -245 -6z" />
    <glyph glyph-name="N" unicode="N" horiz-adv-x="1706" 
d="M79 85c78.667 4 124.331 7.99902 136.998 11.999c6.66699 2.66699 12 6.33398 16 11.001c5.33301 7.33301 9.66602 20.333 12.999 39c4.66699 26 9.33398 88.333 14.001 187c2.66699 52.667 4 123.334 4 212.001v321l-4 289c-0.666992 50 -2.66699 82.333 -6 97
s-8.16602 25.5 -14.499 32.5s-16.833 12.5 -31.5 16.5s-57.334 8.33301 -128.001 13v84c84.667 -4 147 -6 187 -6c6.66699 0 85.667 2 237 6l350 -440l346 -411c43.333 -49.333 94.333 -104.333 153 -165v231c0 130 -1.33301 275.667 -4 437
c-1.33301 90 -3.33301 149.667 -6 179s-7 48.333 -13 57c-3.33301 6 -8.33301 10.333 -15 13c-21.333 9.33301 -70.666 14.333 -147.999 15v84c80 -4 154 -6 222 -6c72.667 0 158.334 2 257.001 6v-84c-68.667 -2 -115 -7 -139 -15c-5.33301 -2 -9.83301 -5.33301 -13.5 -10
s-6.83398 -17.334 -9.50098 -38.001c-6.66699 -51.333 -11 -110.333 -13 -177c-3.33301 -120.667 -5 -215.667 -5 -285c0 -443.333 4 -712.333 12 -807l-12 -9c-60 10 -117 18.667 -171 26c-210.667 235.333 -516 596.666 -916 1084v-498c0 -111.333 2 -223.666 6 -336.999
c2.66699 -68.667 6.66699 -111 12 -127c2.66699 -8 7.33398 -14.5 14.001 -19.5s18 -8.5 34 -10.5c42 -5.33301 73.333 -8 94 -8c4 0 10.667 0.333008 20 1v-81c-134 1.33301 -210.333 2 -229 2c-54.667 0 -138 -2 -250 -6v85z" />
    <glyph glyph-name="O" unicode="O" horiz-adv-x="1706" 
d="M108 683c0 122 18.332 228.336 54.999 319.003s89.5 167.667 158.5 231s143.5 108.666 223.5 135.999c103.333 36 216.333 54 339 54c108.667 0 207.834 -13.667 297.501 -41s167 -69.5 232 -126.5s114.167 -121.167 147.5 -192.5c43.333 -91.333 65 -200 65 -326
c0 -92.667 -12.5 -182.5 -37.5 -269.5s-63 -164 -114 -231s-109.667 -120 -176 -159s-138.833 -67.5 -217.5 -85.5s-159 -27 -241 -27c-114 0 -215.333 15.5 -304 46.5s-166.667 79.167 -234 144.5s-116.5 142.166 -147.5 230.499s-46.5 187.166 -46.5 296.499z
M415.999 742.003c0 -101.333 10.333 -195.999 31 -283.999c14 -59.333 34.333 -113.166 61 -161.499s57.167 -88.5 91.5 -120.5s74.166 -56.333 119.499 -73s99 -25 161 -25c50 0 96.833 7.16699 140.5 21.5s80.834 33.333 111.501 57s59 55.5 85 95.5s47.333 89 64 147
c24.667 87.333 37 183.666 37 288.999c0 91.333 -10 175.833 -30 253.5s-49.167 144 -87.5 199s-83.333 96.833 -135 125.5s-120.167 43 -205.5 43c-71.333 0 -134.333 -12 -189 -36s-101 -59.833 -139 -107.5s-66.833 -108.834 -86.5 -183.501s-29.5 -154.667 -29.5 -240z
" />
    <glyph glyph-name="P" unicode="P" horiz-adv-x="1251" 
d="M64 1316v83.0029l298 -7l445 9c87.333 0 156.5 -9 207.5 -27s94.5 -50.833 130.5 -98.5s54 -108.834 54 -183.501c0 -75.333 -17.5 -145.333 -52.5 -210s-89.667 -117.834 -164 -159.501s-154.166 -62.5 -239.499 -62.5c-41.333 0 -82.333 4.66699 -123 14
c-6 18.667 -17.667 42.334 -35 71.001l21 22c28.667 -9.33301 54.667 -14 78 -14c64 0 117 22.833 159 68.5s63 112.167 63 199.5c0 91.333 -22.167 160 -66.5 206s-105.5 69 -183.5 69c-36.667 0 -78.334 -4.33301 -125.001 -13
c-3.33301 -41.333 -5.33301 -102.333 -6 -183l-3 -195v-379c0 -88.667 1.33301 -183.334 4 -284.001c1.33301 -61.333 5 -100 11 -116c2.66699 -6.66699 7.16699 -12.5 13.5 -17.5s17.5 -8.83301 33.5 -11.5l136 -9v-88c-169.333 4 -298 6 -386 6
c-95.333 0 -185.333 -2 -270 -6v88c74 2 120.667 7.66699 140 17c6 3.33301 10.667 8.33301 14 15c4.66699 9.33301 8 32.333 10 69c8 107.333 12 227.333 12 360v352l-5 247c-0.666992 64 -4 106.667 -10 128c-2 7.33301 -6.16699 13.666 -12.5 18.999
s-17.833 9.66602 -34.5 12.999c-4.66699 0.666992 -42.667 3.33398 -114 8.00098z" />
    <glyph glyph-name="Q" unicode="Q" horiz-adv-x="1706" 
d="M107 687c0 119.333 18.168 224.001 54.501 314.001s88 166.333 155 229s137.833 108 212.5 136c103.333 38 221.333 57 354 57c123.333 0 228.5 -15.167 315.5 -45.5s161.333 -74.333 223 -132s107.834 -119.5 138.501 -185.5c42 -88.667 63 -196 63 -322
c0 -102 -13.167 -195.333 -39.5 -280s-63.833 -158.334 -112.5 -221.001s-105.334 -113.667 -170.001 -153s-136 -68.333 -214 -87c-78.667 -18.667 -159.334 -28 -242.001 -28c-122 0 -228 16.833 -318 50.5s-163.5 78.5 -220.5 134.5s-100.5 116.667 -130.5 182
c-46 102 -69 219 -69 351zM414.001 737.001c0 -202.667 39.834 -363 119.501 -481s195.5 -177 347.5 -177c73.333 0 140 15.667 200 47c45.333 23.333 84 56.333 116 99c42.667 56.667 73.167 124.5 91.5 203.5s27.5 162.5 27.5 250.5c0 84.667 -8.5 166 -25.5 244
s-43.833 146.333 -80.5 205s-82.5 103.667 -137.5 135s-126.5 47 -214.5 47c-79.333 0 -149.333 -15 -210 -45c-45.333 -22.667 -85.833 -56.5 -121.5 -101.5s-63.334 -104.333 -83.001 -178s-29.5 -156.5 -29.5 -248.5zM444.002 -304.999l-22 65.001
c18 16.667 46.667 38.334 86 65.001c76.667 53.333 126.834 86.666 150.501 99.999s54.5 27.666 92.5 42.999c40.667 -6 85.667 -16 135 -30c50 -14.667 142 -45.334 276 -92.001c82 -28.667 143 -47.667 183 -57s72.333 -14 97 -14c17.333 0 34 1.66699 50 5
c12.667 2 25.334 5.66699 38.001 11l78 33v-76c-26.667 -15.333 -76.667 -45.666 -150 -90.999c-26.667 -16.667 -47.334 -30.667 -62.001 -42c-15.333 0 -48.666 4.33301 -99.999 13c-67.333 12 -150 32.667 -248 62c-132.667 39.333 -223.334 64.333 -272.001 75
c-66.667 14.667 -111 22 -133 22c-19.333 0 -38 -3.66699 -56 -11c-24.667 -10.667 -72.334 -37.667 -143.001 -81z" />
    <glyph glyph-name="R" unicode="R" horiz-adv-x="1479" 
d="M82 1316l-0.00292969 81.9971c14 0 68.333 -1.33301 163 -4c43.333 -1.33301 105 -2 185 -2c70.667 0 129 1 175 3c88 4 158.667 6 212 6c97.333 0 168 -5.33301 212 -16s82.5 -30.167 115.5 -58.5s57.167 -59.5 72.5 -93.5s23 -74.333 23 -121
c0 -50 -7.66699 -93.833 -23 -131.5s-36.666 -72.167 -63.999 -103.5s-58 -58.166 -92 -80.499s-76.333 -42.833 -127 -61.5c16.667 -30 35.667 -60.667 57 -92s33.666 -50.333 36.999 -57c4 -6.66699 8 -13 12 -19l155 -233l67 -100c50 -66.667 80.667 -106 92 -118
s22.5 -20.333 33.5 -25s31.833 -7.33398 62.5 -8.00098v-83c-102 2.66699 -176 4 -222 4c-53.333 0 -106.666 -1.33301 -159.999 -4c-3.33301 15.333 -12 35.333 -26 60l-199 328c-67.333 112 -122.666 197.667 -165.999 257c-22.667 31.333 -44.334 54.666 -65.001 69.999
l11 33c15.333 -0.666992 26.666 -1 33.999 -1c66.667 0 119 10.333 157 31s70 54.667 96 102s39 100.333 39 159c0 60.667 -14.833 111.5 -44.5 152.5s-65.5 69.167 -107.5 84.5c-28 10.667 -78.333 16 -151 16c-32 0 -63.667 -2.66699 -95 -8c-2 -23.333 -4 -73 -6 -149
c-4 -191.333 -6 -321.666 -6 -390.999c0 -110.667 2 -261 6 -451c1.33301 -79.333 3.5 -127.833 6.5 -145.5s7.16699 -29.667 12.5 -36s13.333 -11.166 24 -14.499c14.667 -4.66699 57.667 -8 129 -10v-87c-114.667 4 -230 6 -346 6c-103.333 0 -199.666 -2 -288.999 -6v87
c76 3.33301 120.667 7 134 11c8.66699 2.66699 14.834 6.16699 18.501 10.5s6.5 13.5 8.5 27.5c4.66699 26 8 65.667 10 119l8 292v371c0 91.333 -1.66699 183 -5 275c-1.33301 36.667 -3.66602 60.834 -6.99902 72.501s-7.33301 19.834 -12 24.501s-12.667 8.66699 -24 12
c-20 5.33301 -63.667 10 -131 14z" />
    <glyph glyph-name="S" unicode="S" horiz-adv-x="1251" 
d="M1030 1033l-83.001 -0.00195312c-1.33301 77.333 -4.66602 132 -9.99902 164c-20.667 29.333 -56.5 55.333 -107.5 78s-108.167 34 -171.5 34c-93.333 0 -164.166 -23.333 -212.499 -70s-72.5 -103.667 -72.5 -171c0 -34.667 6.83301 -66.334 20.5 -95.001
s33 -51.667 58 -69s61.5 -31.666 109.5 -42.999c19.333 -4.66699 69.833 -13.334 151.5 -26.001s133.167 -21.667 154.5 -27c54 -13.333 97.5 -29.833 130.5 -49.5s59.333 -42.334 79 -68.001s35.834 -58 48.501 -97s19 -82.833 19 -131.5
c0 -85.333 -17.667 -160.333 -53 -225c-26.667 -48.667 -63.667 -93.167 -111 -133.5s-96 -70.5 -146 -90.5c-80 -32 -176.333 -48 -289 -48c-79.333 0 -149.333 7 -210 21s-128.334 38.667 -203.001 74l-12 21c18 72 27.333 183 28 333h84
c-0.666992 -13.333 -1 -23.666 -1 -30.999c0 -35.333 4 -84.666 12 -147.999c25.333 -41.333 68.666 -77.666 129.999 -108.999s128.333 -47 201 -47c63.333 0 119 11.833 167 35.5s84 57.5 108 101.5s36 89 36 135c0 41.333 -9.33301 79 -28 113s-44.334 59.5 -77.001 76.5
s-94 32.667 -184 47s-149.333 24.833 -178 31.5c-51.333 12 -93.333 27 -126 45s-60.5 41.167 -83.5 69.5s-41.667 62.833 -56 103.5s-21.5 86 -21.5 136c0 74.667 15.667 143.5 47 206.5s72.5 111.833 123.5 146.5s109 59.5 174 74.5s131.5 22.5 199.5 22.5
c70.667 0 139.334 -6.5 206.001 -19.5s124 -31.167 172 -54.5l8 -24c-16.667 -79.333 -27 -176.666 -31 -291.999z" />
    <glyph glyph-name="T" unicode="T" horiz-adv-x="1366" 
d="M360 0v82.001c80 2.66699 127.5 8.16699 142.5 16.5s25.167 21.5 30.5 39.5c7.33301 28.667 11 115 11 259v599c0 158 -0.333008 241.667 -1 251c0 1.33301 -0.666992 9 -2 23h-143c-83.333 0 -146.333 -2.33301 -189 -7c-18 -2.66699 -30.667 -7.66699 -38 -15
s-12.666 -21 -15.999 -41c-6.66699 -48.667 -10.667 -96.667 -12 -144h-83l-3 186c-0.666992 25.333 -1.83398 48.166 -3.50098 68.499s-4.5 44.166 -8.5 71.499l9 10c30.667 -3.33301 63.334 -5.66602 98.001 -6.99902s145.667 -2.33301 333 -3h404c168 0 280.667 1 338 3
c30 1.33301 60.667 3.66602 92 6.99902l10 -10c-6 -40 -9.66699 -75.667 -11 -107l-4 -219h-83c-0.666992 38 -4.33398 81 -11.001 129c-3.33301 27.333 -9 46 -17 56c-4.66699 6 -14 10.333 -28 13c-30.667 6 -100 9 -208 9h-134l-2 -23v-21l-1 -230v-599
c0 -144 3.66699 -230.667 11 -260c4.66699 -17.333 14.667 -30.166 30 -38.499s63 -13.833 143 -16.5v-82c-130.667 6 -239.667 9 -327 9c-94 0 -203 -3 -327 -9z" />
    <glyph glyph-name="U" unicode="U" horiz-adv-x="1593" 
d="M55 1316v83.0029l325 -6l81 1l81 2l81 1l64 2v-83c-53.333 0 -91 -2.66699 -113 -8c-14 -4 -24.167 -9.16699 -30.5 -15.5s-10.833 -15.833 -13.5 -28.5c-6 -24.667 -10 -69.334 -12 -134.001s-3 -103.334 -3 -116.001l1 -25v-232l1 -121c0 -132 2.33301 -213.667 7 -245
c8 -52 22.667 -94.667 44 -128c16 -25.333 38 -47.5 66 -66.5s62.833 -34.167 104.5 -45.5s90.167 -17 145.5 -17c94.667 0 170.334 16.833 227.001 50.5s95.334 77.167 116.001 130.5s31 146.333 31 279v204c0 175.333 -0.333008 283 -1 323
c-2 84 -6.66699 134.333 -14 151c-4.66699 10.667 -12.334 18.667 -23.001 24c-22 11.333 -70 18 -144 20v83c120 -4.66699 191.667 -7 215 -7c5.33301 0 10.666 0.333008 15.999 1l233 6v-83c-62 0 -101 -5.33301 -117 -16c-8 -4.66699 -14.5 -14.334 -19.5 -29.001
s-9.83301 -81.334 -14.5 -200.001c-4.66699 -119.333 -7 -215 -7 -287v-235c0 -54.667 -4 -114.667 -12 -180s-24.833 -120.5 -50.5 -165.5s-62 -86.167 -109 -123.5s-99.167 -64.333 -156.5 -81c-74.667 -22.667 -156.667 -34 -246 -34c-108 0 -209.333 15.667 -304 47
c-60.667 19.333 -110 46.166 -148 80.499s-68 73.833 -90 118.5c-15.333 32 -25.333 71.333 -30 118c-5.33301 47.333 -8 142.333 -8 285v346c0 96.667 -2 181.334 -6 254.001c-2 28.667 -6 49.334 -12 62.001c-4 8 -9.66699 14.5 -17 19.5s-18 8.5 -32 10.5z" />
    <glyph glyph-name="V" unicode="V" horiz-adv-x="1593" 
d="M743 -7l-163.001 398.999l-142 339c-97.333 232 -163.333 385.667 -198 461c-26.667 56 -47 89 -61 99c-18.667 12.667 -61.667 19.667 -129 21v87c164.667 -4.66699 256.667 -7 276 -7l375 7v-87c-76.667 -0.666992 -122.5 -5.66699 -137.5 -15
s-22.5 -21.666 -22.5 -36.999c0 -8 1.66699 -18 5 -30c6.66699 -22.667 22.334 -64 47.001 -124l53 -132l7 -19l253 -617l222 550c6 13.333 30 77 72 191c29.333 80 47 133 53 159c2 8 3 16 3 24c0 11.333 -1.83301 19.833 -5.5 25.5s-8.5 9.83398 -14.5 12.501
c-4.66699 2 -17 3.66699 -37 5c-42 4 -78.333 6.33301 -109 7v87l246 -7l224 7v-87c-54.667 -5.33301 -87.667 -10.833 -99 -16.5s-21.333 -14.5 -30 -26.5c-16 -22.667 -45.333 -84.334 -88 -185.001l-80 -186l-135 -322l-173 -425c-22.667 -57.333 -42.667 -110 -60 -158
h-152z" />
    <glyph glyph-name="W" unicode="W" horiz-adv-x="2048" 
d="M1078 1416l91.999 0.000976562l44 -118l51 -131l209 -526l77 -190l111 430l71 290c6.66699 31.333 10.667 52.666 12 63.999c1.33301 7.33301 2 14 2 20c0 15.333 -4.33301 27.666 -13 36.999c-6.66699 7.33301 -18.667 12.333 -36 15
c-4.66699 0.666992 -43 3.66699 -115 9v83c118.667 -4.66699 191 -7 217 -7l236 7v-83l-94 -11c-10 -4.66699 -19.667 -13.5 -29 -26.5s-30.666 -74.5 -63.999 -184.5s-85.666 -299.667 -156.999 -569c-79.333 -300 -123.333 -477.333 -132 -532h-153l-10 26
c-0.666992 0.666992 -13.334 35.334 -38.001 104.001l-167 434l-166 420l-113 -263l-205 -481c-8 -18 -36 -89.333 -84 -214c-1.33301 -3.33301 -5.33301 -12 -12 -26h-146l-232 1064c-25.333 116.667 -43.333 187 -54 211c-7.33301 16.667 -17.333 28 -30 34
c-16 8 -50.667 12.667 -104 14v83l279 -7l327 7v-83l-97 -4c-18.667 -2.66699 -32 -7.83398 -40 -15.501s-12 -19.5 -12 -35.5c0 -6 0.333008 -13 1 -21c1.33301 -11.333 6 -38.666 14 -81.999l50 -262l100 -458l68 163l197 465l116 276z" />
    <glyph glyph-name="X" unicode="X" horiz-adv-x="1366" 
d="M39 0l0.000976562 83.002c54.667 4 87.334 8 98.001 12c7.33301 2.66699 14.666 7.33398 21.999 14.001c17.333 16 57.666 65.667 120.999 149l159 209l136 185l-76 133l-133 228c-44 75.333 -87.667 138 -131 188c-28.667 32.667 -51 53 -67 61
c-10 5.33301 -22.333 8 -37 8c-9.33301 0 -33.666 -1.33301 -72.999 -4l-12 76l140 31l163 34l71 16c20 -13.333 37 -26.666 51 -39.999s30 -33 48 -59s45 -69.667 81 -131l50 -92l113 -208l130 188l166 249c17.333 26 31.666 49 42.999 69
c30.667 -2.66699 60.334 -4 89.001 -4c26.667 0 72.667 1.33301 138 4v-85c-44.667 -0.666992 -75.667 -4.33398 -93 -11.001c-10.667 -4 -26.334 -17.333 -47.001 -40c-46.667 -52.667 -120 -146.334 -220 -281.001l-118 -159l-26 -38c6 -12 35.333 -65 88 -159l55 -98
l128 -218l78 -127c28.667 -43.333 48 -69.333 58 -78c6.66699 -6.66699 14.667 -11.334 24 -14.001c17.333 -5.33301 34.333 -8 51 -8h22v-83c-134.667 2 -210.667 3 -228 3c-48.667 0 -102.334 -1 -161.001 -3c-10.667 14 -19.667 26.667 -27 38
c-1.33301 2 -24.666 43 -69.999 123l-208 382l-80 -112c-22 -31.333 -70.333 -104.333 -145 -219c-58 -88.667 -102.333 -159.334 -133 -212.001c-22 1.33301 -52.667 2 -92 2c-72 0 -120.667 -0.666992 -146 -2z" />
    <glyph glyph-name="Y" unicode="Y" horiz-adv-x="1366" 
d="M808 735l138.001 226.003l198 348c21.333 37.333 37.666 67.333 48.999 90h157v-45c-80 -108 -167 -235.667 -261 -383s-152 -242.333 -174 -285c-14 -28 -23.667 -52.667 -29 -74c-3.33301 -14.667 -5 -39.334 -5 -74.001v-169c0 -86 2.16699 -148.167 6.5 -186.5
s9.66602 -61.5 15.999 -69.5s16.666 -13.833 30.999 -17.5s57.833 -6.16699 130.5 -7.5v-88c-126 4 -241 6 -345 6c-101.333 0 -202.666 -2 -303.999 -6v88c76 2.66699 120.5 5.5 133.5 8.5s22 8 27 15s8.5 25.833 10.5 56.5c4 74 6 140 6 198v190
c0 16 -13.333 48.333 -40 97c-58 107.333 -122 216.333 -192 327c-57.333 90 -113 165.333 -167 226c-32.667 36 -57.667 58 -75 66c-9.33301 4.66699 -38 7 -86 7v75l223 44c31.333 7.33301 64.666 15.666 99.999 24.999c40.667 -22.667 70.334 -42.834 89.001 -60.501
s44.667 -51.5 78 -101.5c48.667 -72 98.334 -157.333 149.001 -256z" />
    <glyph glyph-name="Z" unicode="Z" horiz-adv-x="1366" 
d="M52 0l-0.00390625 80.0039l68 87l197 271l107 152l187 271l125 184l85 130c32 48.667 54.667 82 68 100h-232c-85.333 -0.666992 -143.666 -1.66699 -174.999 -3c-95.333 -4 -151.166 -7.33301 -167.499 -10s-27.5 -6.33398 -33.5 -11.001
c-3.33301 -2.66699 -5.66602 -5.66699 -6.99902 -9c-8.66699 -20.667 -16.667 -58.334 -24 -113.001c-3.33301 -24 -6.66602 -43.667 -9.99902 -59h-81c5.33301 89.333 8 157.666 8 204.999c0 23.333 -1 64.666 -3 123.999l246 -5l373 -1h15h16h133l328 6v-70l-305 -421
l-296 -428l-92 -138l-121 -185l-5 -7l-15 -24l189 -2c86.667 0 184.667 1.33301 294 4c109.333 3.33301 178 9.33301 206 18c7.33301 2 12.666 5.33301 15.999 10c11.333 16 25.333 65.667 42 149c4.66699 21.333 9.33398 40 14.001 56h80
c-13.333 -118 -24.333 -237 -33 -357h-38l-190 -4h-1l-129 3l-258 2l-263 3z" />
    <glyph glyph-name="bracketleft" unicode="[" horiz-adv-x="682" 
d="M627 1470v-79.9971c-76.667 0 -135.334 -4.33301 -176.001 -13c-11.333 -2 -20.666 -7 -27.999 -15s-12.666 -20.333 -15.999 -37c-6.66699 -28.667 -10.667 -108 -12 -238s-2 -223.333 -2 -280v-358c0 -70 0.666992 -166.333 2 -289
c1.33301 -123.333 5 -199.333 11 -228c3.33301 -16.667 8.66602 -28.834 15.999 -36.501s15.666 -12.834 24.999 -15.501c49.333 -10.667 109.333 -15.667 180 -15v-79c-146 4.66699 -227.333 7 -244 7l-227 -8l-15 18c4 48.667 7.16699 93.167 9.5 133.5
s5.5 142.166 9.5 305.499l4 243v286c0 80 -2.33301 204.667 -7 374l-5 153c-2 34 -5.66699 87 -11 159l11 13l212 -6c24.667 0 112.334 2 263.001 6z" />
    <glyph glyph-name="backslash" unicode="\" horiz-adv-x="1241" 
d="M949 -56h-157l-493 1552h157z" />
    <glyph glyph-name="bracketright" unicode="]" horiz-adv-x="682" 
d="M72 -214v79.0029c78 0 137 4.66699 177 14c10.667 2 19.834 7 27.501 15s13.167 20.333 16.5 37c6 29.333 9.66699 109.666 11 240.999s2 223.666 2 276.999v358c0 72 -0.666992 169 -2 291s-5 197.333 -11 226c-3.33301 17.333 -8.5 29.666 -15.5 36.999
s-15.167 12 -24.5 14c-50 11.333 -110.333 16.333 -181 15v80c156.667 -4.66699 239.667 -7 249 -7l226 7l11 -13l-8 -118l-2 -37c-2 -32 -4.33301 -113.667 -7 -245l-5 -286v-286c0 -94 2 -213.333 6 -358l7 -186l3 -59l6 -79l-15 -18l-223 8
c-20.667 0 -103.334 -2.33301 -248.001 -7z" />
    <glyph glyph-name="asciicircum" unicode="^" horiz-adv-x="1241" 
d="M95 577l432 842h188l431 -842h-199l-325 615l-328 -615h-199z" />
    <glyph glyph-name="underscore" unicode="_" 
d="M0 -307v102h1024v-102h-1024z" />
    <glyph glyph-name="grave" unicode="`" horiz-adv-x="682" 
d="M401 1099l-263 149c-48 27.333 -81 53 -99 77c-12.667 16.667 -19 35 -19 55c0 28.667 10.667 53 32 73s50 30 86 30c18 0 34.667 -3.16699 50 -9.5s31 -16.833 47 -31.5c10.667 -8.66699 28 -28 52 -58l235 -285h-121z" />
    <glyph glyph-name="a" unicode="a" 
d="M977 75l-0.00292969 -74.9971c-78.667 3.33301 -147.667 5 -207 5c-57.333 0 -110.666 -1.66699 -159.999 -5l-9 11l9 131c-25.333 -16 -96 -68.667 -212 -158c-30 -6.66699 -58.333 -10 -85 -10c-73.333 0 -130.5 21.333 -171.5 64s-61.5 104 -61.5 184
c0 54 9.16699 98.5 27.5 133.5s38.333 60.667 60 77s54.834 32.166 99.501 47.499c106 36.667 220.333 65.667 343 87c1.33301 56.667 -5.33398 102 -20.001 136s-38.5 60.333 -71.5 79s-71.5 28 -115.5 28c-29.333 0 -56.666 -3.66699 -81.999 -11
c-11.333 -3.33301 -24.666 -10 -39.999 -20l-42 -101l-68 15l6 128c46 32 92 60.667 138 86s78 41 96 47c24.667 7.33301 59.667 11 105 11c72.667 0 132.5 -10.5 179.5 -31.5s81.667 -45.833 104 -74.5s37.666 -59.334 45.999 -92.001s12.5 -74 12.5 -124
c0 -20.667 -1.66699 -79.667 -5 -177c-2 -52.667 -3 -98.334 -3 -137.001c0 -58.667 1.33301 -113 4 -163c2 -36 5.33301 -58 10 -66c3.33301 -6 9.83301 -10.667 19.5 -14s40.834 -7 93.501 -11zM609.997 483.003c-122 -26 -199.166 -54 -231.499 -84s-48.5 -69 -48.5 -117
c0 -43.333 10.667 -76.5 32 -99.5s50 -34.5 86 -34.5c30 0 60.167 8.66699 90.5 26s54.166 39.333 71.499 66v243z" />
    <glyph glyph-name="b" unicode="b" horiz-adv-x="1251" 
d="M36 1313l0.000976562 72.001c84 9.33301 156 21 216 35s116.333 31.333 169 52c10 -2 19 -6.33301 27 -13c-6.66699 -278 -10 -438.333 -10 -481v-188l121 100c34.667 28.667 66.667 48.334 96 59.001s66.333 16 111 16c128 0 226.667 -43.667 296 -131
c55.333 -68.667 83 -155.334 83 -260.001c0 -70.667 -12.167 -139.167 -36.5 -205.5s-56.833 -120.833 -97.5 -163.5c-19.333 -20.667 -67 -56 -143 -106l-160 -107c-38.667 -18 -89 -27 -151 -27c-40.667 0 -80.334 6.16699 -119.001 18.5s-82.334 33.166 -131.001 62.499
l-88 -74l-46 17c13.333 198.667 20 441.667 20 729c0 170.667 -1.66699 303.667 -5 399c-3.33301 96 -7.66602 151.333 -12.999 166c-2.66699 6.66699 -7 11.667 -13 15c-11.333 6.66699 -53.333 11.667 -126 15zM438.001 683.001c-1.33301 -52.667 -2 -120.667 -2 -204
c0 -114 0.666992 -201.333 2 -262c24.667 -34.667 51 -60 79 -76c38.667 -22 81.334 -33 128.001 -33c48.667 0 91.167 13 127.5 39s64.666 68 84.999 126s30.5 121.667 30.5 191c0 104 -23.667 183.333 -71 238s-106.666 82 -177.999 82
c-44.667 0 -84.834 -10.167 -120.501 -30.5s-62.5 -43.833 -80.5 -70.5z" />
    <glyph glyph-name="c" unicode="c" horiz-adv-x="909" 
d="M861 132l-44 -97.001c-56.667 -28.667 -103 -47.5 -139 -56.5s-79 -13.5 -129 -13.5c-109.333 0 -198 21.333 -266 64s-119.667 103.667 -155 183c-25.333 56.667 -38 131.667 -38 225c0 77.333 9.33301 142.5 28 195.5s43 94.833 73 125.5
c19.333 19.333 62.833 51.833 130.5 97.5s113.5 74.167 137.5 85.5c34.667 16 87.334 24 158.001 24c87.333 0 162.333 -14 225 -42l10 -17l-25 -163c-2 -15.333 -5.33301 -61.333 -10 -138h-78c-4 58 -9 102 -15 132c-13.333 22 -34.833 40.333 -64.5 55
s-65.834 22 -108.501 22c-41.333 0 -77 -7 -107 -21c-22.667 -10 -40.667 -24.5 -54 -43.5s-24.5 -48.333 -33.5 -88s-13.5 -82.5 -13.5 -128.5c0 -84 14.167 -159.167 42.5 -225.5s66 -115.166 113 -146.499s105.167 -47 174.5 -47c34 0 64 3.33301 90 10s52.333 17 79 31z
" />
    <glyph glyph-name="d" unicode="d" horiz-adv-x="1251" 
d="M1200 72l-0.000976562 -72.002l-223 3l-167 -3l-9 7l5 79l2 83l-154 -133c-19.333 -18 -39.333 -34 -60 -48c-25.333 -10 -59.333 -15 -102 -15c-110 0 -197.667 36.667 -263 110c-80 88.667 -120 203.334 -120 344.001c0 73.333 8.5 136.166 25.5 188.499
s35.833 92.833 56.5 121.5c12.667 16.667 36 37.334 70 62.001c111.333 81.333 185.5 129.333 222.5 144s81.833 22 134.5 22c31.333 0 57.5 -2.33301 78.5 -7s57.167 -17.334 108.5 -38.001c2 41.333 3 83 3 125c0 26.667 -1.33301 82.667 -4 168
c-1.33301 42.667 -5 68.667 -11 78c-4 6.66699 -10.167 11.334 -18.5 14.001s-50.166 5 -125.499 7v74c142 14.667 273.667 43.334 395 86.001l26 -14l-12 -273l-1 -59l-2 -268l-1 -446v-93c0 -44 1.33301 -92.667 4 -146c2.66699 -38 6.16699 -61 10.5 -69
s11.833 -14.167 22.5 -18.5s47 -8.83301 109 -13.5zM804.999 710.998c-28 33.333 -50.665 56.998 -67.998 70.998s-41.333 26.333 -72 37s-62.334 16 -95.001 16c-46 0 -83.5 -11.167 -112.5 -33.5s-50.667 -58.666 -65 -108.999s-21.5 -107.833 -21.5 -172.5
c0 -121.333 26 -215 78 -281c38.667 -48.667 90.667 -73 156 -73c38 0 72.167 8.16699 102.5 24.5s56.166 38.5 77.499 66.5c11.333 14.667 18.333 36 21 64c3.33301 28.667 5 97.334 5 206.001z" />
    <glyph glyph-name="e" unicode="e" 
d="M928 154l-45 -98.001c-52 -32.667 -107.667 -57 -167 -73c-43.333 -12 -93 -18 -149 -18c-150 0 -266.5 41.833 -349.5 125.5s-124.5 201.834 -124.5 354.501c0 86 9.66699 160.667 29 224c13.333 43.333 32.666 80.333 57.999 111c19.333 22.667 50.333 48 93 76
c56.667 37.333 102 63.333 136 78c46.667 20.667 102.334 31 167.001 31c50 0 94.5 -5.83301 133.5 -17.5s73.167 -28.5 102.5 -50.5s54 -47.333 74 -76s36 -63.5 48 -104.5s18 -95.5 18 -163.5c0 -18 -0.666992 -35.333 -2 -52c-16 -5.33301 -41 -11.333 -75 -18
c-46 -8.66699 -77.333 -13.667 -94 -15c-50 -3.33301 -113.667 -5.33301 -191 -6l-142 -2c-8.66699 -0.666992 -18.334 -1 -29.001 -1h-66c5.33301 -105.333 38 -188.5 98 -249.5s134 -91.5 222 -91.5c38 0 72.333 4 103 12s73.334 25.333 128.001 52zM690 567.999
c2.66699 105.333 -11.8311 179.334 -43.498 222.001s-72.834 64 -123.501 64s-92.834 -20.833 -126.501 -62.5s-50.5 -108.834 -50.5 -201.501v-22c39.333 -6 105.333 -9 198 -9c58 0 106.667 3 146 9z" />
    <glyph glyph-name="f" unicode="f" horiz-adv-x="797" 
d="M72 0l-0.00195312 76.0078c78.667 5.33301 124.334 12.166 137.001 20.499s20.334 21.5 23.001 39.5c4.66699 35.333 7.66699 144.666 9 327.999v300c-16 0.666992 -25.667 1 -29 1l-135 -6v49l109 56c22 12 34.667 20.333 38 25c2.66699 3.33301 4 8.66602 4 15.999
c0 31.333 1.5 70.166 4.5 116.499s7.5 79.166 13.5 98.499s15.667 38 29 56c22 29.333 70.667 76.666 146 141.999l120 107c19.333 16.667 39.666 29 60.999 37c29.333 12 60.333 18 93 18c26 0 54 -4.66699 84 -14l-3 -106l1 -99l-31 -17
c-19.333 18.667 -37.666 31.5 -54.999 38.5s-39.666 10.5 -66.999 10.5c-40.667 0 -72.334 -8 -95.001 -24c-16.667 -12 -27.667 -31.167 -33 -57.5s-8 -87.833 -8 -184.5v-138l121 1c56.667 1.33301 105.334 3.66602 146.001 6.99902l13 -10
c-3.33301 -10.667 -6 -22 -8 -34l-16 -90l-140 3h-9c-10.667 0 -46.334 -0.666992 -107.001 -2v-319c0 -64.667 0.666992 -131 2 -199c2 -68.667 5 -109 9 -121c3.33301 -9.33301 8.5 -17 15.5 -23s17.833 -10.667 32.5 -14c5.33301 -0.666992 51.333 -4.33398 138 -11.001
v-77l-339 5c-42 0 -133.333 -1.66699 -274 -5z" />
    <glyph glyph-name="g" unicode="g" horiz-adv-x="1139" 
d="M1117 894l-14 -123.003h-158c8.66699 -33.333 13 -65.666 13 -96.999c0 -71.333 -18.667 -134.166 -56 -188.499s-90.666 -96.333 -159.999 -126s-143 -44.5 -221 -44.5c-21.333 0 -50.333 1.66699 -87 5c-20.667 -11.333 -36.334 -25.333 -47.001 -42s-16 -32 -16 -46
c0 -12 4.83301 -23.333 14.5 -34s22.5 -17.667 38.5 -21c22 -4.66699 76.333 -7 163 -7l262 7c71.333 0 122 -5.33301 152 -16s56.833 -34 80.5 -70s35.5 -86.333 35.5 -151c0 -84 -19.833 -159.667 -59.5 -227s-99.5 -122.666 -179.5 -165.999
c-98.667 -53.333 -216 -80 -352 -80c-108.667 0 -197 15 -265 45s-115.5 65.667 -142.5 107s-40.5 86.333 -40.5 135c0 27.333 4.33301 52.5 13 75.5s18.667 40.167 30 51.5s33.333 26.333 66 45l108 60c-48 8.66699 -85 25.667 -111 51c-16.667 16 -25 39.667 -25 71
c0 17.333 4.66699 39.833 14 67.5s17 45.5 23 53.5s24.5 22.667 55.5 44s59.167 41.666 84.5 60.999c-49.333 18.667 -88.833 39.667 -118.5 63s-53.334 54.333 -71.001 93s-26.5 81.334 -26.5 128.001c0 63.333 16.333 122.5 49 177.5s84 98.833 154 131.5
s151.333 49 244 49c62.667 0 120.334 -7.16699 173.001 -21.5s97.334 -35.5 134.001 -63.5c38 -2 64.667 -3 80 -3s69.666 2 162.999 6zM371 663.997c0 -36 3.50195 -70.8311 10.502 -104.498s17.167 -60.834 30.5 -81.501s30.833 -37.5 52.5 -50.5s48.167 -19.5 79.5 -19.5
c57.333 0 100.666 23 129.999 69c21.333 33.333 32 83.333 32 150c0 93.333 -15 158.666 -45 195.999s-71.667 56 -125 56c-50.667 0 -90.834 -17 -120.501 -51s-44.5 -88.667 -44.5 -164zM406.002 -24.001c-52.667 -34 -88.668 -65.166 -108.001 -93.499
s-29 -61.5 -29 -99.5c0 -60.667 24.833 -111.334 74.5 -152.001s124.167 -61 223.5 -61c104 0 183.5 24.333 238.5 73s82.5 110.334 82.5 185.001c0 36 -6.5 64.333 -19.5 85s-28.5 35.667 -46.5 45s-45.333 14.666 -82 15.999c-37.333 2 -118.333 3 -243 3
c-23.333 0 -53.666 -0.333008 -90.999 -1z" />
    <glyph glyph-name="h" unicode="h" horiz-adv-x="1251" 
d="M1199 79l0.00292969 -79.0039c-100 2.66699 -165.333 4 -196 4c-20.667 0 -88.667 -1.33301 -204 -4l-10 10l14 209c2 36.667 3 80.334 3 131.001v194c0 90 -15.167 152.667 -45.5 188s-73.5 53 -129.5 53c-41.333 0 -77.5 -10.333 -108.5 -31s-54.5 -48.667 -70.5 -84
c-6 -12.667 -9 -40 -9 -82v-126c0 -86 1.33301 -170.333 4 -253c2 -56 5 -89 9 -99c2.66699 -5.33301 6.66699 -9.66602 12 -12.999c7.33301 -5.33301 20.333 -9.33301 39 -12l91 -6v-79c-174.667 4.66699 -282.667 7 -324 7l-228 -7v79c60 2.66699 95 5.33398 105 8.00098
s17.5 6.5 22.5 11.5s8.83301 12.5 11.5 22.5c4.66699 20 8 82.333 10 187c2 105.333 3 200.333 3 285v324c0 110.667 -2.66699 208.667 -8 294c-2 43.333 -5 69 -9 77c-2.66699 4.66699 -6.33398 8.33398 -11.001 11.001c-7.33301 4.66699 -19.666 8.33398 -36.999 11.001
c-11.333 2 -40.333 4 -87 6v74c94 11.333 162.167 21.666 204.5 30.999s103.166 26.333 182.499 51l22 -11l-7 -207l-4 -166c-0.666992 -60.667 -1 -127.667 -1 -201v-96l176 146c46.667 18 95 27 145 27c52.667 0 99.5 -8.5 140.5 -25.5s73.167 -39.5 96.5 -67.5
s39.833 -58.333 49.5 -91s14.5 -76 14.5 -130c0 -18 -1.33301 -70 -4 -156c-2 -64 -3 -116.333 -3 -157c0 -122.667 2.33301 -195 7 -217c3.33301 -14 10.666 -24 21.999 -30s48.666 -9.66699 111.999 -11z" />
    <glyph glyph-name="i" unicode="i" horiz-adv-x="682" 
d="M343 1448c42.667 0 78.834 -15 108.501 -45s44.5 -66 44.5 -108c0 -42.667 -14.833 -79 -44.5 -109s-65.834 -45 -108.501 -45s-78.834 15 -108.501 45s-44.5 66.333 -44.5 109c0 42 14.833 78 44.5 108s65.834 45 108.501 45zM69 0v74c66 4.66699 105 9 117 13
c8 2.66699 14 6.33398 18 11.001c6 6.66699 10.333 16.167 13 28.5s4.66699 31.5 6 57.5c2.66699 96.667 4 172 4 226c0 181.333 -2 295.333 -6 342c-2.66699 21.333 -8 34.666 -16 39.999c-13.333 8.66699 -58.666 13.334 -135.999 14.001v76c102 10.667 178.5 22 229.5 34
s106.5 30.333 166.5 55l24 -13c-8 -103.333 -12 -201 -12 -293v-340c0 -116 2.66699 -184.667 8 -206c2.66699 -12 8 -20 16 -24c18 -8.66699 61.667 -14.334 131 -17.001v-78c-98.667 2.66699 -201.334 4 -308.001 4c-94 0 -179 -1.33301 -255 -4z" />
    <glyph glyph-name="j" unicode="j" horiz-adv-x="682" 
d="M358 1448c42.667 0 78.833 -15 108.5 -45s44.5 -66 44.5 -108c0 -42.667 -15 -79 -45 -109s-66 -45 -108 -45c-42.667 0 -79 15 -109 45s-45 66.333 -45 109c0 42 15 78 45 108s66.333 45 109 45zM50.999 -535l-21.9971 71l10 14c12 -2 22 -3 30 -3
c43.333 0 78 14.167 104 42.5s42.667 73.833 50 136.5c9.33301 86 14 229 14 429v275c0 66 -1.33301 137 -4 213s-4.83398 118.167 -6.50098 126.5s-4.83398 14.833 -9.50098 19.5s-11.334 8 -20.001 10c-18.667 4.66699 -57.667 7 -117 7v76
c101.333 11.333 177.333 23 228 35s106.667 30.333 168 55l23 -13c-4.66699 -65.333 -7.66699 -119 -9 -161c-2 -42 -3 -105 -3 -189l3 -417c0 -156 -8.66699 -275.333 -26 -358c-18 -83.333 -46.5 -152.333 -85.5 -207s-82.5 -96 -130.5 -124s-100.333 -42 -157 -42
c-12 0 -25.333 1.33301 -40 4z" />
    <glyph glyph-name="k" unicode="k" horiz-adv-x="1251" 
d="M1229 80l0.00195312 -80.0039c-26.667 2 -84 3 -172 3c-94 0 -153 -1 -177 -3c-24 42.667 -78.333 114 -163 214l-163 184c-39.333 44 -62 67.667 -68 71c-4 2.66699 -10.333 4.33398 -19 5.00098v-98c0 -48.667 2 -114 6 -196c2 -38 4.66699 -61 8 -69
c2 -5.33301 5.66699 -9.66602 11 -12.999c6.66699 -5.33301 19 -9.33301 37 -12c8 -1.33301 39.667 -3.33301 95 -6v-80c-80.667 4.66699 -170.334 7 -269.001 7c-102.667 0 -198 -2.33301 -286 -7v80c59.333 2.66699 94.166 5.33398 104.499 8.00098s18 6.5 23 11.5
s8.83301 12.167 11.5 21.5c4.66699 19.333 7.66699 74.333 9 165c2.66699 128.667 4 231 4 307v324c0 110.667 -2.66699 209 -8 295c-2 42.667 -5 68 -9 76c-2.66699 4.66699 -6.33398 8.33398 -11.001 11.001c-8 4.66699 -20.333 8.33398 -37 11.001
c-11.333 2 -40.333 4 -87 6v74c94 11.333 162.167 21.666 204.5 30.999s103.166 26.333 182.499 51l22 -11l-7 -234c-2.66699 -116.667 -4 -231.667 -4 -345v-364c22 16.667 47 37.667 75 63c60.667 54.667 108.334 99.334 143.001 134.001c18 17.333 65 66 141 146
c36 37.333 60 63.666 72 78.999c58.667 -2 104.334 -3 137.001 -3c33.333 0 77 1 131 3v-79l-106 -6c-12.667 -2 -25 -6.33301 -37 -13c-21.333 -11.333 -59.333 -39 -114 -83l-108 -92l-85 -74l303 -348c76 -86.667 126 -136.667 150 -150c14 -8 34 -13 60 -15z" />
    <glyph glyph-name="l" unicode="l" horiz-adv-x="682" 
d="M622 80l0.00195312 -80c-83.333 5.33301 -170.333 8 -261 8c-91.333 0 -193.333 -2.66699 -306 -8v79c63.333 2 101.666 4.66699 114.999 8c10 2.66699 17.5 6.5 22.5 11.5s8.5 12.5 10.5 22.5c4.66699 20 7.66699 76 9 168c2.66699 124 4 225.333 4 304v330
c0 111.333 -2.66699 209.666 -8 294.999c-2 42 -5 67 -9 75c-2.66699 4.66699 -6.33398 8.66699 -11.001 12c-8 4.66699 -21.333 8.33398 -40 11.001c-6.66699 1.33301 -36 3 -88 5v74c83.333 8.66699 149.333 18 198 28s115 28.333 199 55l21 -12l-8 -193
c-1.33301 -43.333 -3.33301 -185.333 -6 -426v-256l3 -259c2.66699 -126 5.66699 -196.667 9 -212c2 -8.66699 5.33301 -15 10 -19c6 -6 14.667 -10 26 -12c11.333 -2.66699 48 -5.66699 110 -9z" />
    <glyph glyph-name="m" unicode="m" horiz-adv-x="1821" 
d="M62 0l0.000976562 77.001c66 0 105.667 5.66699 119 17s20.333 39 21 83c0 1.33301 1.33301 31 4 89c0.666992 18 1 48.333 1 91v131c0 64.667 -2.33301 143.667 -7 237c-2 30 -4.83301 47.667 -8.5 53s-10.167 9.33301 -19.5 12c-11.333 4 -48 7 -110 9v77
c125.333 21.333 206.166 37 242.499 47s78.166 25.667 125.499 47l27 -12v-161l182 146c21.333 8.66699 39.5 14.5 54.5 17.5s35.167 4.5 60.5 4.5c80 0 140.5 -12.833 181.5 -38.5s74.833 -68.834 101.5 -129.501l182 146c21.333 8.66699 39.5 14.5 54.5 17.5
s35.5 4.5 61.5 4.5c65.333 0 116.166 -8.33301 152.499 -25s66.5 -39 90.5 -67s41 -57.833 51 -89.5s15 -80.834 15 -147.501c0 -73.333 -0.666992 -122 -2 -146c-0.666992 -8 -1 -17.667 -1 -29v-104c0 -105.333 1.66699 -173 5 -203c4 -30.667 10.333 -49.834 19 -57.501
s28.667 -12.5 60 -14.5c10.667 -0.666992 29.334 -2.33398 56.001 -5.00098v-77c-91.333 5.33301 -167 8 -227 8c-68 0 -125 -2.66699 -171 -8l-14 19c8 119.333 12.333 198.333 13 237l3 126v83c0 104 -3.66699 173 -11 207c-8 34.667 -25 62.834 -51 84.501
s-60 32.5 -102 32.5c-30 0 -56.833 -5.16699 -80.5 -15.5s-46.167 -27.166 -67.5 -50.499c-10.667 -12.667 -17.667 -26.667 -21 -42s-5 -45.333 -5 -90v-242l2 -100l2 -81c0.666992 -24.667 3 -41.667 7 -51s9.66699 -16.333 17 -21c6 -3.33301 18.667 -6.33301 38 -9
l82 -10v-77c-61.333 2.66699 -146.666 4 -255.999 4c-120 0 -211.667 -1.33301 -275 -4v77c12.667 2 29 4 49 6c29.333 2 47.666 5.33301 54.999 10c8 5.33301 14.333 15.5 19 30.5s7 49.5 7 103.5l2 178v142c0 68.667 -4.33301 117.167 -13 145.5
s-25.667 51.666 -51 69.999s-58.333 27.5 -99 27.5c-44.667 0 -82.334 -11 -113.001 -33s-50 -44.667 -58 -68c-3.33301 -11.333 -5 -50 -5 -116v-216c0 -66 1.33301 -125.667 4 -179c1.33301 -37.333 4.33301 -60.666 9 -69.999c2 -5.33301 5.33301 -9.66602 10 -12.999
c7.33301 -4.66699 19.333 -8.33398 36 -11.001c4.66699 -1.33301 30.334 -3.66602 77.001 -6.99902v-77c-74 2.66699 -160.667 4 -260 4c-109.333 0 -199.666 -1.33301 -270.999 -4z" />
    <glyph glyph-name="n" unicode="n" horiz-adv-x="1251" 
d="M1209 77l0.000976562 -76.998c-89.333 4.66699 -163 7 -221 7c-66.667 0 -124.334 -2.33301 -173.001 -7l-18 18l13 168c0.666992 12.667 2 68.667 4 168l1 28v52c0 116.667 -4.33301 193.334 -13 230.001c-9.33301 36.667 -27.833 66.167 -55.5 88.5
s-65.167 33.5 -112.5 33.5c-34 0 -62.167 -5 -84.5 -15s-42 -24.167 -59 -42.5s-27.167 -33.5 -30.5 -45.5c-4 -12 -6 -51 -6 -117v-209c0 -48.667 1.33301 -108.334 4 -179.001c0.666992 -32 3.66699 -53 9 -63c2.66699 -6.66699 6.66699 -11.667 12 -15
c8 -5.33301 23 -10 45 -14c10 -2 38.667 -5 86 -9v-77c-74.667 2.66699 -164 4 -268 4c-116.667 0 -211 -1.33301 -283 -4v77c66 0 105.667 5.66699 119 17s20.333 39 21 83c0 1.33301 1.33301 31 4 89c0.666992 18 1 48.333 1 91v131c0 64.667 -2.33301 143.667 -7 237
c-2 30 -4.83301 47.667 -8.5 53s-10.167 9.33301 -19.5 12c-11.333 4 -48 7 -110 9v77c125.333 21.333 206.166 37 242.499 47s78.166 25.667 125.499 47l27 -12v-161l182 146c21.333 8.66699 39.666 14.5 54.999 17.5s36.666 4.5 63.999 4.5
c70.667 0 123.834 -8 159.501 -24s65.834 -38.5 90.501 -67.5s42 -59.5 52 -91.5s15 -81.333 15 -148c0 -76 -0.666992 -124 -2 -144c-0.666992 -8.66699 -1 -18.667 -1 -30l1 -103c0.666992 -113.333 2.33398 -183 5.00098 -209c3.33301 -26.667 9.5 -43.834 18.5 -51.501
s28.833 -12.5 59.5 -14.5c10.667 -0.666992 29.334 -2.33398 56.001 -5.00098z" />
    <glyph glyph-name="o" unicode="o" horiz-adv-x="1139" 
d="M86 472c0 86.667 10.498 160.168 31.498 220.501s53 111.666 96 153.999s91.5 73.166 145.5 92.499c70.667 26 147 39 229 39c154 0 271.167 -40.333 351.5 -121s120.5 -199 120.5 -355c0 -90 -11.667 -168 -35 -234s-54.666 -119.167 -93.999 -159.5
s-80.666 -70.833 -123.999 -91.5c-73.333 -34.667 -156.666 -52 -249.999 -52c-150.667 0 -266.834 42.833 -348.501 128.5s-122.5 211.834 -122.5 378.501zM362.998 520.001c0 -177.333 26 -303.667 78 -379c34.667 -50 84 -75 148 -75c54.667 0 98 19 130 57
c42.667 50.667 64 148.667 64 294c0 71.333 -5 140.5 -15 207.5s-25 118 -45 153s-42.5 60 -67.5 75s-55.833 22.5 -92.5 22.5c-40 0 -75 -10.5 -105 -31.5s-53.333 -56.333 -70 -106s-25 -122.167 -25 -217.5z" />
    <glyph glyph-name="p" unicode="p" horiz-adv-x="1251" 
d="M453 7l0.00195312 -369.998c0 -30 2.83301 -49 8.5 -57s16.5 -13.333 32.5 -16c9.33301 -2 54.666 -6.33301 135.999 -13v-79l-317 7l-262 -7v79h21c52.667 0 85.667 4 99 12c8 5.33301 13.667 12.5 17 21.5s7 61.5 11 157.5l5 244v463
c0 58.667 -0.666992 109.667 -2 153c-2 75.333 -5 127 -9 155c-2 12.667 -5.33301 22 -10 28s-11.334 10.5 -20.001 13.5s-46 4.83301 -112 5.5v78c101.333 10.667 177.166 22.167 227.499 34.5s101.833 30.166 154.5 53.499l23 -15l-3 -168
c26 19.333 58.833 45.833 98.5 79.5s66.5 55.167 80.5 64.5s32 17.333 54 24s51.333 10 88 10c70 0 126.333 -10 169 -30c62.667 -28.667 113.834 -73.167 153.501 -133.5s59.5 -133.833 59.5 -220.5c0 -54 -7.16699 -107.833 -21.5 -161.5s-30.5 -96.5 -48.5 -128.5
s-38 -59 -60 -81c-14.667 -16 -42.667 -39.333 -84 -70c-32 -22.667 -63.333 -46.834 -94 -72.501s-53 -42.834 -67 -51.501c-20.667 -13.333 -40.667 -22.666 -60 -27.999c-26.667 -8 -58 -12 -94 -12c-56.667 0 -114.667 10.333 -174 31zM453.002 199.002
c62 -62.667 128.668 -94 200.001 -94c48.667 0 91.334 12 128.001 36s65.5 64.333 86.5 121s31.5 122 31.5 196c0 47.333 -5.33301 92.333 -16 135s-25.334 77 -44.001 103s-44.167 47.833 -76.5 65.5s-67.5 26.5 -105.5 26.5c-36.667 0 -73.834 -9.5 -111.501 -28.5
s-68.5 -42.5 -92.5 -70.5v-490z" />
    <glyph glyph-name="q" unicode="q" horiz-adv-x="1251" 
d="M1204 -449l-0.000976562 -79.002l-262 7l-317 -7v79l102 8c25.333 2.66699 43.333 6.33398 54 11.001c6 2.66699 10.667 7 14 13c4.66699 9.33301 7 27.333 7 54v515c-69.333 -52.667 -139 -108.667 -209 -168c-29.333 -12.667 -62.333 -19 -99 -19
c-114.667 0 -207.667 38.833 -279 116.5s-107 190.167 -107 337.5c0 74.667 9.66699 142.334 29 203.001c14 44.667 32.333 82 55 112c13.333 16.667 40.333 39.667 81 69c74 53.333 149 96.666 225 129.999c47.333 21.333 96 32 146 32c45.333 0 89.333 -6.16699 132 -18.5
s96 -34.833 160 -67.5l105 84l44 -21c-12.667 -75.333 -20 -124.333 -22 -147c-2.66699 -31.333 -5 -81.666 -7 -150.999c-3.33301 -134 -5 -206.667 -5 -218v-440l3 -190l6 -159c1.33301 -30 4.83301 -49.667 10.5 -59s14.834 -15.666 27.501 -18.999
c8.66699 -2.66699 44 -5.33398 106 -8.00098zM801.999 724.998c-23.333 31.333 -55.166 58.002 -95.499 80.002s-82.5 33 -126.5 33c-49.333 0 -89.5 -12.333 -120.5 -37s-54.667 -64 -71 -118s-24.5 -114 -24.5 -180c0 -80.667 11.667 -148.334 35 -203.001
s51.166 -92.834 83.499 -114.501s71.5 -32.5 117.5 -32.5c82 0 149.333 39 202 117v455z" />
    <glyph glyph-name="r" unicode="r" horiz-adv-x="797" 
d="M636 77l0.00195312 -76.998c-78 3.33301 -162.667 5 -254 5c-99.333 0 -206 -1.66699 -320 -5v77c66 0 105.667 5.66699 119 17s20.333 39 21 83c0 1.33301 1.33301 31 4 89c0.666992 18 1 48.333 1 91v131c0 64.667 -2.33301 143.667 -7 237
c-2 30 -4.83301 47.667 -8.5 53s-10.167 9.33301 -19.5 12c-11.333 4 -48 7 -110 9v77c125.333 21.333 206.166 37 242.499 47s78.166 25.667 125.499 47l27 -12l-2 -202c43.333 44.667 77.333 82.167 102 112.5s43.667 51.5 57 63.5s27.333 20.667 42 26
c21.333 8 45.333 12 72 12c24.667 0 47 -4 67 -12l-6 -140c-2 -78.667 -3.66699 -123.667 -5 -135l-42 -13c-16.667 22 -32.667 37.333 -48 46c-24.667 14 -51.667 21 -81 21c-34 0 -65.333 -10.333 -94 -31s-47.334 -44.334 -56.001 -71.001c-4 -14 -6 -73.333 -6 -178
v-100l2 -136c0.666992 -51.333 2.33398 -82 5.00098 -92c3.33301 -13.333 10.333 -23.333 21 -30s33.667 -11.334 69 -14.001z" />
    <glyph glyph-name="s" unicode="s" horiz-adv-x="909" 
d="M107 315l79.998 0.00390625l5 -107l5 -34c30 -36.667 63 -63.834 99 -81.501s77.333 -26.5 124 -26.5c62.667 0 110.667 15 144 45s50 67.667 50 113c0 30.667 -7.33301 55.5 -22 74.5s-36.667 34.167 -66 45.5c-18 6.66699 -60.5 17 -127.5 31s-114.5 26.333 -142.5 37
c-39.333 15.333 -69.666 33.166 -90.999 53.499s-38.666 46.666 -51.999 78.999s-20 68.166 -20 107.499c0 86.667 32.833 161.834 98.5 225.501s166.834 95.5 303.501 95.5c50 0 98.5 -4.66699 145.5 -14s87.5 -22.333 121.5 -39l9 -16
c-4 -20.667 -7.16699 -43.834 -9.5 -69.501s-5.16602 -81.834 -8.49902 -168.501l-77 1c-0.666992 7.33301 -1.66699 19.666 -3 36.999c-2 30 -6 59 -12 87c-20.667 26.667 -46.834 46.667 -78.501 60s-66.5 20 -104.5 20c-56.667 0 -100.5 -13.333 -131.5 -40
s-46.5 -58.667 -46.5 -96c0 -25.333 6.5 -47.166 19.5 -65.499s31.833 -32.166 56.5 -41.499s75.5 -21.5 152.5 -36.5s128.5 -27.167 154.5 -36.5c36.667 -14 66 -31.667 88 -53s38.833 -47.833 50.5 -79.5s17.5 -66.5 17.5 -104.5c0 -99.333 -38.5 -183 -115.5 -251
s-185.167 -102 -324.5 -102c-46.667 0 -92 4.16699 -136 12.5s-97.667 23.5 -161 45.5l-11 15c5.33301 51.333 8.66602 87 9.99902 107z" />
    <glyph glyph-name="t" unicode="t" horiz-adv-x="682" 
d="M46 761l-0.00195312 45.001l92 58c13.333 8.66699 26.666 18.334 39.999 29.001v134c0 48.667 -2.66699 108 -8 178c62.667 20 104.334 34.333 125.001 43c10.667 4 53.334 23.667 128.001 59l26 -20c-0.666992 -10 -3.66699 -39.333 -9 -88
c-2 -20.667 -4.66699 -64.334 -8 -131.001l-9 -171h33c66.667 0 120.667 1.66699 162 5c19.333 2 32.333 3 39 3l-17 -137c-8 -1.33301 -15.333 -2 -22 -2l-98 2h-97v-334c0 -110.667 1.33301 -174.334 4 -191.001c4 -28.667 15.833 -51 35.5 -67s47.167 -24 82.5 -24
c28.667 0 62 8.33301 100 25l16 -38l-64 -74c-11.333 -13.333 -28.333 -35 -51 -65c-40 -14 -81 -21 -123 -21c-77.333 0 -138.166 19.833 -182.499 59.5s-66.5 89.167 -66.5 148.5l4 330v247h-27c-38 0 -73 -1 -105 -3z" />
    <glyph glyph-name="u" unicode="u" horiz-adv-x="1251" 
d="M53 802l-0.000976562 75.9961c57.333 3.33301 114.5 11 171.5 23s129.5 32.667 217.5 62l21 -14c-9.33301 -130 -14 -250.333 -14 -361v-112l-1 -44c0 -80.667 4.5 -137.667 13.5 -171s25.5 -58.833 49.5 -76.5s55.333 -26.5 94 -26.5c46.667 0 87 12.333 121 37
s57.667 53 71 85c6 14.667 9 48.334 9 101.001v171l-2 126c0 50.667 -2.33301 82.334 -7 95.001c-1.33301 4.66699 -4.33301 8.66699 -9 12c-6 4 -15.667 7 -29 9c-9.33301 2 -44.666 4.66699 -105.999 8v76c102.667 13.333 172.667 24 210 32s98.666 25.333 183.999 52
l26 -15c0 -4 -1.33301 -22 -4 -54c-3.33301 -46 -7.33301 -129.667 -12 -251c-2 -45.333 -3 -75.666 -3 -90.999v-205c0 -122 3 -197.333 9 -226c2.66699 -12 7.66699 -20.333 15 -25c12 -6 53 -11 123 -15v-80l-205 5l-190 -5l-7 8l6 76c0.666992 14.667 1 40.667 1 78
l-65 -54l-116 -110c-46 -16.667 -92.333 -25 -139 -25c-90 0 -160.667 24.667 -212 74s-77 115 -77 197c0 10 1 47 3 111c0.666992 34 1 78 1 132l-2 211c0 36.667 -2.33301 60.334 -7 71.001s-13.167 18.167 -25.5 22.5s-50.166 7.83301 -113.499 10.5z" />
    <glyph glyph-name="v" unicode="v" horiz-adv-x="1139" 
d="M467 -8l-84 218.001l-38 100l-132 334c-12 29.333 -34.667 82 -68 158c-10 22 -21 36.333 -33 43c-18 10.667 -47 16.334 -87 17.001v78c92.667 -2 185.334 -3 278.001 -3c86.667 0 170.667 1 252 3v-79c-24.667 0 -53.667 -2 -87 -6
c-17.333 -2 -28.666 -5.66699 -33.999 -11s-8 -11.666 -8 -18.999c0 -2.66699 1.33301 -8.33398 4 -17.001l39 -122l80 -209l39 -97l46 -116l65 150l35 89l71 168c21.333 55.333 35.333 97.333 42 126c2.66699 12 4 21.333 4 28c0 13.333 -6.66699 22.333 -20 27
s-50 8 -110 10v78c67.333 -2 131.666 -3 192.999 -3c58.667 0 127 1 205 3v-80c-48.667 -6 -76.667 -10.333 -84 -13c-10 -4 -18.333 -10.667 -25 -20c-14 -19.333 -44.333 -81.333 -91 -186l-94 -212l-41 -88c-16.667 -38.667 -35.334 -84.334 -56.001 -137.001
c-40 -102.667 -68.667 -173.334 -86 -212.001h-175z" />
    <glyph glyph-name="w" unicode="w" horiz-adv-x="1706" 
d="M401 -8c-2.66699 9.33301 -8.66504 34.3369 -17.998 75.0039c-5.33301 24 -13.666 55.667 -24.999 95l-84 298l-57 202c-24.667 83.333 -41.334 134.666 -50.001 153.999c-6 13.333 -11.5 22.333 -16.5 27s-12.167 8 -21.5 10c-14.667 4 -47 6.66699 -97 8v79
c82 -2 171.667 -3 269 -3c101.333 0 196.333 1 285 3v-79c-71.333 0 -114 -4 -128 -12c-8.66699 -4.66699 -13 -12.667 -13 -24c0 -12.667 3.33301 -32 10 -58l121 -455l174 382l46 99c6 12.667 22.667 51.667 50 117c10.667 25.333 18.667 43.666 24 54.999h102l283 -653
l99 294c15.333 46.667 30 98.667 44 156c6.66699 28.667 10 47.667 10 57c0 16 -6 26.333 -18 31c-8.66699 4 -49.334 7.66699 -122.001 11v79c69.333 -2 135.666 -3 198.999 -3c62 0 132.667 1 212 3v-79l-74 -5c-10 -2.66699 -18.667 -6.83398 -26 -12.501
s-13.5 -12.834 -18.5 -21.501s-20.167 -46 -45.5 -112l-65 -185l-53 -158l-48 -141c-15.333 -47.333 -37 -118.333 -65 -213l-2 -5l-5 -16h-163l-110 263l-161 367l-80 -169l-55 -117l-63 -144l-81 -200h-163z" />
    <glyph glyph-name="x" unicode="x" 
d="M45 78c40 2 67.332 6.33496 81.999 13.002c11.333 5.33301 32.333 26 63 62c54.667 64 128.334 156.333 221.001 277l-130 216l-50 84c-18 27.333 -36 50.666 -54 69.999c-10 10.667 -19.833 18.167 -29.5 22.5s-20.834 6.5 -33.501 6.5c-11.333 0 -30 -1.66699 -56 -5
l-16 75c113.333 22 213 44 299 66c30 -22.667 59.333 -53.334 88 -92.001c29.333 -39.333 77.666 -119 144.999 -239c42.667 54 77 99.333 103 136l116 172c44 -2 70.667 -3 80 -3l114 3v-78c-38 -2.66699 -61.667 -5.83398 -71 -9.50098s-25.666 -16.834 -48.999 -39.501
c-32 -31.333 -81.667 -87.666 -149 -168.999l-86 -104l145 -250c46 -80 81.333 -136.333 106 -169c12.667 -17.333 22.834 -27.666 30.501 -30.999s32.167 -8 73.5 -14v-78c-50 2 -116.333 3 -199 3c-48 0 -86.667 -1 -116 -3c-16 22.667 -36.333 54.667 -61 96l-66 108
l-77 134l-122 -166l-114 -172c-38 0.666992 -67.333 1 -88 1c-16.667 0 -49.667 -0.333008 -99 -1v78z" />
    <glyph glyph-name="y" unicode="y" horiz-adv-x="1139" 
d="M67 -504c10 46 16.666 77.998 19.999 95.998l15 101l27 5c16.667 -24 34.667 -41 54 -51c28 -14 56.667 -21 86 -21c34.667 0 66.667 13.333 96 40s61.333 80.334 96 161.001l42 95l-324 831c-19.333 49.333 -37.5 79.833 -54.5 91.5s-50.167 17.167 -99.5 16.5v79
c63.333 -2.66699 143 -4 239 -4c116 0 216 1.33301 300 4v-79h-23c-41.333 0.666992 -70 -4 -86 -14c-10 -6.66699 -15 -15.334 -15 -26.001c0 -12 3.33301 -26.667 10 -44l49 -135l146 -381l88 208c56.667 136 95.334 235 116.001 297c8.66699 26 13 45.667 13 59
c0 10 -4 17.333 -12 22c-16 8 -54 12.667 -114 14v79c41.333 -2.66699 94.333 -4 159 -4c82 0 156 1.33301 222 4v-79h-16c-18.667 0.666992 -35.667 -2.66602 -51 -9.99902c-10 -4 -18.333 -10 -25 -18c-8.66699 -10.667 -28 -48 -58 -112l-94 -205l-143 -329l-161 -393
c-26 -62.667 -51.833 -115.167 -77.5 -157.5s-53.667 -76.166 -84 -101.499s-61 -43.833 -92 -55.5s-66.167 -17.5 -105.5 -17.5c-26 0 -49.667 2.5 -71 7.5s-45.333 13.833 -72 26.5z" />
    <glyph glyph-name="z" unicode="z" 
d="M867 321l81.9971 0.000976562c-14 -130 -21.667 -232.333 -23 -307l-7 -8c-48 -3.33301 -81.667 -5 -101 -5l-141 -1c-10 0 -58.333 1.66699 -145 5c-45.333 2 -87.333 3 -126 3c-16 0 -33 -0.333008 -51 -1l-256 -5c-20 0 -41.333 -0.666992 -64 -2v67
c17.333 20 66.333 83.333 147 190l410 570h-117c-80 0 -145.333 -2 -196 -6c-30 -2 -48.5 -6.5 -55.5 -13.5s-12.167 -22.833 -15.5 -47.5c-4.66699 -32.667 -10.334 -67 -17.001 -103h-79c5.33301 135.333 8 208.333 8 219c0 9.33301 -0.333008 28 -1 56l9 9
c8.66699 0.666992 14 1 16 1c2.66699 0 5.66699 -0.333008 9 -1c6.66699 0 25.334 -1 56.001 -3c10.667 -0.666992 60.334 -1.33398 149.001 -2.00098c164.667 -2 252.334 -3 263.001 -3c21.333 0 123.333 2.33301 306 7v-71l-217 -291l-117 -162l-179 -255
c-8 -11.333 -18.667 -27.333 -32 -48l74 -1c76.667 0 139 0.666992 187 2c78 2.66699 131 6.66699 159 12c7.33301 2 12.833 4.5 16.5 7.5s6.83398 7.5 9.50098 13.5c6.66699 17.333 19.667 75.333 39 174z" />
    <glyph glyph-name="braceleft" unicode="{" horiz-adv-x="635" 
d="M0 633c60.667 20.667 97.6689 34.0059 111.002 40.0059c19.333 9.33301 35 21.166 47 35.499s21 33.666 27 57.999s9 57.166 9 98.499v371c0 96 24.5 166.333 73.5 211s134.167 67 255.5 67c16.667 0 42 -0.333008 76 -1c-52.667 -14.667 -90.5 -29 -113.5 -43
s-40.833 -30.833 -53.5 -50.5s-22.334 -44.167 -29.001 -73.5c-2 -8 -3 -35 -3 -81v-368c0 -40 -4.66699 -78.667 -14 -116c-6 -26.667 -17.333 -49.5 -34 -68.5s-37 -34.833 -61 -47.5s-56.333 -23.334 -97 -32.001c49.333 -10 89.333 -25 120 -45s51.667 -44.667 63 -74
c15.333 -38 23 -86.333 23 -145v-368c0 -42 0.666992 -68.333 2 -79c4 -20 10.667 -39 20 -57s20.666 -33.333 33.999 -46s29.666 -23.667 48.999 -33s50.666 -20.333 93.999 -33c-47.333 -0.666992 -72.666 -1 -75.999 -1c-68.667 0 -128.667 8.33301 -180 25
c-33.333 10.667 -59.333 25 -78 43s-34 41.333 -46 70c-16.667 41.333 -25 88.333 -25 141v370c0 46 -3 80 -9 102s-15.667 40.667 -29 56s-30.666 27.666 -51.999 36.999c-11.333 5.33301 -46 17.666 -104 36.999z" />
    <glyph glyph-name="bar" unicode="|" horiz-adv-x="1241" 
d="M541 0v1497h157v-1497h-157z" />
    <glyph glyph-name="braceright" unicode="}" horiz-adv-x="635" 
d="M634 633c-70.667 -23.333 -113.667 -40.001 -129 -50.001c-21.333 -13.333 -36.333 -30.666 -45 -51.999c-12.667 -30 -19 -73.333 -19 -130v-370c0 -96 -24.5 -166.5 -73.5 -211.5s-134.5 -67.5 -256.5 -67.5c-16.667 0 -42 0.333008 -76 1
c53.333 15.333 91.333 30 114 44s40.5 30.833 53.5 50.5s22.833 43.834 29.5 72.501c2 8.66699 3 35.667 3 81v368c0 42.667 4.33301 82 13 118c6.66699 26.667 18.667 49.667 36 69s39.333 35.666 66 48.999c20 10.667 50.333 20 91 28
c-48.667 10 -88.167 24.667 -118.5 44s-51.5 43 -63.5 71c-16 38 -24 87.667 -24 149v368c0 42 -1 68.333 -3 79c-3.33301 20 -9.66602 39.167 -18.999 57.5s-20.833 33.833 -34.5 46.5s-30.334 23.667 -50.001 33s-50.834 20 -93.501 32c48 0.666992 73.667 1 77 1
c68 0 127.667 -8 179 -24c34 -10.667 60.333 -25 79 -43s33.667 -41.333 45 -70c17.333 -42 26 -89 26 -141v-371c0 -46 3 -80.167 9 -102.5s15.667 -41 29 -56s30.333 -27.167 51 -36.5c8.66699 -4 43.334 -16.333 104.001 -37z" />
    <glyph glyph-name="asciitilde" unicode="~" horiz-adv-x="1241" 
d="M194 328l-101.004 112.001c22 46 45 84.167 69 114.5s50.167 56.5 78.5 78.5s54.333 37.5 78 46.5s48.167 13.5 73.5 13.5c64 0 147.333 -24 250 -72c60.667 -28.667 106.5 -47.834 137.5 -57.501s55.833 -14.5 74.5 -14.5c34 0 66.667 13.5 98 40.5
s63.666 69.5 96.999 127.5l99 -116c-46 -84 -95.167 -144.5 -147.5 -181.5s-102.166 -55.5 -149.499 -55.5c-25.333 0 -50.666 3.33301 -75.999 10c-26 7.33301 -70.667 24.666 -134 51.999c-93.333 41.333 -155.666 67 -186.999 77c-16.667 4.66699 -34.667 7 -54 7
c-27.333 0 -51.166 -5.33301 -71.499 -16s-38.666 -26.167 -54.999 -46.5s-42.833 -60.166 -79.5 -119.499z" />
    <glyph glyph-name="Adieresis" unicode="&#xc4;" horiz-adv-x="1593" 
d="M49 0l-0.000976562 83c55.333 4 88.666 7.83301 99.999 11.5s21.333 10.167 30 19.5s25.334 42.666 50.001 99.999c36.667 82.667 81.334 189.667 134.001 321l261 644l88 227h142l447 -1044l69 -154c23.333 -54 38.333 -85.167 45 -93.5s14 -14.166 22 -17.499
c8.66699 -4 30 -7.33301 64 -10c10 -0.666992 24.667 -2 44 -4v-83l-278 6l-351 -6v83c74 3.33301 117.833 7.16602 131.5 11.499s20.5 14.5 20.5 30.5c0 16.667 -7.66699 44 -23 82l-86 220h-514l-44 -120c-33.333 -91.333 -50 -148.666 -50 -171.999
c0 -16 5.33301 -27.333 16 -34c16 -9.33301 63.667 -15.333 143 -18v-83l-231 6zM490.999 541c62 -2 133 -3 213 -3c78 0 146.667 1 206 3l-214 516zM561.999 1801c40 0 74.167 -14.333 102.5 -43s42.5 -63 42.5 -103s-14.167 -74.167 -42.5 -102.5
s-62.5 -42.5 -102.5 -42.5s-74.167 14.167 -102.5 42.5s-42.5 62.5 -42.5 102.5c0 40.667 14.167 75.167 42.5 103.5s62.5 42.5 102.5 42.5zM1002 1801c40 0 74.167 -14.333 102.5 -43s42.5 -63 42.5 -103s-14.167 -74.167 -42.5 -102.5s-62.5 -42.5 -102.5 -42.5
s-74.167 14.167 -102.5 42.5s-42.5 62.5 -42.5 102.5c0 40.667 14.167 75.167 42.5 103.5s62.5 42.5 102.5 42.5z" />
    <glyph glyph-name="Aring" unicode="&#xc5;" horiz-adv-x="1593" 
d="M49 0l-0.000976562 83c55.333 4 88.666 7.83301 99.999 11.5s21.333 10.167 30 19.5s25.334 42.666 50.001 99.999c36.667 82.667 81.334 189.667 134.001 321l261 644l88 227h142l447 -1044l69 -154c23.333 -54 38.333 -85.167 45 -93.5s14 -14.166 22 -17.499
c8.66699 -4 30 -7.33301 64 -10c10 -0.666992 24.667 -2 44 -4v-83l-278 6l-351 -6v83c74 3.33301 117.833 7.16602 131.5 11.499s20.5 14.5 20.5 30.5c0 16.667 -7.66699 44 -23 82l-86 220h-514l-44 -120c-33.333 -91.333 -50 -148.666 -50 -171.999
c0 -16 5.33301 -27.333 16 -34c16 -9.33301 63.667 -15.333 143 -18v-83l-231 6zM490.999 541c62 -2 133 -3 213 -3c78 0 146.667 1 206 3l-214 516zM782.999 1904c37.333 0 73.666 -9.66699 108.999 -29s63 -46.833 83 -82.5s30 -72.5 30 -110.5
c0 -61.333 -21.667 -113.666 -65 -156.999s-95.666 -65 -156.999 -65s-113.666 21.667 -156.999 65s-65 95.666 -65 156.999c0 38 10 74.833 30 110.5s47.667 63.167 83 82.5s71.666 29 108.999 29zM782.999 1794c-31.333 0 -58 -11 -80 -33s-33 -48.333 -33 -79
c0 -31.333 11 -58 33 -80s48.667 -33 80 -33c30.667 0 57 11 79 33s33 48.667 33 80s-10.833 57.833 -32.5 79.5s-48.167 32.5 -79.5 32.5z" />
    <glyph glyph-name="Ccedilla" unicode="&#xc7;" horiz-adv-x="1479" 
d="M855 -33l-40.001 -94.9971c23.333 3.33301 42.666 5 57.999 5c64 0 112.5 -14.333 145.5 -43s49.5 -63.334 49.5 -104.001c0 -47.333 -23.167 -89.5 -69.5 -126.5s-117.166 -55.5 -212.499 -55.5c-69.333 0 -135.666 12 -198.999 36l35 80c52.667 -16.667 98 -25 136 -25
c32.667 0 57.5 7.5 74.5 22.5s25.5 33.167 25.5 54.5c0 20 -8 37.167 -24 51.5s-37.333 21.5 -64 21.5c-16 0 -34.333 -3.33301 -55 -10l-25 18l79 177c-106 14 -197.667 39.667 -275 77s-143 85 -197 143s-95.667 121.333 -125 190c-44 100.667 -66 209 -66 325
c0 207.333 71 378.166 213 512.499s345.667 201.5 611 201.5c89.333 0 169.666 -6.33301 240.999 -19c72 -13.333 155.667 -37.333 251 -72l5 -13c-10.667 -31.333 -19 -70.333 -25 -117c-10 -74.667 -16.333 -144.667 -19 -210h-78c-2 76 -5.33301 134.667 -10 176
c-44.667 46.667 -94.834 81.5 -150.501 104.5s-126.834 34.5 -213.501 34.5c-156.667 0 -282 -49.5 -376 -148.5s-141 -237.167 -141 -414.5c0 -107.333 15.833 -201 47.5 -281s73.834 -146.167 126.501 -198.5s105.667 -90.5 159 -114.5c72.667 -32 160.667 -48 264 -48
c68 0 132.167 7.66699 192.5 23s126.5 41.666 198.5 78.999l25 -23l-46 -101c-84 -44 -159.167 -74.167 -225.5 -90.5s-149.166 -24.5 -248.499 -24.5c-15.333 0 -32.666 0.666992 -51.999 2z" />
    <glyph glyph-name="Eacute" unicode="&#xc9;" horiz-adv-x="1251" 
d="M123 0l-0.000976562 53.998c40.667 18.667 73.334 37.667 98.001 57c4 28.667 7.33301 73.334 10 134.001c5.33301 116 8 200.333 8 253v450c0 17.333 -1 82.333 -3 195c-2 75.333 -6.66699 121.333 -14 138c-3.33301 6.66699 -8.33301 11.334 -15 14.001
c-18 8.66699 -66 15 -144 19v85l244 -5c40.667 -0.666992 80.667 -1 120 -1c90.667 0 192.334 1 305.001 3l223 5c24 0 72.667 -1.33301 146 -4c6.66699 0 17.667 -2 33 -6l7 -13l-19 -144c-0.666992 -10.667 -4 -58.667 -10 -144h-78
c-1.33301 80.667 -4.66602 130.334 -9.99902 149.001c-2 7.33301 -6.33301 13 -13 17c-11.333 7.33301 -47.5 13.5 -108.5 18.5s-118.833 7.5 -173.5 7.5c-65.333 0 -129.333 -2.33301 -192 -7c-9.33301 -75.333 -14 -171 -14 -287v-205c46 -3.33301 93.333 -5 142 -5
c51.333 0 115 1.33301 191 4c18 0.666992 30.333 2.66699 37 6c4.66699 2 8.33398 5.33301 11.001 10c4 6.66699 7.66699 21 11 43c4.66699 32 7.33398 64 8.00098 96h81l-4 -220l4 -219h-87c1.33301 66.667 -1.66699 110.334 -9 131.001
c-4.66699 13.333 -11.334 22.666 -20.001 27.999s-29 9.66602 -61 12.999c-48 4.66699 -94.667 7 -140 7c-68 0 -122.667 -2 -164 -6v-424c0 -48 1 -88.667 3 -122c56 -4 120.333 -6 193 -6c70.667 0 136.667 2.33301 198 7s98.666 11 111.999 19
c5.33301 3.33301 9.66602 9.33301 12.999 18c12.667 30.667 25.667 91.667 39 183h82c-14.667 -132 -22 -240.667 -22 -326l-13 -13c-18.667 -2 -38.667 -3.33301 -60 -4c-62 -2 -102.667 -3 -122 -3l-116 2c-136 2.66699 -260 4 -372 4c-16.667 0 -128.334 -2 -335.001 -6z
M578.999 1498l-121 0.000976562l235 285c24 29.333 41 48.666 51 57.999c14 12.667 29.167 22.667 45.5 30s34.5 11 54.5 11c34.667 0 62.667 -10 84 -30s32 -44.667 32 -74c0 -19.333 -6 -37 -18 -53c-19.333 -24.667 -53 -50.667 -101 -78z" />
    <glyph glyph-name="Ntilde" unicode="&#xd1;" horiz-adv-x="1706" 
d="M79 85c78.667 4 124.331 7.99902 136.998 11.999c6.66699 2.66699 12 6.33398 16 11.001c5.33301 7.33301 9.66602 20.333 12.999 39c4.66699 26 9.33398 88.333 14.001 187c2.66699 52.667 4 123.334 4 212.001v321l-4 289c-0.666992 50 -2.66699 82.333 -6 97
s-8.16602 25.5 -14.499 32.5s-16.833 12.5 -31.5 16.5s-57.334 8.33301 -128.001 13v84c84.667 -4 147 -6 187 -6c6.66699 0 85.667 2 237 6l350 -440l346 -411c43.333 -49.333 94.333 -104.333 153 -165v231c0 130 -1.33301 275.667 -4 437
c-1.33301 90 -3.33301 149.667 -6 179s-7 48.333 -13 57c-3.33301 6 -8.33301 10.333 -15 13c-21.333 9.33301 -70.666 14.333 -147.999 15v84c80 -4 154 -6 222 -6c72.667 0 158.334 2 257.001 6v-84c-68.667 -2 -115 -7 -139 -15c-5.33301 -2 -9.83301 -5.33301 -13.5 -10
s-6.83398 -17.334 -9.50098 -38.001c-6.66699 -51.333 -11 -110.333 -13 -177c-3.33301 -120.667 -5 -215.667 -5 -285c0 -443.333 4 -712.333 12 -807l-12 -9c-60 10 -117 18.667 -171 26c-210.667 235.333 -516 596.666 -916 1084v-498c0 -111.333 2 -223.666 6 -336.999
c2.66699 -68.667 6.66699 -111 12 -127c2.66699 -8 7.33398 -14.5 14.001 -19.5s18 -8.5 34 -10.5c42 -5.33301 73.333 -8 94 -8c4 0 10.667 0.333008 20 1v-81c-134 1.33301 -210.333 2 -229 2c-54.667 0 -138 -2 -250 -6v85zM561.997 1540l-95.999 0.00195312
c22.667 99.333 55.5 169.833 98.5 211.5s91.5 62.5 145.5 62.5c51.333 0 117.666 -18.333 198.999 -55c51.333 -22.667 87.333 -37.334 108 -44.001c11.333 -3.33301 22.666 -5 33.999 -5c19.333 0 35.333 5.66699 48 17c17.333 14.667 33.666 42 48.999 82h98
c-25.333 -102.667 -59.333 -174.334 -102 -215.001s-91.667 -61 -147 -61c-28 0 -55.167 3.5 -81.5 10.5s-64.166 21.833 -113.499 44.5s-82.166 36.5 -98.499 41.5s-30.5 7.5 -42.5 7.5c-19.333 0 -37.333 -7.16699 -54 -21.5s-31.667 -39.5 -45 -75.5z" />
    <glyph glyph-name="Odieresis" unicode="&#xd6;" horiz-adv-x="1706" 
d="M108 683c0 122 18.332 228.336 54.999 319.003s89.5 167.667 158.5 231s143.5 108.666 223.5 135.999c103.333 36 216.333 54 339 54c108.667 0 207.834 -13.667 297.501 -41s167 -69.5 232 -126.5s114.167 -121.167 147.5 -192.5c43.333 -91.333 65 -200 65 -326
c0 -92.667 -12.5 -182.5 -37.5 -269.5s-63 -164 -114 -231s-109.667 -120 -176 -159s-138.833 -67.5 -217.5 -85.5s-159 -27 -241 -27c-114 0 -215.333 15.5 -304 46.5s-166.667 79.167 -234 144.5s-116.5 142.166 -147.5 230.499s-46.5 187.166 -46.5 296.499z
M415.999 742.003c0 -101.333 10.333 -195.999 31 -283.999c14 -59.333 34.333 -113.166 61 -161.499s57.167 -88.5 91.5 -120.5s74.166 -56.333 119.499 -73s99 -25 161 -25c50 0 96.833 7.16699 140.5 21.5s80.834 33.333 111.501 57s59 55.5 85 95.5s47.333 89 64 147
c24.667 87.333 37 183.666 37 288.999c0 91.333 -10 175.833 -30 253.5s-49.167 144 -87.5 199s-83.333 96.833 -135 125.5s-120.167 43 -205.5 43c-71.333 0 -134.333 -12 -189 -36s-101 -59.833 -139 -107.5s-66.833 -108.834 -86.5 -183.501s-29.5 -154.667 -29.5 -240z
M632.999 1794c40 0 74.167 -14.333 102.5 -43s42.5 -63 42.5 -103s-14.167 -74.167 -42.5 -102.5s-62.5 -42.5 -102.5 -42.5s-74.167 14.167 -102.5 42.5s-42.5 62.5 -42.5 102.5c0 40.667 14.167 75.167 42.5 103.5s62.5 42.5 102.5 42.5zM1073 1794
c40 0 74.167 -14.333 102.5 -43s42.5 -63 42.5 -103s-14.167 -74.167 -42.5 -102.5s-62.5 -42.5 -102.5 -42.5s-74.167 14.167 -102.5 42.5s-42.5 62.5 -42.5 102.5c0 40.667 14.167 75.167 42.5 103.5s62.5 42.5 102.5 42.5z" />
    <glyph glyph-name="Udieresis" unicode="&#xdc;" horiz-adv-x="1593" 
d="M55 1316v83.0029l325 -6l81 1l81 2l81 1l64 2v-83c-53.333 0 -91 -2.66699 -113 -8c-14 -4 -24.167 -9.16699 -30.5 -15.5s-10.833 -15.833 -13.5 -28.5c-6 -24.667 -10 -69.334 -12 -134.001s-3 -103.334 -3 -116.001l1 -25v-232l1 -121c0 -132 2.33301 -213.667 7 -245
c8 -52 22.667 -94.667 44 -128c16 -25.333 38 -47.5 66 -66.5s62.833 -34.167 104.5 -45.5s90.167 -17 145.5 -17c94.667 0 170.334 16.833 227.001 50.5s95.334 77.167 116.001 130.5s31 146.333 31 279v204c0 175.333 -0.333008 283 -1 323
c-2 84 -6.66699 134.333 -14 151c-4.66699 10.667 -12.334 18.667 -23.001 24c-22 11.333 -70 18 -144 20v83c120 -4.66699 191.667 -7 215 -7c5.33301 0 10.666 0.333008 15.999 1l233 6v-83c-62 0 -101 -5.33301 -117 -16c-8 -4.66699 -14.5 -14.334 -19.5 -29.001
s-9.83301 -81.334 -14.5 -200.001c-4.66699 -119.333 -7 -215 -7 -287v-235c0 -54.667 -4 -114.667 -12 -180s-24.833 -120.5 -50.5 -165.5s-62 -86.167 -109 -123.5s-99.167 -64.333 -156.5 -81c-74.667 -22.667 -156.667 -34 -246 -34c-108 0 -209.333 15.667 -304 47
c-60.667 19.333 -110 46.166 -148 80.499s-68 73.833 -90 118.5c-15.333 32 -25.333 71.333 -30 118c-5.33301 47.333 -8 142.333 -8 285v346c0 96.667 -2 181.334 -6 254.001c-2 28.667 -6 49.334 -12 62.001c-4 8 -9.66699 14.5 -17 19.5s-18 8.5 -32 10.5zM624 1801
c40 0 74.167 -14.333 102.5 -43s42.5 -63 42.5 -103s-14.167 -74.167 -42.5 -102.5s-62.5 -42.5 -102.5 -42.5s-74.167 14.167 -102.5 42.5s-42.5 62.5 -42.5 102.5c0 40.667 14.167 75.167 42.5 103.5s62.5 42.5 102.5 42.5zM1064 1801c40 0 74.167 -14.333 102.5 -43
s42.5 -63 42.5 -103s-14.167 -74.167 -42.5 -102.5s-62.5 -42.5 -102.5 -42.5s-74.167 14.167 -102.5 42.5s-42.5 62.5 -42.5 102.5c0 40.667 14.167 75.167 42.5 103.5s62.5 42.5 102.5 42.5z" />
    <glyph glyph-name="aacute" unicode="&#xe1;" 
d="M977 75l-0.00292969 -74.9971c-78.667 3.33301 -147.667 5 -207 5c-57.333 0 -110.666 -1.66699 -159.999 -5l-9 11l9 131c-25.333 -16 -96 -68.667 -212 -158c-30 -6.66699 -58.333 -10 -85 -10c-73.333 0 -130.5 21.333 -171.5 64s-61.5 104 -61.5 184
c0 54 9.16699 98.5 27.5 133.5s38.333 60.667 60 77s54.834 32.166 99.501 47.499c106 36.667 220.333 65.667 343 87c1.33301 56.667 -5.33398 102 -20.001 136s-38.5 60.333 -71.5 79s-71.5 28 -115.5 28c-29.333 0 -56.666 -3.66699 -81.999 -11
c-11.333 -3.33301 -24.666 -10 -39.999 -20l-42 -101l-68 15l6 128c46 32 92 60.667 138 86s78 41 96 47c24.667 7.33301 59.667 11 105 11c72.667 0 132.5 -10.5 179.5 -31.5s81.667 -45.833 104 -74.5s37.666 -59.334 45.999 -92.001s12.5 -74 12.5 -124
c0 -20.667 -1.66699 -79.667 -5 -177c-2 -52.667 -3 -98.334 -3 -137.001c0 -58.667 1.33301 -113 4 -163c2 -36 5.33301 -58 10 -66c3.33301 -6 9.83301 -10.667 19.5 -14s40.834 -7 93.501 -11zM609.997 483.003c-122 -26 -199.166 -54 -231.499 -84s-48.5 -69 -48.5 -117
c0 -43.333 10.667 -76.5 32 -99.5s50 -34.5 86 -34.5c30 0 60.167 8.66699 90.5 26s54.166 39.333 71.499 66v243zM462.998 1100l-121 0.000976562l235 285c24 29.333 41 48.666 51 57.999c14 12.667 29.167 22.667 45.5 30s34.5 11 54.5 11c34.667 0 62.667 -10 84 -30
s32 -44.667 32 -74c0 -19.333 -6 -37 -18 -53c-19.333 -24.667 -53 -50.667 -101 -78z" />
    <glyph glyph-name="agrave" unicode="&#xe0;" 
d="M977 75l-0.00292969 -74.9971c-78.667 3.33301 -147.667 5 -207 5c-57.333 0 -110.666 -1.66699 -159.999 -5l-9 11l9 131c-25.333 -16 -96 -68.667 -212 -158c-30 -6.66699 -58.333 -10 -85 -10c-73.333 0 -130.5 21.333 -171.5 64s-61.5 104 -61.5 184
c0 54 9.16699 98.5 27.5 133.5s38.333 60.667 60 77s54.834 32.166 99.501 47.499c106 36.667 220.333 65.667 343 87c1.33301 56.667 -5.33398 102 -20.001 136s-38.5 60.333 -71.5 79s-71.5 28 -115.5 28c-29.333 0 -56.666 -3.66699 -81.999 -11
c-11.333 -3.33301 -24.666 -10 -39.999 -20l-42 -101l-68 15l6 128c46 32 92 60.667 138 86s78 41 96 47c24.667 7.33301 59.667 11 105 11c72.667 0 132.5 -10.5 179.5 -31.5s81.667 -45.833 104 -74.5s37.666 -59.334 45.999 -92.001s12.5 -74 12.5 -124
c0 -20.667 -1.66699 -79.667 -5 -177c-2 -52.667 -3 -98.334 -3 -137.001c0 -58.667 1.33301 -113 4 -163c2 -36 5.33301 -58 10 -66c3.33301 -6 9.83301 -10.667 19.5 -14s40.834 -7 93.501 -11zM609.997 483.003c-122 -26 -199.166 -54 -231.499 -84s-48.5 -69 -48.5 -117
c0 -43.333 10.667 -76.5 32 -99.5s50 -34.5 86 -34.5c30 0 60.167 8.66699 90.5 26s54.166 39.333 71.499 66v243zM554.998 1100l-263 149c-48 27.333 -81 53 -99 77c-12.667 16.667 -19 35 -19 55c0 28.667 10.667 53 32 73s50 30 86 30c18 0 34.667 -3.16699 50 -9.5
s31 -16.833 47 -31.5c10.667 -8.66699 28 -28 52 -58l235 -285h-121z" />
    <glyph glyph-name="acircumflex" unicode="&#xe2;" 
d="M977 75l-0.00292969 -74.9971c-78.667 3.33301 -147.667 5 -207 5c-57.333 0 -110.666 -1.66699 -159.999 -5l-9 11l9 131c-25.333 -16 -96 -68.667 -212 -158c-30 -6.66699 -58.333 -10 -85 -10c-73.333 0 -130.5 21.333 -171.5 64s-61.5 104 -61.5 184
c0 54 9.16699 98.5 27.5 133.5s38.333 60.667 60 77s54.834 32.166 99.501 47.499c106 36.667 220.333 65.667 343 87c1.33301 56.667 -5.33398 102 -20.001 136s-38.5 60.333 -71.5 79s-71.5 28 -115.5 28c-29.333 0 -56.666 -3.66699 -81.999 -11
c-11.333 -3.33301 -24.666 -10 -39.999 -20l-42 -101l-68 15l6 128c46 32 92 60.667 138 86s78 41 96 47c24.667 7.33301 59.667 11 105 11c72.667 0 132.5 -10.5 179.5 -31.5s81.667 -45.833 104 -74.5s37.666 -59.334 45.999 -92.001s12.5 -74 12.5 -124
c0 -20.667 -1.66699 -79.667 -5 -177c-2 -52.667 -3 -98.334 -3 -137.001c0 -58.667 1.33301 -113 4 -163c2 -36 5.33301 -58 10 -66c3.33301 -6 9.83301 -10.667 19.5 -14s40.834 -7 93.501 -11zM609.997 483.003c-122 -26 -199.166 -54 -231.499 -84s-48.5 -69 -48.5 -117
c0 -43.333 10.667 -76.5 32 -99.5s50 -34.5 86 -34.5c30 0 60.167 8.66699 90.5 26s54.166 39.333 71.499 66v243zM397.998 1456h213l249 -356h-134l-226 190l-219 -190h-131z" />
    <glyph glyph-name="adieresis" unicode="&#xe4;" 
d="M977 75l-0.00292969 -74.9971c-78.667 3.33301 -147.667 5 -207 5c-57.333 0 -110.666 -1.66699 -159.999 -5l-9 11l9 131c-25.333 -16 -96 -68.667 -212 -158c-30 -6.66699 -58.333 -10 -85 -10c-73.333 0 -130.5 21.333 -171.5 64s-61.5 104 -61.5 184
c0 54 9.16699 98.5 27.5 133.5s38.333 60.667 60 77s54.834 32.166 99.501 47.499c106 36.667 220.333 65.667 343 87c1.33301 56.667 -5.33398 102 -20.001 136s-38.5 60.333 -71.5 79s-71.5 28 -115.5 28c-29.333 0 -56.666 -3.66699 -81.999 -11
c-11.333 -3.33301 -24.666 -10 -39.999 -20l-42 -101l-68 15l6 128c46 32 92 60.667 138 86s78 41 96 47c24.667 7.33301 59.667 11 105 11c72.667 0 132.5 -10.5 179.5 -31.5s81.667 -45.833 104 -74.5s37.666 -59.334 45.999 -92.001s12.5 -74 12.5 -124
c0 -20.667 -1.66699 -79.667 -5 -177c-2 -52.667 -3 -98.334 -3 -137.001c0 -58.667 1.33301 -113 4 -163c2 -36 5.33301 -58 10 -66c3.33301 -6 9.83301 -10.667 19.5 -14s40.834 -7 93.501 -11zM609.997 483.003c-122 -26 -199.166 -54 -231.499 -84s-48.5 -69 -48.5 -117
c0 -43.333 10.667 -76.5 32 -99.5s50 -34.5 86 -34.5c30 0 60.167 8.66699 90.5 26s54.166 39.333 71.499 66v243zM290.998 1405c40 0 74.167 -14.333 102.5 -43s42.5 -63 42.5 -103s-14.167 -74.167 -42.5 -102.5s-62.5 -42.5 -102.5 -42.5s-74.167 14.167 -102.5 42.5
s-42.5 62.5 -42.5 102.5c0 40.667 14.167 75.167 42.5 103.5s62.5 42.5 102.5 42.5zM730.998 1405c40 0 74.167 -14.333 102.5 -43s42.5 -63 42.5 -103s-14.167 -74.167 -42.5 -102.5s-62.5 -42.5 -102.5 -42.5s-74.167 14.167 -102.5 42.5s-42.5 62.5 -42.5 102.5
c0 40.667 14.167 75.167 42.5 103.5s62.5 42.5 102.5 42.5z" />
    <glyph glyph-name="atilde" unicode="&#xe3;" 
d="M977 75l-0.00292969 -74.9971c-78.667 3.33301 -147.667 5 -207 5c-57.333 0 -110.666 -1.66699 -159.999 -5l-9 11l9 131c-25.333 -16 -96 -68.667 -212 -158c-30 -6.66699 -58.333 -10 -85 -10c-73.333 0 -130.5 21.333 -171.5 64s-61.5 104 -61.5 184
c0 54 9.16699 98.5 27.5 133.5s38.333 60.667 60 77s54.834 32.166 99.501 47.499c106 36.667 220.333 65.667 343 87c1.33301 56.667 -5.33398 102 -20.001 136s-38.5 60.333 -71.5 79s-71.5 28 -115.5 28c-29.333 0 -56.666 -3.66699 -81.999 -11
c-11.333 -3.33301 -24.666 -10 -39.999 -20l-42 -101l-68 15l6 128c46 32 92 60.667 138 86s78 41 96 47c24.667 7.33301 59.667 11 105 11c72.667 0 132.5 -10.5 179.5 -31.5s81.667 -45.833 104 -74.5s37.666 -59.334 45.999 -92.001s12.5 -74 12.5 -124
c0 -20.667 -1.66699 -79.667 -5 -177c-2 -52.667 -3 -98.334 -3 -137.001c0 -58.667 1.33301 -113 4 -163c2 -36 5.33301 -58 10 -66c3.33301 -6 9.83301 -10.667 19.5 -14s40.834 -7 93.501 -11zM609.997 483.003c-122 -26 -199.166 -54 -231.499 -84s-48.5 -69 -48.5 -117
c0 -43.333 10.667 -76.5 32 -99.5s50 -34.5 86 -34.5c30 0 60.167 8.66699 90.5 26s54.166 39.333 71.499 66v243zM217.998 1145l-95.999 0.00195312c22.667 99.333 55.5 169.833 98.5 211.5s91.5 62.5 145.5 62.5c51.333 0 117.666 -18.333 198.999 -55
c51.333 -22.667 87.333 -37.334 108 -44.001c11.333 -3.33301 22.666 -5 33.999 -5c19.333 0 35.333 5.66699 48 17c17.333 14.667 33.666 42 48.999 82h98c-25.333 -102.667 -59.333 -174.334 -102 -215.001s-91.667 -61 -147 -61c-28 0 -55.167 3.5 -81.5 10.5
s-64.166 21.833 -113.499 44.5s-82.166 36.5 -98.499 41.5s-30.5 7.5 -42.5 7.5c-19.333 0 -37.333 -7.16699 -54 -21.5s-31.667 -39.5 -45 -75.5z" />
    <glyph glyph-name="aring" unicode="&#xe5;" 
d="M977 75l-0.00292969 -74.9971c-78.667 3.33301 -147.667 5 -207 5c-57.333 0 -110.666 -1.66699 -159.999 -5l-9 11l9 131c-25.333 -16 -96 -68.667 -212 -158c-30 -6.66699 -58.333 -10 -85 -10c-73.333 0 -130.5 21.333 -171.5 64s-61.5 104 -61.5 184
c0 54 9.16699 98.5 27.5 133.5s38.333 60.667 60 77s54.834 32.166 99.501 47.499c106 36.667 220.333 65.667 343 87c1.33301 56.667 -5.33398 102 -20.001 136s-38.5 60.333 -71.5 79s-71.5 28 -115.5 28c-29.333 0 -56.666 -3.66699 -81.999 -11
c-11.333 -3.33301 -24.666 -10 -39.999 -20l-42 -101l-68 15l6 128c46 32 92 60.667 138 86s78 41 96 47c24.667 7.33301 59.667 11 105 11c72.667 0 132.5 -10.5 179.5 -31.5s81.667 -45.833 104 -74.5s37.666 -59.334 45.999 -92.001s12.5 -74 12.5 -124
c0 -20.667 -1.66699 -79.667 -5 -177c-2 -52.667 -3 -98.334 -3 -137.001c0 -58.667 1.33301 -113 4 -163c2 -36 5.33301 -58 10 -66c3.33301 -6 9.83301 -10.667 19.5 -14s40.834 -7 93.501 -11zM609.997 483.003c-122 -26 -199.166 -54 -231.499 -84s-48.5 -69 -48.5 -117
c0 -43.333 10.667 -76.5 32 -99.5s50 -34.5 86 -34.5c30 0 60.167 8.66699 90.5 26s54.166 39.333 71.499 66v243zM511.998 1508c37.333 0 73.666 -9.66699 108.999 -29s63 -46.833 83 -82.5s30 -72.5 30 -110.5c0 -61.333 -21.667 -113.666 -65 -156.999
s-95.666 -65 -156.999 -65s-113.666 21.667 -156.999 65s-65 95.666 -65 156.999c0 38 10 74.833 30 110.5s47.667 63.167 83 82.5s71.666 29 108.999 29zM511.998 1398c-31.333 0 -58 -11 -80 -33s-33 -48.333 -33 -79c0 -31.333 11 -58 33 -80s48.667 -33 80 -33
c30.667 0 57 11 79 33s33 48.667 33 80s-10.833 57.833 -32.5 79.5s-48.167 32.5 -79.5 32.5z" />
    <glyph glyph-name="ccedilla" unicode="&#xe7;" horiz-adv-x="909" 
d="M530 -35l-39.998 -92.9912c23.333 3.33301 42.666 5 57.999 5c64 0 112.5 -14.333 145.5 -43s49.5 -63.334 49.5 -104.001c0 -47.333 -23.333 -89.5 -70 -126.5s-117.334 -55.5 -212.001 -55.5c-69.333 0 -135.666 12 -198.999 36l35 80c52.667 -16.667 98 -25 136 -25
c32.667 0 57.5 7.5 74.5 22.5s25.5 33.167 25.5 54.5c0 20 -8 37.167 -24 51.5s-37.667 21.5 -65 21.5c-15.333 0 -33.333 -3.33301 -54 -10l-25 18l79 176c-61.333 11.333 -112.333 28.666 -153 51.999s-76.5 54.666 -107.5 93.999s-54.333 82.666 -70 129.999
s-23.5 109.666 -23.5 186.999c0 80 9.33301 145.667 28 197s43.667 92.666 75 123.999c18 17.333 61.333 47.333 130 90l156 94c34.667 16 81.667 24 141 24c85.333 0 159.333 -14 222 -42l10 -17l-25 -163c-2 -15.333 -5.33301 -61.333 -10 -138h-78c-4 58 -9 102 -15 132
c-13.333 22 -34.833 40.333 -64.5 55s-65.834 22 -108.501 22c-42 0 -78 -7 -108 -21c-22 -10.667 -39.667 -25.334 -53 -44.001s-24.5 -47.834 -33.5 -87.501s-13.5 -82.834 -13.5 -129.501c0 -84 14.167 -159 42.5 -225s66 -114.667 113 -146s105.167 -47 174.5 -47
c34 0 64 3.33301 90 10s52.333 17 79 31l19 -23l-44 -97c-58.667 -29.333 -107 -48.5 -145 -57.5s-85.333 -13.167 -142 -12.5z" />
    <glyph glyph-name="eacute" unicode="&#xe9;" 
d="M928 154l-45 -98.001c-52 -32.667 -107.667 -57 -167 -73c-43.333 -12 -93 -18 -149 -18c-150 0 -266.5 41.833 -349.5 125.5s-124.5 201.834 -124.5 354.501c0 86 9.66699 160.667 29 224c13.333 43.333 32.666 80.333 57.999 111c19.333 22.667 50.333 48 93 76
c56.667 37.333 102 63.333 136 78c46.667 20.667 102.334 31 167.001 31c50 0 94.5 -5.83301 133.5 -17.5s73.167 -28.5 102.5 -50.5s54 -47.333 74 -76s36 -63.5 48 -104.5s18 -95.5 18 -163.5c0 -18 -0.666992 -35.333 -2 -52c-16 -5.33301 -41 -11.333 -75 -18
c-46 -8.66699 -77.333 -13.667 -94 -15c-50 -3.33301 -113.667 -5.33301 -191 -6l-142 -2c-8.66699 -0.666992 -18.334 -1 -29.001 -1h-66c5.33301 -105.333 38 -188.5 98 -249.5s134 -91.5 222 -91.5c38 0 72.333 4 103 12s73.334 25.333 128.001 52zM690 567.999
c2.66699 105.333 -11.8311 179.334 -43.498 222.001s-72.834 64 -123.501 64s-92.834 -20.833 -126.501 -62.5s-50.5 -108.834 -50.5 -201.501v-22c39.333 -6 105.333 -9 198 -9c58 0 106.667 3 146 9zM512.002 1096l-121 0.000976562l235 285
c24 29.333 41 48.666 51 57.999c14 12.667 29.167 22.667 45.5 30s34.5 11 54.5 11c34.667 0 62.667 -10 84 -30s32 -44.667 32 -74c0 -19.333 -6 -37 -18 -53c-19.333 -24.667 -53 -50.667 -101 -78z" />
    <glyph glyph-name="egrave" unicode="&#xe8;" 
d="M928 154l-45 -98.001c-52 -32.667 -107.667 -57 -167 -73c-43.333 -12 -93 -18 -149 -18c-150 0 -266.5 41.833 -349.5 125.5s-124.5 201.834 -124.5 354.501c0 86 9.66699 160.667 29 224c13.333 43.333 32.666 80.333 57.999 111c19.333 22.667 50.333 48 93 76
c56.667 37.333 102 63.333 136 78c46.667 20.667 102.334 31 167.001 31c50 0 94.5 -5.83301 133.5 -17.5s73.167 -28.5 102.5 -50.5s54 -47.333 74 -76s36 -63.5 48 -104.5s18 -95.5 18 -163.5c0 -18 -0.666992 -35.333 -2 -52c-16 -5.33301 -41 -11.333 -75 -18
c-46 -8.66699 -77.333 -13.667 -94 -15c-50 -3.33301 -113.667 -5.33301 -191 -6l-142 -2c-8.66699 -0.666992 -18.334 -1 -29.001 -1h-66c5.33301 -105.333 38 -188.5 98 -249.5s134 -91.5 222 -91.5c38 0 72.333 4 103 12s73.334 25.333 128.001 52zM690 567.999
c2.66699 105.333 -11.8311 179.334 -43.498 222.001s-72.834 64 -123.501 64s-92.834 -20.833 -126.501 -62.5s-50.5 -108.834 -50.5 -201.501v-22c39.333 -6 105.333 -9 198 -9c58 0 106.667 3 146 9zM604.002 1096l-263 149c-48 27.333 -81 53 -99 77
c-12.667 16.667 -19 35 -19 55c0 28.667 10.667 53 32 73s50 30 86 30c18 0 34.667 -3.16699 50 -9.5s31 -16.833 47 -31.5c10.667 -8.66699 28 -28 52 -58l235 -285h-121z" />
    <glyph glyph-name="ecircumflex" unicode="&#xea;" 
d="M928 154l-45 -98.001c-52 -32.667 -107.667 -57 -167 -73c-43.333 -12 -93 -18 -149 -18c-150 0 -266.5 41.833 -349.5 125.5s-124.5 201.834 -124.5 354.501c0 86 9.66699 160.667 29 224c13.333 43.333 32.666 80.333 57.999 111c19.333 22.667 50.333 48 93 76
c56.667 37.333 102 63.333 136 78c46.667 20.667 102.334 31 167.001 31c50 0 94.5 -5.83301 133.5 -17.5s73.167 -28.5 102.5 -50.5s54 -47.333 74 -76s36 -63.5 48 -104.5s18 -95.5 18 -163.5c0 -18 -0.666992 -35.333 -2 -52c-16 -5.33301 -41 -11.333 -75 -18
c-46 -8.66699 -77.333 -13.667 -94 -15c-50 -3.33301 -113.667 -5.33301 -191 -6l-142 -2c-8.66699 -0.666992 -18.334 -1 -29.001 -1h-66c5.33301 -105.333 38 -188.5 98 -249.5s134 -91.5 222 -91.5c38 0 72.333 4 103 12s73.334 25.333 128.001 52zM690 567.999
c2.66699 105.333 -11.8311 179.334 -43.498 222.001s-72.834 64 -123.501 64s-92.834 -20.833 -126.501 -62.5s-50.5 -108.834 -50.5 -201.501v-22c39.333 -6 105.333 -9 198 -9c58 0 106.667 3 146 9zM447.002 1452h213l249 -356h-134l-226 190l-219 -190h-131z" />
    <glyph glyph-name="edieresis" unicode="&#xeb;" 
d="M928 154l-45 -98.001c-52 -32.667 -107.667 -57 -167 -73c-43.333 -12 -93 -18 -149 -18c-150 0 -266.5 41.833 -349.5 125.5s-124.5 201.834 -124.5 354.501c0 86 9.66699 160.667 29 224c13.333 43.333 32.666 80.333 57.999 111c19.333 22.667 50.333 48 93 76
c56.667 37.333 102 63.333 136 78c46.667 20.667 102.334 31 167.001 31c50 0 94.5 -5.83301 133.5 -17.5s73.167 -28.5 102.5 -50.5s54 -47.333 74 -76s36 -63.5 48 -104.5s18 -95.5 18 -163.5c0 -18 -0.666992 -35.333 -2 -52c-16 -5.33301 -41 -11.333 -75 -18
c-46 -8.66699 -77.333 -13.667 -94 -15c-50 -3.33301 -113.667 -5.33301 -191 -6l-142 -2c-8.66699 -0.666992 -18.334 -1 -29.001 -1h-66c5.33301 -105.333 38 -188.5 98 -249.5s134 -91.5 222 -91.5c38 0 72.333 4 103 12s73.334 25.333 128.001 52zM690 567.999
c2.66699 105.333 -11.8311 179.334 -43.498 222.001s-72.834 64 -123.501 64s-92.834 -20.833 -126.501 -62.5s-50.5 -108.834 -50.5 -201.501v-22c39.333 -6 105.333 -9 198 -9c58 0 106.667 3 146 9zM339.002 1401c40 0 74.167 -14.333 102.5 -43s42.5 -63 42.5 -103
s-14.167 -74.167 -42.5 -102.5s-62.5 -42.5 -102.5 -42.5s-74.167 14.167 -102.5 42.5s-42.5 62.5 -42.5 102.5c0 40.667 14.167 75.167 42.5 103.5s62.5 42.5 102.5 42.5zM779.002 1401c40 0 74.167 -14.333 102.5 -43s42.5 -63 42.5 -103s-14.167 -74.167 -42.5 -102.5
s-62.5 -42.5 -102.5 -42.5s-74.167 14.167 -102.5 42.5s-42.5 62.5 -42.5 102.5c0 40.667 14.167 75.167 42.5 103.5s62.5 42.5 102.5 42.5z" />
    <glyph glyph-name="iacute" unicode="&#xed;" horiz-adv-x="682" 
d="M69 0v74c66 4.66699 105 9 117 13c8 2.66699 14 6.33398 18 11.001c6 6.66699 10.333 16.167 13 28.5s4.66699 31.5 6 57.5c2.66699 96.667 4 172 4 226c0 181.333 -2 295.333 -6 342c-2.66699 21.333 -8 34.666 -16 39.999
c-13.333 8.66699 -58.666 13.334 -135.999 14.001v76c102 10.667 178.5 22 229.5 34s106.5 30.333 166.5 55l24 -13c-8 -103.333 -12 -201 -12 -293v-340c0 -116 2.66699 -184.667 8 -206c2.66699 -12 8 -20 16 -24c18 -8.66699 61.667 -14.334 131 -17.001v-78
c-98.667 2.66699 -201.334 4 -308.001 4c-94 0 -179 -1.33301 -255 -4zM296 1101l-121 0.000976562l235 285c24 29.333 41 48.666 51 57.999c14 12.667 29.167 22.667 45.5 30s34.5 11 54.5 11c34.667 0 62.667 -10 84 -30s32 -44.667 32 -74c0 -19.333 -6 -37 -18 -53
c-19.333 -24.667 -53 -50.667 -101 -78z" />
    <glyph glyph-name="igrave" unicode="&#xec;" horiz-adv-x="682" 
d="M69 0v74c66 4.66699 105 9 117 13c8 2.66699 14 6.33398 18 11.001c6 6.66699 10.333 16.167 13 28.5s4.66699 31.5 6 57.5c2.66699 96.667 4 172 4 226c0 181.333 -2 295.333 -6 342c-2.66699 21.333 -8 34.666 -16 39.999
c-13.333 8.66699 -58.666 13.334 -135.999 14.001v76c102 10.667 178.5 22 229.5 34s106.5 30.333 166.5 55l24 -13c-8 -103.333 -12 -201 -12 -293v-340c0 -116 2.66699 -184.667 8 -206c2.66699 -12 8 -20 16 -24c18 -8.66699 61.667 -14.334 131 -17.001v-78
c-98.667 2.66699 -201.334 4 -308.001 4c-94 0 -179 -1.33301 -255 -4zM389 1101l-263 149c-48 27.333 -81 53 -99 77c-12.667 16.667 -19 35 -19 55c0 28.667 10.667 53 32 73s50 30 86 30c18 0 34.667 -3.16699 50 -9.5s31 -16.833 47 -31.5
c10.667 -8.66699 28 -28 52 -58l235 -285h-121z" />
    <glyph glyph-name="icircumflex" unicode="&#xee;" horiz-adv-x="682" 
d="M69 0v74c66 4.66699 105 9 117 13c8 2.66699 14 6.33398 18 11.001c6 6.66699 10.333 16.167 13 28.5s4.66699 31.5 6 57.5c2.66699 96.667 4 172 4 226c0 181.333 -2 295.333 -6 342c-2.66699 21.333 -8 34.666 -16 39.999
c-13.333 8.66699 -58.666 13.334 -135.999 14.001v76c102 10.667 178.5 22 229.5 34s106.5 30.333 166.5 55l24 -13c-8 -103.333 -12 -201 -12 -293v-340c0 -116 2.66699 -184.667 8 -206c2.66699 -12 8 -20 16 -24c18 -8.66699 61.667 -14.334 131 -17.001v-78
c-98.667 2.66699 -201.334 4 -308.001 4c-94 0 -179 -1.33301 -255 -4zM233 1457h213l249 -356h-134l-226 190l-219 -190h-131z" />
    <glyph glyph-name="idieresis" unicode="&#xef;" horiz-adv-x="682" 
d="M69 0v74c66 4.66699 105 9 117 13c8 2.66699 14 6.33398 18 11.001c6 6.66699 10.333 16.167 13 28.5s4.66699 31.5 6 57.5c2.66699 96.667 4 172 4 226c0 181.333 -2 295.333 -6 342c-2.66699 21.333 -8 34.666 -16 39.999
c-13.333 8.66699 -58.666 13.334 -135.999 14.001v76c102 10.667 178.5 22 229.5 34s106.5 30.333 166.5 55l24 -13c-8 -103.333 -12 -201 -12 -293v-340c0 -116 2.66699 -184.667 8 -206c2.66699 -12 8 -20 16 -24c18 -8.66699 61.667 -14.334 131 -17.001v-78
c-98.667 2.66699 -201.334 4 -308.001 4c-94 0 -179 -1.33301 -255 -4zM124 1406c40 0 74.167 -14.333 102.5 -43s42.5 -63 42.5 -103s-14.167 -74.167 -42.5 -102.5s-62.5 -42.5 -102.5 -42.5s-74.167 14.167 -102.5 42.5s-42.5 62.5 -42.5 102.5
c0 40.667 14.167 75.167 42.5 103.5s62.5 42.5 102.5 42.5zM564 1406c40 0 74.167 -14.333 102.5 -43s42.5 -63 42.5 -103s-14.167 -74.167 -42.5 -102.5s-62.5 -42.5 -102.5 -42.5s-74.167 14.167 -102.5 42.5s-42.5 62.5 -42.5 102.5c0 40.667 14.167 75.167 42.5 103.5
s62.5 42.5 102.5 42.5z" />
    <glyph glyph-name="ntilde" unicode="&#xf1;" horiz-adv-x="1251" 
d="M1209 77l0.000976562 -76.998c-89.333 4.66699 -163 7 -221 7c-66.667 0 -124.334 -2.33301 -173.001 -7l-18 18l13 168c0.666992 12.667 2 68.667 4 168l1 28v52c0 116.667 -4.33301 193.334 -13 230.001c-9.33301 36.667 -27.833 66.167 -55.5 88.5
s-65.167 33.5 -112.5 33.5c-34 0 -62.167 -5 -84.5 -15s-42 -24.167 -59 -42.5s-27.167 -33.5 -30.5 -45.5c-4 -12 -6 -51 -6 -117v-209c0 -48.667 1.33301 -108.334 4 -179.001c0.666992 -32 3.66699 -53 9 -63c2.66699 -6.66699 6.66699 -11.667 12 -15
c8 -5.33301 23 -10 45 -14c10 -2 38.667 -5 86 -9v-77c-74.667 2.66699 -164 4 -268 4c-116.667 0 -211 -1.33301 -283 -4v77c66 0 105.667 5.66699 119 17s20.333 39 21 83c0 1.33301 1.33301 31 4 89c0.666992 18 1 48.333 1 91v131c0 64.667 -2.33301 143.667 -7 237
c-2 30 -4.83301 47.667 -8.5 53s-10.167 9.33301 -19.5 12c-11.333 4 -48 7 -110 9v77c125.333 21.333 206.166 37 242.499 47s78.166 25.667 125.499 47l27 -12v-161l182 146c21.333 8.66699 39.666 14.5 54.999 17.5s36.666 4.5 63.999 4.5
c70.667 0 123.834 -8 159.501 -24s65.834 -38.5 90.501 -67.5s42 -59.5 52 -91.5s15 -81.333 15 -148c0 -76 -0.666992 -124 -2 -144c-0.666992 -8.66699 -1 -18.667 -1 -30l1 -103c0.666992 -113.333 2.33398 -183 5.00098 -209c3.33301 -26.667 9.5 -43.834 18.5 -51.501
s28.833 -12.5 59.5 -14.5c10.667 -0.666992 29.334 -2.33398 56.001 -5.00098zM332.001 1144l-95.999 0.00195312c22.667 99.333 55.5 169.833 98.5 211.5s91.5 62.5 145.5 62.5c51.333 0 117.666 -18.333 198.999 -55c51.333 -22.667 87.333 -37.334 108 -44.001
c11.333 -3.33301 22.666 -5 33.999 -5c19.333 0 35.333 5.66699 48 17c17.333 14.667 33.666 42 48.999 82h98c-25.333 -102.667 -59.333 -174.334 -102 -215.001s-91.667 -61 -147 -61c-28 0 -55.167 3.5 -81.5 10.5s-64.166 21.833 -113.499 44.5
s-82.166 36.5 -98.499 41.5s-30.5 7.5 -42.5 7.5c-19.333 0 -37.333 -7.16699 -54 -21.5s-31.667 -39.5 -45 -75.5z" />
    <glyph glyph-name="oacute" unicode="&#xf3;" horiz-adv-x="1139" 
d="M86 472c0 86.667 10.498 160.168 31.498 220.501s53 111.666 96 153.999s91.5 73.166 145.5 92.499c70.667 26 147 39 229 39c154 0 271.167 -40.333 351.5 -121s120.5 -199 120.5 -355c0 -90 -11.667 -168 -35 -234s-54.666 -119.167 -93.999 -159.5
s-80.666 -70.833 -123.999 -91.5c-73.333 -34.667 -156.666 -52 -249.999 -52c-150.667 0 -266.834 42.833 -348.501 128.5s-122.5 211.834 -122.5 378.501zM362.998 520.001c0 -177.333 26 -303.667 78 -379c34.667 -50 84 -75 148 -75c54.667 0 98 19 130 57
c42.667 50.667 64 148.667 64 294c0 71.333 -5 140.5 -15 207.5s-25 118 -45 153s-42.5 60 -67.5 75s-55.833 22.5 -92.5 22.5c-40 0 -75 -10.5 -105 -31.5s-53.333 -56.333 -70 -106s-25 -122.167 -25 -217.5zM522.998 1099l-121 0.000976562l235 285
c24 29.333 41 48.666 51 57.999c14 12.667 29.167 22.667 45.5 30s34.5 11 54.5 11c34.667 0 62.667 -10 84 -30s32 -44.667 32 -74c0 -19.333 -6 -37 -18 -53c-19.333 -24.667 -53 -50.667 -101 -78z" />
    <glyph glyph-name="ograve" unicode="&#xf2;" horiz-adv-x="1139" 
d="M86 472c0 86.667 10.498 160.168 31.498 220.501s53 111.666 96 153.999s91.5 73.166 145.5 92.499c70.667 26 147 39 229 39c154 0 271.167 -40.333 351.5 -121s120.5 -199 120.5 -355c0 -90 -11.667 -168 -35 -234s-54.666 -119.167 -93.999 -159.5
s-80.666 -70.833 -123.999 -91.5c-73.333 -34.667 -156.666 -52 -249.999 -52c-150.667 0 -266.834 42.833 -348.501 128.5s-122.5 211.834 -122.5 378.501zM362.998 520.001c0 -177.333 26 -303.667 78 -379c34.667 -50 84 -75 148 -75c54.667 0 98 19 130 57
c42.667 50.667 64 148.667 64 294c0 71.333 -5 140.5 -15 207.5s-25 118 -45 153s-42.5 60 -67.5 75s-55.833 22.5 -92.5 22.5c-40 0 -75 -10.5 -105 -31.5s-53.333 -56.333 -70 -106s-25 -122.167 -25 -217.5zM614.998 1099l-263 149c-48 27.333 -81 53 -99 77
c-12.667 16.667 -19 35 -19 55c0 28.667 10.667 53 32 73s50 30 86 30c18 0 34.667 -3.16699 50 -9.5s31 -16.833 47 -31.5c10.667 -8.66699 28 -28 52 -58l235 -285h-121z" />
    <glyph glyph-name="ocircumflex" unicode="&#xf4;" horiz-adv-x="1139" 
d="M86 472c0 86.667 10.498 160.168 31.498 220.501s53 111.666 96 153.999s91.5 73.166 145.5 92.499c70.667 26 147 39 229 39c154 0 271.167 -40.333 351.5 -121s120.5 -199 120.5 -355c0 -90 -11.667 -168 -35 -234s-54.666 -119.167 -93.999 -159.5
s-80.666 -70.833 -123.999 -91.5c-73.333 -34.667 -156.666 -52 -249.999 -52c-150.667 0 -266.834 42.833 -348.501 128.5s-122.5 211.834 -122.5 378.501zM362.998 520.001c0 -177.333 26 -303.667 78 -379c34.667 -50 84 -75 148 -75c54.667 0 98 19 130 57
c42.667 50.667 64 148.667 64 294c0 71.333 -5 140.5 -15 207.5s-25 118 -45 153s-42.5 60 -67.5 75s-55.833 22.5 -92.5 22.5c-40 0 -75 -10.5 -105 -31.5s-53.333 -56.333 -70 -106s-25 -122.167 -25 -217.5zM457.998 1455h213l249 -356h-134l-226 190l-219 -190h-131z
" />
    <glyph glyph-name="odieresis" unicode="&#xf6;" horiz-adv-x="1139" 
d="M86 472c0 86.667 10.498 160.168 31.498 220.501s53 111.666 96 153.999s91.5 73.166 145.5 92.499c70.667 26 147 39 229 39c154 0 271.167 -40.333 351.5 -121s120.5 -199 120.5 -355c0 -90 -11.667 -168 -35 -234s-54.666 -119.167 -93.999 -159.5
s-80.666 -70.833 -123.999 -91.5c-73.333 -34.667 -156.666 -52 -249.999 -52c-150.667 0 -266.834 42.833 -348.501 128.5s-122.5 211.834 -122.5 378.501zM362.998 520.001c0 -177.333 26 -303.667 78 -379c34.667 -50 84 -75 148 -75c54.667 0 98 19 130 57
c42.667 50.667 64 148.667 64 294c0 71.333 -5 140.5 -15 207.5s-25 118 -45 153s-42.5 60 -67.5 75s-55.833 22.5 -92.5 22.5c-40 0 -75 -10.5 -105 -31.5s-53.333 -56.333 -70 -106s-25 -122.167 -25 -217.5zM350.998 1404c40 0 74.167 -14.333 102.5 -43
s42.5 -63 42.5 -103s-14.167 -74.167 -42.5 -102.5s-62.5 -42.5 -102.5 -42.5s-74.167 14.167 -102.5 42.5s-42.5 62.5 -42.5 102.5c0 40.667 14.167 75.167 42.5 103.5s62.5 42.5 102.5 42.5zM790.998 1404c40 0 74.167 -14.333 102.5 -43s42.5 -63 42.5 -103
s-14.167 -74.167 -42.5 -102.5s-62.5 -42.5 -102.5 -42.5s-74.167 14.167 -102.5 42.5s-42.5 62.5 -42.5 102.5c0 40.667 14.167 75.167 42.5 103.5s62.5 42.5 102.5 42.5z" />
    <glyph glyph-name="otilde" unicode="&#xf5;" horiz-adv-x="1139" 
d="M86 472c0 86.667 10.498 160.168 31.498 220.501s53 111.666 96 153.999s91.5 73.166 145.5 92.499c70.667 26 147 39 229 39c154 0 271.167 -40.333 351.5 -121s120.5 -199 120.5 -355c0 -90 -11.667 -168 -35 -234s-54.666 -119.167 -93.999 -159.5
s-80.666 -70.833 -123.999 -91.5c-73.333 -34.667 -156.666 -52 -249.999 -52c-150.667 0 -266.834 42.833 -348.501 128.5s-122.5 211.834 -122.5 378.501zM362.998 520.001c0 -177.333 26 -303.667 78 -379c34.667 -50 84 -75 148 -75c54.667 0 98 19 130 57
c42.667 50.667 64 148.667 64 294c0 71.333 -5 140.5 -15 207.5s-25 118 -45 153s-42.5 60 -67.5 75s-55.833 22.5 -92.5 22.5c-40 0 -75 -10.5 -105 -31.5s-53.333 -56.333 -70 -106s-25 -122.167 -25 -217.5zM277.998 1143l-95.999 0.00195312
c22.667 99.333 55.5 169.833 98.5 211.5s91.5 62.5 145.5 62.5c51.333 0 117.666 -18.333 198.999 -55c51.333 -22.667 87.333 -37.334 108 -44.001c11.333 -3.33301 22.666 -5 33.999 -5c19.333 0 35.333 5.66699 48 17c17.333 14.667 33.666 42 48.999 82h98
c-25.333 -102.667 -59.333 -174.334 -102 -215.001s-91.667 -61 -147 -61c-28 0 -55.167 3.5 -81.5 10.5s-64.166 21.833 -113.499 44.5s-82.166 36.5 -98.499 41.5s-30.5 7.5 -42.5 7.5c-19.333 0 -37.333 -7.16699 -54 -21.5s-31.667 -39.5 -45 -75.5z" />
    <glyph glyph-name="uacute" unicode="&#xfa;" horiz-adv-x="1251" 
d="M53 802l-0.000976562 75.9961c57.333 3.33301 114.5 11 171.5 23s129.5 32.667 217.5 62l21 -14c-9.33301 -130 -14 -250.333 -14 -361v-112l-1 -44c0 -80.667 4.5 -137.667 13.5 -171s25.5 -58.833 49.5 -76.5s55.333 -26.5 94 -26.5c46.667 0 87 12.333 121 37
s57.667 53 71 85c6 14.667 9 48.334 9 101.001v171l-2 126c0 50.667 -2.33301 82.334 -7 95.001c-1.33301 4.66699 -4.33301 8.66699 -9 12c-6 4 -15.667 7 -29 9c-9.33301 2 -44.666 4.66699 -105.999 8v76c102.667 13.333 172.667 24 210 32s98.666 25.333 183.999 52
l26 -15c0 -4 -1.33301 -22 -4 -54c-3.33301 -46 -7.33301 -129.667 -12 -251c-2 -45.333 -3 -75.666 -3 -90.999v-205c0 -122 3 -197.333 9 -226c2.66699 -12 7.66699 -20.333 15 -25c12 -6 53 -11 123 -15v-80l-205 5l-190 -5l-7 8l6 76c0.666992 14.667 1 40.667 1 78
l-65 -54l-116 -110c-46 -16.667 -92.333 -25 -139 -25c-90 0 -160.667 24.667 -212 74s-77 115 -77 197c0 10 1 47 3 111c0.666992 34 1 78 1 132l-2 211c0 36.667 -2.33301 60.334 -7 71.001s-13.167 18.167 -25.5 22.5s-50.166 7.83301 -113.499 10.5zM577.999 1096
l-121 0.000976562l235 285c24 29.333 41 48.666 51 57.999c14 12.667 29.167 22.667 45.5 30s34.5 11 54.5 11c34.667 0 62.667 -10 84 -30s32 -44.667 32 -74c0 -19.333 -6 -37 -18 -53c-19.333 -24.667 -53 -50.667 -101 -78z" />
    <glyph glyph-name="ugrave" unicode="&#xf9;" horiz-adv-x="1251" 
d="M53 802l-0.000976562 75.9961c57.333 3.33301 114.5 11 171.5 23s129.5 32.667 217.5 62l21 -14c-9.33301 -130 -14 -250.333 -14 -361v-112l-1 -44c0 -80.667 4.5 -137.667 13.5 -171s25.5 -58.833 49.5 -76.5s55.333 -26.5 94 -26.5c46.667 0 87 12.333 121 37
s57.667 53 71 85c6 14.667 9 48.334 9 101.001v171l-2 126c0 50.667 -2.33301 82.334 -7 95.001c-1.33301 4.66699 -4.33301 8.66699 -9 12c-6 4 -15.667 7 -29 9c-9.33301 2 -44.666 4.66699 -105.999 8v76c102.667 13.333 172.667 24 210 32s98.666 25.333 183.999 52
l26 -15c0 -4 -1.33301 -22 -4 -54c-3.33301 -46 -7.33301 -129.667 -12 -251c-2 -45.333 -3 -75.666 -3 -90.999v-205c0 -122 3 -197.333 9 -226c2.66699 -12 7.66699 -20.333 15 -25c12 -6 53 -11 123 -15v-80l-205 5l-190 -5l-7 8l6 76c0.666992 14.667 1 40.667 1 78
l-65 -54l-116 -110c-46 -16.667 -92.333 -25 -139 -25c-90 0 -160.667 24.667 -212 74s-77 115 -77 197c0 10 1 47 3 111c0.666992 34 1 78 1 132l-2 211c0 36.667 -2.33301 60.334 -7 71.001s-13.167 18.167 -25.5 22.5s-50.166 7.83301 -113.499 10.5zM669.999 1096
l-263 149c-48 27.333 -81 53 -99 77c-12.667 16.667 -19 35 -19 55c0 28.667 10.667 53 32 73s50 30 86 30c18 0 34.667 -3.16699 50 -9.5s31 -16.833 47 -31.5c10.667 -8.66699 28 -28 52 -58l235 -285h-121z" />
    <glyph glyph-name="ucircumflex" unicode="&#xfb;" horiz-adv-x="1251" 
d="M53 802l-0.000976562 75.9961c57.333 3.33301 114.5 11 171.5 23s129.5 32.667 217.5 62l21 -14c-9.33301 -130 -14 -250.333 -14 -361v-112l-1 -44c0 -80.667 4.5 -137.667 13.5 -171s25.5 -58.833 49.5 -76.5s55.333 -26.5 94 -26.5c46.667 0 87 12.333 121 37
s57.667 53 71 85c6 14.667 9 48.334 9 101.001v171l-2 126c0 50.667 -2.33301 82.334 -7 95.001c-1.33301 4.66699 -4.33301 8.66699 -9 12c-6 4 -15.667 7 -29 9c-9.33301 2 -44.666 4.66699 -105.999 8v76c102.667 13.333 172.667 24 210 32s98.666 25.333 183.999 52
l26 -15c0 -4 -1.33301 -22 -4 -54c-3.33301 -46 -7.33301 -129.667 -12 -251c-2 -45.333 -3 -75.666 -3 -90.999v-205c0 -122 3 -197.333 9 -226c2.66699 -12 7.66699 -20.333 15 -25c12 -6 53 -11 123 -15v-80l-205 5l-190 -5l-7 8l6 76c0.666992 14.667 1 40.667 1 78
l-65 -54l-116 -110c-46 -16.667 -92.333 -25 -139 -25c-90 0 -160.667 24.667 -212 74s-77 115 -77 197c0 10 1 47 3 111c0.666992 34 1 78 1 132l-2 211c0 36.667 -2.33301 60.334 -7 71.001s-13.167 18.167 -25.5 22.5s-50.166 7.83301 -113.499 10.5zM513.999 1452h213
l249 -356h-134l-226 190l-219 -190h-131z" />
    <glyph glyph-name="udieresis" unicode="&#xfc;" horiz-adv-x="1251" 
d="M53 802l-0.000976562 75.9961c57.333 3.33301 114.5 11 171.5 23s129.5 32.667 217.5 62l21 -14c-9.33301 -130 -14 -250.333 -14 -361v-112l-1 -44c0 -80.667 4.5 -137.667 13.5 -171s25.5 -58.833 49.5 -76.5s55.333 -26.5 94 -26.5c46.667 0 87 12.333 121 37
s57.667 53 71 85c6 14.667 9 48.334 9 101.001v171l-2 126c0 50.667 -2.33301 82.334 -7 95.001c-1.33301 4.66699 -4.33301 8.66699 -9 12c-6 4 -15.667 7 -29 9c-9.33301 2 -44.666 4.66699 -105.999 8v76c102.667 13.333 172.667 24 210 32s98.666 25.333 183.999 52
l26 -15c0 -4 -1.33301 -22 -4 -54c-3.33301 -46 -7.33301 -129.667 -12 -251c-2 -45.333 -3 -75.666 -3 -90.999v-205c0 -122 3 -197.333 9 -226c2.66699 -12 7.66699 -20.333 15 -25c12 -6 53 -11 123 -15v-80l-205 5l-190 -5l-7 8l6 76c0.666992 14.667 1 40.667 1 78
l-65 -54l-116 -110c-46 -16.667 -92.333 -25 -139 -25c-90 0 -160.667 24.667 -212 74s-77 115 -77 197c0 10 1 47 3 111c0.666992 34 1 78 1 132l-2 211c0 36.667 -2.33301 60.334 -7 71.001s-13.167 18.167 -25.5 22.5s-50.166 7.83301 -113.499 10.5zM405.999 1401
c40 0 74.167 -14.333 102.5 -43s42.5 -63 42.5 -103s-14.167 -74.167 -42.5 -102.5s-62.5 -42.5 -102.5 -42.5s-74.167 14.167 -102.5 42.5s-42.5 62.5 -42.5 102.5c0 40.667 14.167 75.167 42.5 103.5s62.5 42.5 102.5 42.5zM845.999 1401c40 0 74.167 -14.333 102.5 -43
s42.5 -63 42.5 -103s-14.167 -74.167 -42.5 -102.5s-62.5 -42.5 -102.5 -42.5s-74.167 14.167 -102.5 42.5s-42.5 62.5 -42.5 102.5c0 40.667 14.167 75.167 42.5 103.5s62.5 42.5 102.5 42.5z" />
    <glyph glyph-name="dagger" unicode="&#x2020;" 
d="M377 1l-11.002 11c20 196 31.333 450 34 762c-41.333 0 -76.666 -0.333008 -105.999 -1c-18 -1.33301 -62.333 -4.33301 -133 -9l-91 -6l-9 11c3.33301 54 5 88.667 5 104c0 25.333 -2 55.333 -6 90l8 10l210 -15c30.667 -2.66699 53.334 -4 68.001 -4
c10 0 28.333 1.33301 55 4c-2.66699 187.333 -12 333.666 -28 438.999l10 10c59.333 -4.66699 103.666 -7 132.999 -7c28 0 71.667 2.33301 131 7l10 -10c-15.333 -105.333 -24.333 -251.666 -27 -438.999c36 -2.66699 56 -4 60 -4c10.667 0 31.334 1.33301 62.001 4l210 15
l8 -10c-4 -34.667 -6 -64.667 -6 -90c0 -15.333 2 -50 6 -104l-9 -11l-190 13c-39.333 2 -86 3 -140 3c2 -312 13 -566 33 -762l-11 -11c-77.333 6.66699 -124.666 10 -141.999 10c-16.667 0 -61.334 -3.33301 -134.001 -10z" />
    <glyph glyph-name="degree" unicode="&#xb0;" horiz-adv-x="819" 
d="M409 1440c56.667 0 112 -14.667 166 -44s96 -71 126 -125s45 -110 45 -168c0 -58.667 -14.833 -114.667 -44.5 -168s-71.167 -95 -124.5 -125s-109.333 -45 -168 -45c-58 0 -113.833 15 -167.5 45s-95.334 71.667 -125.001 125s-44.5 109.333 -44.5 168
c0 58 15.167 114 45.5 168s72.333 95.667 126 125s108.834 44 165.501 44zM411 1319c-35.333 0 -70 -9.16699 -104 -27.5s-60.667 -44.666 -80 -78.999s-29 -69.833 -29 -106.5c0 -58.667 20.833 -108.834 62.5 -150.501s91.834 -62.5 150.501 -62.5
c59.333 0 109.666 20.833 150.999 62.5s62 91.834 62 150.501c0 36.667 -9.5 72.167 -28.5 106.5s-45.5 60.666 -79.5 78.999s-69 27.5 -105 27.5z" />
    <glyph glyph-name="cent" unicode="&#xa2;" 
d="M319 -214l73.998 218.001c-43.333 23.333 -74.333 43 -93 59c-29.333 24 -56 54.833 -80 92.5s-41.667 79 -53 124s-17 97.167 -17 156.5c0 76 7.83301 139 23.5 189s38.167 91 67.5 123c21.333 23.333 68 57.333 140 102c94.667 58.667 149.667 91 165 97
c38 15.333 85.333 22.333 142 21l52 169l83 -1l-51 -174c14.667 -1.33301 39.667 -6.33301 75 -15c5.33301 -1.33301 24 -7.66602 56 -18.999l9 -17l-24 -161c-3.33301 -25.333 -7.33301 -72 -12 -140h-78c-4 59.333 -7.16699 96.166 -9.5 110.499
s-7.16602 26.166 -14.499 35.499c-11.333 14 -28.666 26.667 -51.999 38l-187 -613c52.667 -44.667 119 -67 199 -67c60.667 0 116.667 13.667 168 41l18 -21l-41 -98c-42 -23.333 -84.167 -40.833 -126.5 -52.5s-87.833 -17.5 -136.5 -17.5c-51.333 0 -99 4.33301 -143 13
l-68 -193h-86zM640.998 817.001c-16 2 -29.667 3 -41 3c-44 0 -81 -9.83301 -111 -29.5s-52 -50 -66 -91s-21 -92.167 -21 -153.5c0 -54.667 6.33301 -108 19 -160s29.667 -94.333 51 -127z" />
    <glyph glyph-name="sterling" unicode="&#xa3;" 
d="M40 -23c-2.66699 16.667 -3.99805 35.665 -3.99805 56.998c0 36.667 2.33301 71.334 7 104.001c32 27.333 73.667 53.333 125 78c19.333 76 31.333 133 36 171c7.33301 55.333 11 128.333 11 219c0 12.667 -0.333008 30.667 -1 54l-49 2
c-34.667 0.666992 -77.667 -1 -129 -5v113c34 -4.66699 76.667 -7 128 -7h50c0.666992 128.667 6.5 214.5 17.5 257.5s31.167 81.667 60.5 116s80.666 75.5 153.999 123.5s135 83.167 185 105.5s110 33.5 180 33.5c32 0 57.667 -2.16699 77 -6.5s49 -14.833 89 -31.5l6 -16
l-1 -17l-12 -117l-10 -145h-75c-1.33301 58.667 -5 102 -11 130c-13.333 22.667 -33.833 39.667 -61.5 51s-58.834 17 -93.501 17c-39.333 0 -74 -8.5 -104 -25.5s-53.5 -41.667 -70.5 -74s-30.5 -87.166 -40.5 -164.499c-4.66699 -34 -11.334 -113 -20.001 -237h95
c60 0 143 2 249 6c-1.33301 -22.667 -2 -46 -2 -70c0 -14.667 0.333008 -29.334 1 -44.001c-10.667 0.666992 -47 2 -109 4l-105 1h-140c-14.667 -66.667 -25 -109.667 -31 -129c-11.333 -38 -25.666 -75 -42.999 -111c-12.667 -27.333 -28.667 -55.666 -48 -84.999
c-26 -40 -54.333 -79.667 -85 -119c104 2.66699 166.667 4 188 4c42.667 0 132.667 -5 270 -15c48 -3.33301 88.333 -5 121 -5c13.333 0 23 3.16699 29 9.5s11.333 24.166 16 53.499c7.33301 48 11.333 83.333 12 106h81c-5.33301 -64 -8.66602 -117.333 -9.99902 -160
c-0.666992 -14 -1.33398 -79 -2.00098 -195l-86 -33c-18.667 -2 -33.334 -3 -44.001 -3c-59.333 0 -152.333 16.667 -279 50c-104 27.333 -179.167 44.833 -225.5 52.5s-88.166 11.5 -125.499 11.5h-29c-4.66699 -5.33301 -14 -17.666 -28 -36.999l-36 -47
c-9.33301 -10 -21 -20.333 -35 -31h-43z" />
    <glyph glyph-name="section" unicode="&#xa7;" 
d="M100 -350c1.33301 10.667 6.66602 41.6631 15.999 92.9961l12 163c1.33301 22 1.66602 43 0.999023 63h80c0.666992 -7.33301 1.33398 -24.333 2.00098 -51c0.666992 -27.333 1.33398 -43.666 2.00098 -48.999c1.33301 -14 5.33301 -38.667 12 -74
c30.667 -35.333 60.667 -60 90 -74c52.667 -24 113 -36 181 -36c83.333 0 149.333 21.5 198 64.5s73 93.5 73 151.5c0 36.667 -9.33301 67.834 -28 93.501s-47.667 48.834 -87 69.501c-26 13.333 -76.667 32 -152 56c-132 41.333 -224.667 76 -278 104
c-54 28 -93.833 61.833 -119.5 101.5s-38.5 89.167 -38.5 148.5c0 41.333 5.83301 77.833 17.5 109.5s26.834 59.5 45.501 83.5c13.333 17.333 44.333 49.666 93 96.999c-30 26 -53 55.167 -69 87.5s-24 71.5 -24 117.5c0 44.667 7.5 87.334 22.5 128.001
s36 80.334 63 119.001s53.167 69.667 78.5 93c36.667 33.333 83.167 60.666 139.5 81.999s114.166 32 173.499 32c84.667 0 172.667 -22.667 264 -68c-8.66699 -42.667 -14.667 -79.667 -18 -111l-17 -189l-77 1c-2.66699 71.333 -8 124.333 -16 159
c-16 17.333 -42.5 32.833 -79.5 46.5s-78.833 20.5 -125.5 20.5c-55.333 0 -103.5 -9 -144.5 -27s-71.5 -42.5 -91.5 -73.5s-30 -61.833 -30 -92.5c0 -23.333 5.83301 -45.666 17.5 -66.999s31.167 -41.666 58.5 -60.999s67 -38.333 119 -57
c20 -7.33301 62.167 -20 126.5 -38s107.833 -31 130.5 -39c52.667 -20 96 -41.333 130 -64c25.333 -16.667 45.833 -35.667 61.5 -57s28.167 -46.666 37.5 -75.999s14 -61.333 14 -96c0 -42 -5.66699 -79.5 -17 -112.5s-26 -61.833 -44 -86.5s-46 -56.334 -84 -95.001
c31.333 -24 51.333 -41.667 60 -53c14 -16.667 25.333 -37 34 -61c11.333 -31.333 17 -66.333 17 -105c0 -55.333 -10.333 -107 -31 -155c-16 -36.667 -38 -72.334 -66 -107.001s-57.667 -64.667 -89 -90c-46 -36.667 -94.5 -64.334 -145.5 -83.001s-109.5 -28 -175.5 -28
c-69.333 0 -134.333 9 -195 27c-36 10.667 -78.667 32.334 -128 65.001zM753 276.996c16 16.667 29.832 37.667 41.499 63s17.5 51.333 17.5 78c0 24.667 -4.83301 47 -14.5 67s-25.834 40.167 -48.501 60.5s-54 39.833 -94 58.5c-27.333 12.667 -78.666 30.667 -153.999 54
s-130.666 42 -165.999 56c-24 9.33301 -40.667 15.333 -50 18c-45.333 -50.667 -68 -98.334 -68 -143.001c0 -24 7.66699 -48.667 23 -74s42.333 -49.666 81 -72.999c39.333 -23.333 115.333 -54 228 -92z" />
    <glyph glyph-name="bullet" unicode="&#x2022;" horiz-adv-x="1241" 
d="M620 1067c49.333 0 97.335 -12.667 144.002 -38s83.167 -61.5 109.5 -108.5s39.5 -95.833 39.5 -146.5s-13 -99.334 -39 -146.001s-62.167 -82.834 -108.5 -108.501s-94.833 -38.5 -145.5 -38.5s-99.334 12.833 -146.001 38.5s-82.834 61.834 -108.501 108.501
s-38.5 95.334 -38.5 146.001s13.167 99.5 39.5 146.5s63 83.167 110 108.5s94.833 38 143.5 38z" />
    <glyph glyph-name="paragraph" unicode="&#xb6;" horiz-adv-x="1313" 
d="M398 -337l0.00390625 87.9932c71.333 2.66699 113 5.33398 125 8.00098s20.333 6.33398 25 11.001s8 10.334 10 17.001c2 10 5.66699 59.333 11 148c2 30.667 3 88.334 3 173.001v571c-56 2 -101.667 7.66699 -137 17c-58.667 14.667 -114.667 36.5 -168 65.5
s-97.5 60.667 -132.5 95s-62 73 -81 116s-28.5 86.833 -28.5 131.5c0 86.667 37.667 162.5 113 227.5s177 97.5 305 97.5c18 0 50.333 -0.666992 97 -2l298 -6c23.333 -0.666992 157.666 1.33301 402.999 6v-90c-72 -1.33301 -116 -4.66602 -132 -9.99902
c-10.667 -2.66699 -18.834 -7.5 -24.501 -14.5s-9.5 -17.5 -11.5 -31.5c-2 -14.667 -5 -88 -9 -220c-2 -57.333 -3 -122.666 -3 -195.999v-750l4 -186c0.666992 -72 4 -117.667 10 -137c3.33301 -9.33301 8.16602 -16.666 14.499 -21.999s16.166 -9.5 29.499 -12.5
s54 -5.16699 122 -6.5v-88l-422 4zM572.004 1325.99c-15.333 1.33301 -27 1.99902 -35 1.99902c-30.667 0 -66.167 -10.167 -106.5 -30.5s-71.833 -49 -94.5 -86s-34 -83.167 -34 -138.5c0 -81.333 29.667 -150 89 -206c42 -39.333 102.333 -68.666 181 -87.999v547z
M758.004 -231.008h121v1557h-121v-1557z" />
    <glyph glyph-name="germandbls" unicode="&#xdf;" horiz-adv-x="1251" 
d="M63 0l0.00390625 79.002c64.667 3.33301 105 7.66602 121 12.999c8.66699 3.33301 14.667 8.66602 18 15.999c5.33301 8.66699 9 32.667 11 72c2.66699 53.333 4 100.333 4 141v434h-40c-17.333 0 -36.333 -0.5 -57 -1.5s-37.334 -1.5 -50.001 -1.5v45
c18 9.33301 45.333 26 82 50c23.333 15.333 42.666 29.333 57.999 42c0.666992 100.667 5 167.334 13 200.001c10.667 42.667 30 81.334 58 116.001s76 77.667 144 129s119.333 85 154 101c51.333 23.333 108.333 35 171 35c99.333 0 176.666 -26.333 231.999 -79
s83 -122.334 83 -209.001c0 -38 -3.5 -80 -10.5 -126s-15.833 -88.667 -26.5 -128c-14 -52.667 -22.333 -86.667 -25 -102l-26 -15c-26 15.333 -46.167 25.333 -60.5 30s-29.833 7 -46.5 7c-30.667 0 -55.334 -8.33301 -74.001 -25s-28 -36.334 -28 -59.001
c0 -16 4.83301 -31.5 14.5 -46.5s29.5 -32.833 59.5 -53.5c18 -12 55.667 -34 113 -66s96 -56 116 -72c30 -23.333 51.333 -47.666 64 -72.999s19 -59.333 19 -102c0 -52.667 -13 -102.334 -39 -149.001c-16.667 -30 -49 -67.333 -97 -112s-85.667 -74.667 -113 -90
c-41.333 -23.333 -90 -35 -146 -35c-40.667 0 -76.667 5 -108 15c-15.333 5.33301 -35 17.333 -59 36l-8 -16l-241 6zM609.004 229.002l65.0039 10.999l7 -104c21.333 -18.667 39.333 -31.334 54 -38.001c25.333 -11.333 50.666 -17 75.999 -17
c20.667 0 40.167 3.5 58.5 10.5s32.5 14.833 42.5 23.5s19.167 21.5 27.5 38.5s12.5 35.167 12.5 54.5c0 26 -10.333 52 -31 78s-62.334 57.5 -125.001 94.5s-101.334 61.5 -116.001 73.5c-30 24.667 -52.667 51.334 -68 80.001s-23 62.667 -23 102
c0 42 10.333 81.333 31 118c16 26.667 43.333 59.667 82 99s67.667 64.333 87 75c28 16.667 65.333 25 112 25c10 45.333 15 91.333 15 138c0 73.333 -21.667 132.333 -65 177s-98.333 67 -165 67c-44 0 -82.667 -9.66699 -116 -29s-58.666 -44.333 -75.999 -75
c-12.667 -23.333 -20.834 -53.5 -24.501 -90.5s-5.83398 -102.833 -6.50098 -197.5v-623c0 -81.333 1.33301 -136.666 4 -165.999c3.33301 -29.333 7.5 -47 12.5 -53s12.5 -10.333 22.5 -13c24.667 -6 54 -9 88 -9c4 14 7.33301 35 10 63z" />
    <glyph glyph-name="registered" unicode="&#xae;" horiz-adv-x="1530" 
d="M765 1423c103.333 0 200.501 -20.501 291.501 -61.501s165.167 -90.667 222.5 -149s103.333 -122.5 138 -192.5c51.333 -104 77 -212.667 77 -326c0 -80 -12.5 -156.833 -37.5 -230.5s-58.833 -139.667 -101.5 -198s-94 -110.333 -154 -156
s-127.833 -81.167 -203.5 -106.5s-153.167 -38 -232.5 -38c-106.667 0 -204.5 20.5 -293.5 61.5s-163.167 91.833 -222.5 152.5s-106.333 127.334 -141 200.001c-48 100 -72 205 -72 315c0 126.667 32.667 248.5 98 365.5s156.166 206.833 272.499 269.5
s235.833 94 358.5 94zM765.001 1310c-103.333 0 -204.169 -26.5 -302.502 -79.5s-175.166 -129 -230.499 -228s-83 -201.833 -83 -308.5c0 -93.333 20.333 -182 61 -266c29.333 -61.333 69.166 -117.666 119.499 -168.999s113 -94.333 188 -129s157.5 -52 247.5 -52
c66.667 0 132 10.833 196 32.5s121.333 51.667 172 90s94 82.166 130 131.499s64.667 105 86 167s32 127 32 195c0 106.667 -27.667 209.5 -83 308.5s-132.166 175 -230.499 228s-199.166 79.5 -302.499 79.5zM427.998 331.999l0.00195312 40.9961l14 -1
c34 -0.666992 55.333 3.16602 64 11.499s13 27.5 13 57.5v565c0 28 -2.33301 47.667 -7 59c-2.66699 6.66699 -7.83398 11.834 -15.501 15.501s-23.834 5.5 -48.501 5.5h-20v44h356c74 0 129.5 -8.66699 166.5 -26s64.167 -42.5 81.5 -75.5s26 -66.5 26 -100.5
c0 -26.667 -6 -53.167 -18 -79.5s-27.5 -47.666 -46.5 -63.999s-40.167 -29.833 -63.5 -40.5c-16.667 -6.66699 -42.334 -14.334 -77.001 -23.001c22.667 -8 39.334 -15.5 50.001 -22.5s23.667 -19.5 39 -37.5s29 -37 41 -57l32 -66c36 -78 63.333 -127 82 -147
c11.333 -12 28.333 -18 51 -18v-41h-119c-38 0 -64 7 -78 21s-42 68.333 -84 163c-27.333 62.667 -46.666 103.834 -57.999 123.501s-23.833 33.5 -37.5 41.5s-34.5 12 -62.5 12c-8 0 -23.667 -1 -47 -3v-239c0 -29.333 3.33301 -49.666 10 -60.999
c3.33301 -5.33301 9.16602 -9.16602 17.499 -11.499s28.833 -4.16602 61.5 -5.49902v-41h-323zM662 746.995c23.333 -2 41.333 -2.99902 54 -2.99902c78 0 130.167 17.167 156.5 51.5s39.5 75.833 39.5 124.5c0 50.667 -14.333 90.5 -43 119.5s-66.667 43.5 -114 43.5
c-18 0 -40 -1.66699 -66 -5c-7.33301 -0.666992 -13.333 -4.33398 -18 -11.001c-6 -9.33301 -9 -20.333 -9 -33v-287z" />
    <glyph glyph-name="copyright" unicode="&#xa9;" horiz-adv-x="1530" 
d="M765 1423c103.333 0 200.501 -20.501 291.501 -61.501s165.167 -90.667 222.5 -149s103.333 -122.5 138 -192.5c51.333 -104 77 -212.667 77 -326c0 -80 -12.5 -156.833 -37.5 -230.5s-58.833 -139.667 -101.5 -198s-94 -110.333 -154 -156
s-127.833 -81.167 -203.5 -106.5s-153.167 -38 -232.5 -38c-106.667 0 -204.5 20.5 -293.5 61.5s-163.167 91.833 -222.5 152.5s-106.333 127.334 -141 200.001c-48 100 -72 205 -72 315c0 126.667 32.667 248.5 98 365.5s156.166 206.833 272.499 269.5
s235.833 94 358.5 94zM765.001 1310c-103.333 0 -204.169 -26.5 -302.502 -79.5s-175.166 -129 -230.499 -228s-83 -201.833 -83 -308.5c0 -93.333 20.333 -182 61 -266c29.333 -61.333 69.166 -117.666 119.499 -168.999s113 -94.333 188 -129s157.5 -52 247.5 -52
c66.667 0 132 10.833 196 32.5s121.333 51.667 172 90s94 82.166 130 131.499s64.667 105 86 167s32 127 32 195c0 106.667 -27.667 209.5 -83 308.5s-132.166 175 -230.499 228s-199.166 79.5 -302.499 79.5zM1040 496.999l54.002 -23c-14 -36 -30 -63.667 -48 -83
c-32.667 -33.333 -73.667 -60.166 -123 -80.499s-104 -30.5 -164 -30.5c-128.667 0 -229 49.333 -301 148c-54 72.667 -81 157.334 -81 254.001c0 84 18.667 160.5 56 229.5s87 120.167 149 153.5s132.333 50 211 50c27.333 0 55 -2.33301 83 -7
c8 -1.33301 49 -11.666 123 -30.999c30.667 -8.66699 54.667 -16 72 -22v-218h-68c-12.667 50 -23.667 83.333 -33 100c-16.667 30.667 -39.334 55.5 -68.001 74.5s-63 28.5 -103 28.5c-78.667 0 -138.834 -32.333 -180.501 -97s-62.5 -139.334 -62.5 -224.001
c0 -74.667 13.667 -140.334 41 -197.001s60.833 -97.5 100.5 -122.5s82.5 -37.5 128.5 -37.5c31.333 0 60.833 5.5 88.5 16.5s49 23.667 64 38s35.5 41.166 61.5 80.499z" />
    <glyph glyph-name="trademark" unicode="&#x2122;" horiz-adv-x="2044" 
d="M55 1184l0.00292969 214.999h768v-215h-62c-2.66699 40 -8 68.667 -16 86s-21 30.666 -39 39.999c-26.667 13.333 -59.334 20 -98.001 20h-91v-627c0 -27.333 3 -46.166 9 -56.499s16.667 -18.5 32 -24.5c9.33301 -3.33301 37 -7.66602 83 -12.999v-54h-411v54
c55.333 4.66699 91.5 14.667 108.5 30s25.5 39.333 25.5 72v619h-92c-42.667 0 -73.834 -4.66699 -93.501 -14s-34.334 -23.333 -44.001 -42s-15.167 -48.667 -16.5 -90h-63zM1214 1399l248.998 -581.998l247 582h281v-51h-39c-28 0 -45.5 -3.66699 -52.5 -11
s-10.5 -28.666 -10.5 -63.999v-562c0 -35.333 3 -59.333 9 -72c3.33301 -7.33301 10 -13 20 -17s34.333 -8.33301 73 -13v-54h-364v54c44.667 2 73.334 8.16699 86.001 18.5s19 38.166 19 83.499v581l-303 -737h-22l-316 737v-595c0 -30.667 4.33301 -52.334 13 -65.001
c5.33301 -8 14.333 -13.667 27 -17c5.33301 -2 27 -4 65 -6v-54h-273v54c34.667 3.33301 57 6.33301 67 9c10.667 2.66699 18.334 6.33398 23.001 11.001c2.66699 3.33301 5 9.66602 7 18.999c4 19.333 6 35.666 6 48.999v595c0 22.667 -2 36.667 -6 42
c-7.33301 9.33301 -24.333 14 -51 14h-30v51h275z" />
    <glyph glyph-name="acute" unicode="&#xb4;" horiz-adv-x="682" 
d="M274 1099l-121 0.000976562l235 285c24 29.333 41 48.666 51 57.999c14 12.667 29.167 22.667 45.5 30s34.5 11 54.5 11c34.667 0 62.667 -10 84 -30s32 -44.667 32 -74c0 -19.333 -6 -37 -18 -53c-19.333 -24.667 -53 -50.667 -101 -78z" />
    <glyph glyph-name="dieresis" unicode="&#xa8;" horiz-adv-x="682" 
d="M121 1405c40 0 74.167 -14.333 102.5 -43s42.5 -63 42.5 -103s-14.167 -74.167 -42.5 -102.5s-62.5 -42.5 -102.5 -42.5s-74.167 14.167 -102.5 42.5s-42.5 62.5 -42.5 102.5c0 40.667 14.167 75.167 42.5 103.5s62.5 42.5 102.5 42.5zM561 1405
c40 0 74.167 -14.333 102.5 -43s42.5 -63 42.5 -103s-14.167 -74.167 -42.5 -102.5s-62.5 -42.5 -102.5 -42.5s-74.167 14.167 -102.5 42.5s-42.5 62.5 -42.5 102.5c0 40.667 14.167 75.167 42.5 103.5s62.5 42.5 102.5 42.5z" />
    <glyph glyph-name="notequal" unicode="&#x2260;" horiz-adv-x="1124" 
d="M322 352h-311v172h406l106 191h-512v172h607l176 317l141 -80l-131 -237h308v-172h-403l-106 -191h509v-172h-604l-179 -323l-141 81z" />
    <glyph glyph-name="AE" unicode="&#xc6;" horiz-adv-x="2048" 
d="M8 0v80.002c50.667 5.33301 80.334 9.33301 89.001 12c9.33301 2.66699 17.333 7.33398 24 14.001c12.667 11.333 32.334 39 59.001 83l128 209l315 520c80.667 133.333 140.334 237.333 179.001 312c12.667 24.667 19 40.667 19 48c0 4.66699 -1.33301 8.66699 -4 12
c-4.66699 5.33301 -11 8.66602 -19 9.99902c-2.66699 0.666992 -27.667 3.33398 -75 8.00098c-33.333 3.33301 -66.666 5.66602 -99.999 6.99902v80l524 -5c56 0 152 1.33301 288 4l276 5c48.667 0 112.667 -2.66699 192 -8c-0.666992 -4 -6.33398 -54 -17.001 -150
c-2.66699 -20.667 -6.66699 -70.667 -12 -150h-75c-8 89.333 -14.667 140.333 -20 153c-2 5.33301 -5 9 -9 11c-17.333 9.33301 -51 16.333 -101 21c-50.667 4.66699 -130 7 -238 7c-54.667 0 -99 -3 -133 -9c-4.66699 -42.667 -7.66699 -80.667 -9 -114l-3 -284v-96
c52 -1.33301 106.333 -2 163 -2c76.667 0 134.334 2 173.001 6c17.333 2 28.666 5 33.999 9c4 2.66699 7.33301 6.83398 10 12.501s5 14.834 7 27.501l11 107h83l-4 -101v-71l1 -198c0 -22.667 -0.333008 -46.334 -1 -71.001h-81c-0.666992 4 -2.33398 26.667 -5.00098 68
c-3.33301 41.333 -5.66602 64.666 -6.99902 69.999c-2 5.33301 -5.66699 10 -11 14c-6.66699 6 -14.834 10 -24.501 12s-39.834 4.33301 -90.501 7c-51.333 3.33301 -116.666 5 -195.999 5c-21.333 0 -42 -1 -62 -3v-273c0 -9.33301 1.33301 -100.666 4 -273.999
c73.333 -3.33301 128.666 -5 165.999 -5c124 0 209.167 2.33301 255.5 7s74.166 10.334 83.499 17.001c6 4 11.5 12.167 16.5 24.5s19.833 71.833 44.5 178.5h80c-8 -54.667 -13.667 -99.334 -17 -134.001c-2 -17.333 -5 -56 -9 -116
c-3.33301 -42 -5.66602 -70 -6.99902 -84c-48 -8.66699 -98 -13 -150 -13c-12 0 -82.667 1 -212 3c-82 1.33301 -170 2 -264 2c-188 0 -318.667 -1.66699 -392 -5v55c29.333 10 55 22.667 77 38c9.33301 7.33301 16.333 14.666 21 21.999s8 18 10 32
c0.666992 7.33301 2.5 39.666 5.5 96.999s4.5 95.333 4.5 114v82h-534l-30 -51c-10.667 -17.333 -32.334 -56 -65.001 -116c-32.667 -60.667 -53 -102.667 -61 -126c-2.66699 -8 -4 -15.333 -4 -22c0 -10.667 3.66699 -19.334 11 -26.001s20 -11 38 -13
c6.66699 -0.666992 44.667 -2.66699 114 -6v-80c-104 3.33301 -187.667 5 -251 5c-49.333 0 -120.333 -1.66699 -213 -5zM537 550.002h466.001v687c0 14.667 -2 25 -6 31c-3.33301 4 -7.33301 6 -12 6c-2.66699 0 -5.33398 -0.666992 -8.00098 -2
c-4.66699 -2.66699 -11 -10.334 -19 -23.001l-208 -335c-40 -63.333 -111 -184.666 -213 -363.999z" />
    <glyph glyph-name="Oslash" unicode="&#xd8;" horiz-adv-x="1706" 
d="M70 38l187.002 173.999c-47.333 60.667 -81.666 121.334 -102.999 182.001c-32 89.333 -48 187.333 -48 294c0 95.333 11.833 181.833 35.5 259.5s57.667 146.5 102 206.5s97.666 110.833 159.999 152.5s133.833 72.167 214.5 91.5c81.333 19.333 169 29 263 29
c120 0 227 -15.333 321 -46c66 -21.333 134.333 -59.333 205 -114l179 164l71 -80l-175 -163c47.333 -59.333 80.666 -116.666 99.999 -171.999c28 -81.333 42 -172.333 42 -273c0 -97.333 -12.667 -188.833 -38 -274.5s-62.833 -161.334 -112.5 -227.001
s-110.834 -120.5 -183.501 -164.5c-54.667 -33.333 -121 -59 -199 -77c-78.667 -18.667 -158.667 -28 -240 -28c-119.333 0 -215 11.5 -287 34.5s-149 65.167 -231 126.5l-189 -172zM1229 1104c-31.333 54 -61.835 94.499 -91.502 121.499s-68.667 49 -117 66
s-101.5 25.5 -159.5 25.5c-56 0 -107.333 -7.66699 -154 -23s-85.167 -35.166 -115.5 -59.499s-57.166 -54.5 -80.499 -90.5s-42.666 -79.667 -57.999 -131c-24.667 -83.333 -37 -171.666 -37 -264.999c0 -58.667 4.66699 -120.834 14 -186.501s21.333 -118.5 36 -158.5z
M511 296.998c36.667 -67.333 83.668 -119.332 141.001 -155.999s131 -55 221 -55c79.333 0 149.333 15.667 210 47c45.333 22.667 83.666 55.667 114.999 99c42 57.333 72 126.666 90 207.999s27 165.333 27 252c0 116 -14 217.667 -42 305z" />
    <glyph glyph-name="infinity" unicode="&#x221e;" horiz-adv-x="1460" 
d="M727 695c74.667 66.667 130.167 112.834 166.5 138.501s73.166 45.334 110.499 59.001s77.333 20.5 120 20.5c56.667 0 110.667 -13.5 162 -40.5s90.666 -63.5 117.999 -109.5s41 -97 41 -153c0 -54.667 -13 -107.834 -39 -159.501s-64 -91.334 -114 -119.001
s-107.333 -41.5 -172 -41.5c-63.333 0 -117.833 11.667 -163.5 35s-121.167 84.666 -226.5 183.999c-53.333 -54 -106.666 -101.333 -159.999 -142c-25.333 -19.333 -48.666 -34 -69.999 -44s-47 -18 -77 -24s-62 -9 -96 -9c-59.333 0 -113.333 13.333 -162 40
s-86 64.5 -112 113.5s-39 101.5 -39 157.5s13.667 108.333 41 157s65.833 86.5 115.5 113.5s103.5 40.5 161.5 40.5c46 0 88 -7 126 -21s76 -35 114 -63c29.333 -21.333 81 -65.666 155 -132.999zM627 601c-76.667 69.333 -122.665 109.999 -137.998 121.999
c-29.333 23.333 -55 39.5 -77 48.5s-46.667 13.5 -74 13.5c-42.667 0 -79.834 -17.167 -111.501 -51.5s-47.5 -79.166 -47.5 -134.499c0 -48.667 16 -88.834 48 -120.501s72.667 -47.5 122 -47.5c24 0 45.333 2.66699 64 8s37.667 14 57 26
c19.333 12.667 40.666 29.334 63.999 50.001zM837.002 603.999l91 -84.998c20.667 -18 43 -34.333 67 -49s45.833 -24.834 65.5 -30.501s39.5 -8.5 59.5 -8.5c43.333 0 80.833 16 112.5 48s47.5 71.667 47.5 119c0 51.333 -15.5 93 -46.5 125s-69.5 48 -115.5 48
c-32 0 -60 -6 -84 -18c-51.333 -26.667 -117 -76.334 -197 -149.001z" />
    <glyph glyph-name="plusminus" unicode="&#xb1;" horiz-adv-x="1124" 
d="M650 264h-176v381h-463v172h463v422h176v-422h462v-172h-462v-381zM11 172h1101v-172h-1101v172z" />
    <glyph glyph-name="lessequal" unicode="&#x2264;" horiz-adv-x="1124" 
d="M1108 212l-1065 480v155l1065 481v-176l-832 -381l832 -384v-175zM49 151h1059v-151h-1059v151z" />
    <glyph glyph-name="greaterequal" unicode="&#x2265;" horiz-adv-x="1124" 
d="M25 212v175l832 384l-832 381v176l1065 -481v-155zM31 0v151h1059v-151h-1059z" />
    <glyph glyph-name="yen" unicode="&#xa5;" 
d="M974 785l0.00390625 -81.998h-273c-10.667 -30 -21.334 -63.667 -32.001 -101v-97h305v-82h-305l-1 -151c-0.666992 -74 3.66602 -122 12.999 -144c6 -14 16.167 -23.833 30.5 -29.5s61.166 -9.16699 140.499 -10.5v-88c-129.333 4 -233 6 -311 6
c-74.667 0 -175.667 -2 -303 -6v88l103 3c24 2.66699 40.667 7.16699 50 13.5s16 15.833 20 28.5c7.33301 25.333 11 71.666 11 138.999v151h-307v82h307v97c-10.667 23.333 -27 57 -49 101h-258v82h221l-129 285c-17.333 38.667 -39 77.167 -65 115.5
s-46.167 62.166 -60.5 71.499s-36.833 15 -67.5 17v78l255 71c23.333 -18 41.666 -35.333 54.999 -52c18.667 -24 37.667 -55.333 57 -94c28.667 -57.333 48.667 -101 60 -131l161 -415l273 660h134v-39l-277 -567h242z" />
    <glyph glyph-name="uni00B5" unicode="&#xb5;" horiz-adv-x="1180" 
d="M173 721l-22.999 51.001c125.333 92 225.666 155.333 300.999 190c36 17.333 68.333 26 97 26c18.667 0 34 -6.66699 46 -20s18 -33.666 18 -60.999c0 -44 -16.667 -117 -50 -219c-21.333 -67.333 -39 -126.666 -53 -177.999l-55 -188c-14 -53.333 -22 -87.333 -24 -102
c-2 -11.333 -3 -20 -3 -26c0 -13.333 2.66699 -23 8 -29s13.666 -9 24.999 -9s24.333 4 39 12c28 14.667 63 44.667 105 90c60 64.667 111 132 153 202s75.667 140.667 101 212c12 34 37.333 122.333 76 265c62 8 132.667 22 212 42l21 -18c-20.667 -54 -40 -111 -58 -171
c-38.667 -126 -72 -240.5 -100 -343.5s-45.333 -175.167 -52 -216.5c-3.33301 -16.667 -5 -30.667 -5 -42c0 -12.667 2.33301 -21.834 7 -27.501s10.334 -8.5 17.001 -8.5c8 0 19.5 3.66699 34.5 11s53.5 31.666 115.5 72.999l20 -52l-192 -141
c-38.667 -26.667 -75.667 -47 -111 -61c-20.667 -8.66699 -38 -13 -52 -13c-22.667 0 -40.5 7.16699 -53.5 21.5s-19.5 35.833 -19.5 64.5c0 20 4 46.333 12 79c18 75.333 49 180.666 93 315.999c-54.667 -84.667 -107.667 -157 -159 -217
c-51.333 -60.667 -104.333 -114.667 -159 -162s-97 -78.333 -127 -93c-16.667 -8 -33.667 -12 -51 -12c-16 0 -29.667 4.5 -41 13.5s-22.333 24.167 -33 45.5c-10 -44.667 -15 -95.667 -15 -153c0 -41.333 2.5 -87 7.5 -137s7.5 -90.333 7.5 -121
c0 -58 -11.667 -100.833 -35 -128.5s-53.333 -41.5 -90 -41.5c-34 0 -61.833 11 -83.5 33s-32.5 50.667 -32.5 86c0 18 2.66699 39 8 63c4 17.333 17.667 58 41 122c36 102 63 182.333 81 241l135 470c39.333 141.333 62 229 68 263c3.33301 18 5 31 5 39
c0 10 -3 18.167 -9 24.5s-13 9.5 -21 9.5c-4.66699 0 -10.667 -1.33301 -18 -4c-12.667 -4 -29 -11.667 -49 -23z" />
    <glyph glyph-name="partialdiff" unicode="&#x2202;" horiz-adv-x="1012" 
d="M150 1395l31.9971 93.002c112.667 -7.33301 214 -26.666 304 -57.999s172.667 -79.333 248 -144c55.333 -47.333 102.833 -102.666 142.5 -165.999s68.5 -129.666 86.5 -198.999c24.667 -96.667 37 -202.334 37 -317.001c0 -98.667 -8.5 -183.334 -25.5 -254.001
s-42.833 -131.834 -77.5 -183.501s-71.167 -91.334 -109.5 -119.001s-81 -48.334 -128 -62.001s-100.5 -20.5 -160.5 -20.5c-115.333 0 -208.666 21.667 -279.999 65s-122.333 102.5 -153 177.5s-46 151.5 -46 229.5c0 98 18.833 187 56.5 267s90.334 139.833 158.001 179.5
s142.834 59.5 225.501 59.5c49.333 0 92.5 -7 129.5 -21s73.833 -36.667 110.5 -68c-8 68 -18.667 121.333 -32 160c-18 54.667 -44.5 105.667 -79.5 153s-76.333 87.5 -124 120.5s-98.167 58.167 -151.5 75.5c-40.667 13.333 -95 24 -163 32zM299.997 480.002
c0 -160.667 23.667 -273.666 71 -338.999c36 -50 86 -75 150 -75c59.333 0 104 21.667 134 65c43.333 61.333 65 167.666 65 318.999c0 155.333 -22 263 -66 323c-34 46 -84.333 69 -151 69c-56.667 0 -101 -22 -133 -66c-46.667 -63.333 -70 -162 -70 -296z" />
    <glyph glyph-name="summation" unicode="&#x2211;" horiz-adv-x="1460" 
d="M629 551l-521 836.001v32h1199c-17.333 -102.667 -26.333 -209.334 -27 -320.001h-62c-0.666992 42.667 -3.5 74.834 -8.5 96.501s-12.167 38.167 -21.5 49.5s-22 20.166 -38 26.499s-41 10.5 -75 12.5c-56.667 2.66699 -93.667 4 -111 4h-543l397 -656l-474 -822h646
c106 0 173 11.333 201 34s50.333 79 67 169h80c-7.33301 -50 -13 -100 -17 -150s-7.66699 -131.333 -11 -244h-1202v24z" />
    <glyph glyph-name="product" unicode="&#x220f;" horiz-adv-x="1686" 
d="M533 1311l0.00195312 -1218c0 -80.667 1.66699 -162.667 5 -246c2 -52.667 6 -86 12 -100c3.33301 -6.66699 8.66602 -12.5 15.999 -17.5s18.166 -8.5 32.499 -10.5s51.166 -3.66699 110.499 -5v-88c-108 4.66699 -217.667 7 -329 7c-100 0 -191.667 -2.33301 -275 -7v88
c72.667 2.66699 115.334 5.33398 128.001 8.00098c12.667 3.33301 21.5 8.16602 26.5 14.499s9.16699 28.5 12.5 66.5c5.33301 66 8 162.667 8 290v840c0 38.667 -1.33301 114 -4 226c-1.33301 62 -5.33301 101.333 -12 118c-2.66699 6.66699 -7.66699 12.5 -15 17.5
s-18.166 8.66699 -32.499 11s-51.5 4.16602 -111.5 5.49902v88h1557v-88c-62 -1.33301 -100.167 -3.33301 -114.5 -6s-24.833 -6.5 -31.5 -11.5s-11.334 -11.833 -14.001 -20.5c-7.33301 -20.667 -11.333 -67 -12 -139l-3 -201v-840c0 -101.333 0.666992 -166 2 -194
c5.33301 -86.667 9.33301 -136 12 -148c2 -7.33301 5.16699 -13.166 9.5 -17.499s12.333 -8 24 -11s54.167 -5.83301 127.5 -8.5v-88c-83.333 4.66699 -175.666 7 -276.999 7c-110 0 -219 -2.33301 -327 -7v88c62.667 2 101.167 4.16699 115.5 6.5s24.666 6 30.999 11
s11.166 12.167 14.499 21.5c6.66699 20 10.334 67 11.001 141l4 199v1218h-701z" />
    <glyph glyph-name="pi" unicode="&#x3c0;" horiz-adv-x="1124" 
d="M32 680l142.999 270.999c16.667 -1.33301 57 -2.83301 121 -4.5s112.333 -2.5 145 -2.5h260c81.333 0 151 2.33301 209 7c34 2.66699 64 10.334 90 23.001c16 8 30 19.667 42 35l48 -34l-117 -265l-115 4v-107c0 -33.333 1.66699 -118 5 -254
c2 -90.667 8 -143.334 18 -158.001c4.66699 -7.33301 10.667 -11 18 -11c9.33301 0 18.666 3.66699 27.999 11c19.333 16 46 46.333 80 91l43 -54c-27.333 -39.333 -64.166 -86 -110.499 -140s-83.5 -89 -111.5 -105c-19.333 -12 -39.333 -18 -60 -18
c-18 0 -35 4.66699 -51 14s-29.333 22 -40 38c-14 21.333 -24.5 47.5 -31.5 78.5s-11.5 62.833 -13.5 95.5c-4 77.333 -6 154 -6 230v289h-242v-116c0 -104.667 -4.33301 -203.667 -13 -297c-5.33301 -57.333 -13.333 -109 -24 -155s-24 -80.833 -40 -104.5
s-34.333 -41.167 -55 -52.5s-43.667 -17 -69 -17c-12.667 0 -24.167 1.66699 -34.5 5s-25.166 10.333 -44.499 21l-64 234l58 22l21 -56c10.667 -11.333 24 -17 40 -17c16.667 0 32.5 5.66699 47.5 17s27.5 32.333 37.5 63c13.333 40.667 22 90.334 26 149.001l11 188l5 116
c-50.667 -0.666992 -85.167 -2.5 -103.5 -5.5s-33.333 -8.16699 -45 -15.5s-28.167 -23 -49.5 -47z" />
    <glyph glyph-name="integral" unicode="&#x222b;" horiz-adv-x="561" 
d="M171 345l-13.999 396c-4 104 -6 190.667 -6 260c0 86 6 165.167 18 237.5s30.333 134 55 185s53.667 94.833 87 131.5s73.833 66.5 121.5 89.5s98.5 34.5 152.5 34.5c52.667 0 93.667 -13.833 123 -41.5s44 -62.5 44 -104.5c0 -37.333 -11.333 -68.166 -34 -92.499
s-51 -36.5 -85 -36.5c-23.333 0 -43.333 4.5 -60 13.5s-30 20.167 -40 33.5c-4.66699 6 -11.334 21 -20.001 45s-15.667 38.333 -21 43s-11.333 7 -18 7c-22 0 -41 -14 -57 -42c-24 -43.333 -36 -139.333 -36 -288c0 -52 1.66699 -121.333 5 -208l16 -424
c3.33301 -78.667 5 -193 5 -343c0 -105.333 -7.5 -197.833 -22.5 -277.5s-38.667 -149.834 -71 -210.501s-66 -106.167 -101 -136.5s-72.5 -52.5 -112.5 -66.5s-80 -21 -120 -21c-55.333 0 -97.666 13.5 -126.999 40.5s-44 60.5 -44 100.5c0 36 11.5 65.5 34.5 88.5
s52.833 34.5 89.5 34.5c24 0 44 -4.83301 60 -14.5s28 -20.834 36 -33.501c5.33301 -8.66699 12.666 -28.334 21.999 -59.001c4 -13.333 9.66699 -23 17 -29c4.66699 -4.66699 10 -7 16 -7c12 0 24 4.83301 36 14.5s22 24.834 30 45.501s14.333 58.334 19 113.001
c6 72.667 9 139 9 199c0 102 -2.33301 209.667 -7 323z" />
    <glyph glyph-name="ordfeminine" unicode="&#xaa;" horiz-adv-x="897" 
d="M747 833v-48l-123 5l-119 -5l-7 12l7 78l-124 -90c-17.333 -12 -39.666 -18 -66.999 -18c-49.333 0 -86.666 10.333 -111.999 31c-34 28.667 -51 69.667 -51 123c0 40 7.66699 71.5 23 94.5s39.666 41.833 72.999 56.5c46.667 20 94 34.333 142 43l116 20
c-2 46 -14.333 81.833 -37 107.5s-57.334 38.5 -104.001 38.5c-20 0 -35.333 -1 -46 -3c-6.66699 -1.33301 -17 -5.33301 -31 -12l-29 -66l-45 11v81l155 78c15.333 7.33301 44 11 86 11c36 0 68.5 -5.16699 97.5 -15.5s52.167 -23.833 69.5 -40.5s29.833 -33 37.5 -49
s11.5 -41.333 11.5 -76v-292c0 -35.333 3.83301 -56 11.5 -62s29.5 -10.333 65.5 -13zM505 1080l-68 -15.001c-45.333 -10 -78 -25.333 -98 -46c-14 -15.333 -21 -38 -21 -68c0 -18 3.66699 -32.5 11 -43.5s16.833 -18.833 28.5 -23.5s21.5 -7 29.5 -7
c16 0 34.333 4.33301 55 13s41.667 23.334 63 44.001v146z" />
    <glyph glyph-name="ordmasculine" unicode="&#xba;" horiz-adv-x="999" 
d="M174 1071c0 97.333 28.167 173.333 84.5 228s138.5 82 246.5 82s188.333 -25.667 241 -77s79 -124.333 79 -219c0 -67.333 -13.667 -125 -41 -173s-68.5 -83.833 -123.5 -107.5s-114.5 -35.5 -178.5 -35.5c-99.333 0 -175.5 26.167 -228.5 78.5
s-79.5 126.833 -79.5 223.5zM361 1103c0 -94 12.998 -163.002 38.998 -207.002s63 -66 111 -66c38.667 0 69.834 14.833 93.501 44.5s35.5 83.167 35.5 160.5c0 74.667 -6.83301 132.834 -20.5 174.501s-31.167 70.167 -52.5 85.5s-45.333 23 -72 23
c-27.333 0 -51.666 -6.83301 -72.999 -20.5s-36.833 -33.667 -46.5 -60s-14.5 -71.166 -14.5 -134.499z" />
    <glyph glyph-name="Omega" unicode="&#x3a9;" horiz-adv-x="1573" 
d="M659 383l0.00195312 -383.004c-98.667 4.66699 -184.334 7 -257.001 7c-66.667 0 -176.667 -2.33301 -330 -7c-0.666992 72 -5.66699 191.333 -15 358h83l12 -70c2.66699 -8.66699 6 -15.167 10 -19.5s11 -7.83301 21 -10.5
c17.333 -4.66699 61.166 -9.33398 131.499 -14.001s147.166 -7.66699 230.499 -9v70c-70 10 -130.667 25.333 -182 46c-71.333 30 -130.333 68.5 -177 115.5s-83 102.833 -109 167.5s-39 136.667 -39 216c0 100.667 22 191.334 66 272.001
c32.667 59.333 77.334 110.833 134.001 154.5s120.334 78.834 191.001 105.501c114.667 44 234 66 358 66c129.333 0 252.666 -23.667 369.999 -71c76 -30 142.667 -69.333 200 -118s101.5 -107.667 132.5 -177s46.5 -146.666 46.5 -231.999
c0 -86 -15.667 -164.167 -47 -234.5s-72.333 -126.833 -123 -169.5s-107.334 -76.334 -170.001 -101.001c-47.333 -17.333 -103.333 -30.666 -168 -39.999v-70c107.333 2 203 6.33301 287 13c54 4 85.667 10.333 95 19c8 6 13.333 20 16 42
c0.666992 8.66699 3.33398 25 8.00098 49h83c-10 -168 -15 -287.333 -15 -358c-153.333 4.66699 -263.333 7 -330 7c-78 0 -163.667 -2.33301 -257 -7v383c50 10 88 22.667 114 38c40 23.333 74 54 102 92s49.833 85.833 65.5 143.5s23.5 122.834 23.5 195.501
c0 115.333 -19.5 208 -58.5 278s-92.667 121 -161 153s-139.5 48 -213.5 48s-140.167 -13.667 -198.5 -41s-104 -61.166 -137 -101.499s-57.5 -89.5 -73.5 -147.5s-24 -120.333 -24 -187c0 -77.333 8.5 -145.833 25.5 -205.5s40.667 -108.167 71 -145.5
s64.833 -66.333 103.5 -87c24 -12.667 59 -23.667 105 -33z" />
    <glyph glyph-name="ae" unicode="&#xe6;" horiz-adv-x="1593" 
d="M710 164c-27.333 -16.667 -55.999 -35.834 -85.999 -57.501s-75.667 -57.5 -137 -107.5c-40.667 -20.667 -86 -31 -136 -31c-78 0 -139.833 22.5 -185.5 67.5s-68.5 104.5 -68.5 178.5c0 52.667 13 102.334 39 149.001c16.667 30 34.334 52 53.001 66
c28.667 21.333 87.667 44.333 177 69c69.333 19.333 165 39 287 59c1.33301 12.667 2 22.334 2 29.001c0 36.667 -6.33301 72.5 -19 107.5s-35.334 63.833 -68.001 86.5s-74.667 34 -126 34c-27.333 0 -52 -2.83301 -74 -8.5s-47.333 -16.167 -76 -31.5
c-8 -17.333 -15.667 -38 -23 -62c-4 -13.333 -7 -23 -9 -29l-68 11l-5 127l143 81c26 14.667 54.333 29.667 85 45c39.333 12 87.333 18 144 18s107.167 -8.83301 151.5 -26.5s84.166 -45.5 119.499 -83.5c76.667 73.333 173 110 289 110c76 0 143.5 -15.667 202.5 -47
s104.167 -76.333 135.5 -135s47 -135 47 -229c0 -18 -2 -35.667 -6 -53l-140 -31c-52.667 -4 -115.334 -6 -188.001 -6c-97.333 0 -151.333 -0.5 -162 -1.5s-22.667 -1.5 -36 -1.5l-72 1c1.33301 -74.667 14.333 -136.334 39 -185.001s63.167 -88.167 115.5 -118.5
s108.5 -45.5 168.5 -45.5c36 0 73.333 5.83301 112 17.5s74.667 28.5 108 50.5l24 -27c-24.667 -44 -42.667 -79.333 -54 -106c-94 -54 -197.333 -81 -310 -81c-91.333 0 -170.166 16.667 -236.499 50s-118.5 82.333 -156.5 147zM901.001 567
c67.333 -6 141.337 -9.00195 222.004 -9.00195c42 0 80.667 2 116 6c0.666992 12.667 1 22.334 1 29.001c0 32 -4.33301 66.833 -13 104.5s-18.834 66.167 -30.501 85.5s-28.334 35.666 -50.001 48.999s-47.167 20 -76.5 20c-26.667 0 -50.834 -6 -72.501 -18
s-38.834 -27.333 -51.501 -46s-23.667 -47.667 -33 -87s-14 -73.666 -14 -102.999c0 -7.33301 0.666992 -17.666 2 -30.999zM654.005 461.998c-40.667 -0.666992 -91.998 -10.666 -153.998 -29.999c-39.333 -12 -67.833 -24.667 -85.5 -38s-31.834 -32 -42.501 -56
s-16 -49.667 -16 -77c0 -34.667 11.667 -63.334 35 -86.001s54 -34 92 -34c59.333 0 113.666 29.333 162.999 88c4.66699 19.333 7 48.333 7 87z" />
    <glyph glyph-name="oslash" unicode="&#xf8;" horiz-adv-x="1139" 
d="M97 -52l-59.002 55.998l128 129c-27.333 41.333 -47 82.666 -59 123.999c-19.333 66 -29 137.667 -29 215c0 93.333 11.667 169.833 35 229.5s58 110.334 104 152.001s99 71.834 159 90.501s127 28 201 28c79.333 0 150 -10.333 212 -31c40 -14 79 -36 117 -66l115 114
l56 -56l-114 -117c26.667 -36 45.334 -71.667 56.001 -107c20 -62.667 30 -133 30 -211c0 -71.333 -7.5 -135.666 -22.5 -192.999s-36.833 -106.5 -65.5 -147.5s-60.667 -74.667 -96 -101s-74.666 -46.5 -117.999 -60.5c-62 -20.667 -130 -31 -204 -31
c-78 0 -146.667 11 -206 33c-38.667 14 -77.667 38 -117 72zM750.998 710.998c-4 49.333 -22.834 88.999 -56.501 118.999s-80.5 45 -140.5 45c-30 0 -58.167 -5.16699 -84.5 -15.5s-48.166 -26.5 -65.499 -48.5c-24 -30 -40 -66.833 -48 -110.5s-12 -106.5 -12 -188.5
c0 -75.333 5 -135.666 15 -180.999zM372.997 240.997c6.66699 -56 27.5 -99.5 62.5 -130.5s80.5 -46.5 136.5 -46.5c54.667 0 97.667 13.5 129 40.5s53 66.5 65 118.5c8.66699 37.333 13 113.333 13 228c0 71.333 -3.33301 126 -10 164z" />
    <glyph glyph-name="questiondown" unicode="&#xbf;" horiz-adv-x="909" 
d="M514 965c43.333 0 80.002 -15 110.002 -45s45 -66.667 45 -110s-15.167 -80.166 -45.5 -110.499s-66.833 -45.5 -109.5 -45.5s-79.334 15.167 -110.001 45.5s-46 67.166 -46 110.499c0 42.667 15.167 79.167 45.5 109.5s67.166 45.5 110.499 45.5zM548.002 554
c16 -18 29.167 -40.5 39.5 -67.5s15.5 -53.833 15.5 -80.5c0 -33.333 -7 -66.333 -21 -99s-40.667 -72.667 -80 -120l-55 -66c-67.333 -81.333 -101 -154.333 -101 -219c0 -48.667 17.5 -89.334 52.5 -122.001s82.167 -49 141.5 -49c67.333 0 117 17 149 51
c22 36.667 43 83.667 63 141l74 -12c-2.66699 -12 -11 -42.667 -25 -92l-30 -108c-4.66699 -22.667 -9 -49 -13 -79c-38 -32.667 -84 -57.167 -138 -73.5s-111.333 -24.5 -172 -24.5c-126.667 0 -221 31.833 -283 95.5s-93 136.5 -93 218.5c0 58 14.333 112.5 43 163.5
s75.667 101.833 141 152.5l69 53c70 54.667 119.333 102.334 148 143.001c20.667 28.667 31 55 31 79c0 21.333 -7.66699 50 -23 86z" />
    <glyph glyph-name="exclamdown" unicode="&#xa1;" horiz-adv-x="569" 
d="M291 968c44 0 81.001 -15.167 111.001 -45.5s45 -67.166 45 -110.499s-15.167 -80.166 -45.5 -110.499s-67.166 -45.5 -110.499 -45.5c-42.667 0 -79.334 15.167 -110.001 45.5s-46 67.166 -46 110.499s15.167 80.166 45.5 110.499s67.166 45.5 110.499 45.5z
M335.001 525c5.33301 -27.333 10.667 -68.666 16 -123.999c12 -110.667 23.667 -204.334 35 -281.001l34 -224c7.33301 -54.667 13.333 -109.334 18 -164.001c2.66699 -28 4 -51.333 4 -70c0 -10.667 -0.666992 -22.667 -2 -36c-17.333 -10 -34.333 -18.667 -51 -26
l-153 -65l-103 1c-1.33301 16.667 -2 30.334 -2 41.001c0 46 7.33301 121 22 225l47 333l50 356l76 41z" />
    <glyph glyph-name="logicalnot" unicode="&#xac;" horiz-adv-x="1241" 
d="M969 242v407h-875v179h1053v-586h-178z" />
    <glyph glyph-name="radical" unicode="&#x221a;" horiz-adv-x="1124" 
d="M944 1862l154 -18l-303 -1922h-120l-485 1002l-172 -89l-46 92l392 199l346 -722z" />
    <glyph glyph-name="florin" unicode="&#x192;" 
d="M33 -505c9.33301 34.667 16.6641 94.0029 21.9971 178.003l29 20c16.667 -20 31.5 -33.5 44.5 -40.5s28.167 -10.5 45.5 -10.5c19.333 0 36.333 4.33301 51 13s26.334 20.667 35.001 36c13.333 24.667 19.666 35 18.999 31l79 545l70 459c-32 0 -62.667 -0.666992 -92 -2
l-130 -4c0.666992 7.33301 9.33398 51.333 26.001 132h15l133 -3h73l40 175c18.667 62.667 44.167 121.167 76.5 175.5s66.5 97.166 102.5 128.499s76.5 55 121.5 71s93.833 24 146.5 24c17.333 0 36.666 -1.33301 57.999 -4l-2 -12
c-6.66699 -48.667 -11.334 -90 -14.001 -124l-4 -46l-20 -13c-24 23.333 -38.667 36.333 -44 39c-12.667 6 -28.667 9 -48 9c-34 0 -60.667 -8.5 -80 -25.5s-33 -44.833 -41 -83.5c-5.33301 -26 -10 -77.333 -14 -154c-1.33301 -36.667 -2.66602 -61.334 -3.99902 -74.001
s-5.33301 -41.667 -12 -87c102.667 1.33301 174.667 4.66602 216 9.99902c-4.66699 -33.333 -12.334 -81 -23.001 -143c-20 3.33301 -49.667 6.33301 -89 9s-68 4 -86 4c-7.33301 0 -18.666 -0.333008 -33.999 -1c-18.667 -94 -49.667 -264.667 -93 -512
c-34 -194.667 -67.333 -331.667 -100 -411c-33.333 -80 -71.666 -142.333 -114.999 -187s-86.666 -76.5 -129.999 -95.5s-103.666 -28.5 -180.999 -28.5c-14 0 -29.667 0.666992 -47 2z" />
    <glyph glyph-name="approxequal" unicode="&#x2248;" horiz-adv-x="1124" 
d="M100 645l-85.002 95c64 79.333 116.667 132.333 158 159s83.333 40 126 40c51.333 0 110.333 -11.333 177 -34l203 -69c48 -16 78 -25.333 90 -28c17.333 -3.33301 35 -5 53 -5c36.667 0 70.334 9.5 101.001 28.5s66.334 55.833 107.001 110.5l79 -90
c-44 -70 -90.667 -120.833 -140 -152.5s-93 -47.5 -131 -47.5c-38.667 0 -96 12.667 -172 38l-201 66c-44.667 15.333 -77 25 -97 29c-20.667 4 -40 6 -58 6c-22 0 -44.167 -5 -66.5 -15s-42.833 -23.667 -61.5 -41s-46 -47.333 -82 -90zM1030 601l79 -89.999
c-44.667 -70 -91.5 -120.833 -140.5 -152.5s-93.167 -47.5 -132.5 -47.5c-36.667 0 -93.334 12.667 -170.001 38l-201 67c-45.333 14.667 -78 24 -98 28s-38.667 6 -56 6c-22.667 0 -45 -4.83301 -67 -14.5s-42.5 -23.334 -61.5 -41.001s-46.5 -47.834 -82.5 -90.501l-85 95
c63.333 78.667 116.333 131.834 159 159.501s85.334 41.5 128.001 41.5c45.333 0 103.333 -12 174 -36l203 -68c48 -16.667 78 -26 90 -28c17.333 -4 34.666 -6 51.999 -6c37.333 0 71.333 9.5 102 28.5s66.334 55.833 107.001 110.5z" />
    <glyph glyph-name="uni2206" unicode="&#x394;" horiz-adv-x="1253" 
d="M2 0l187 477l171 457l184 489h138l250 -638l146 -371l67 -163l107 -251c-274 4.66699 -464 7 -570 7c-92.667 0 -187.667 -0.333008 -285 -1zM183 145h707l-361 917z" />
    <glyph glyph-name="uni2206" unicode="&#x2206;" horiz-adv-x="1253" 
d="M2 0l187 477l171 457l184 489h138l250 -638l146 -371l67 -163l107 -251c-274 4.66699 -464 7 -570 7c-92.667 0 -187.667 -0.333008 -285 -1zM183 145h707l-361 917z" />
    <glyph glyph-name="guillemotleft" unicode="&#xab;" 
d="M88 471v51c56 46.667 120.333 106 193 178c94 94 161 158.333 201 193l54 -41c-16.667 -24 -91 -141.667 -223 -353l221 -368l-55 -40l-270 267zM515 471l1 51c55.333 46.667 119.333 106 192 178c94.667 94 162 158.333 202 193l53 -41c-16 -24 -90 -141.667 -222 -353
l221 -368l-56 -40l-268 266z" />
    <glyph glyph-name="guillemotright" unicode="&#xbb;" 
d="M945 512v-51c-56.667 -46.667 -121 -106 -193 -178c-94.667 -94 -161.667 -158 -201 -192l-54 40l105 165l118 188l-221 368l55 41l263 -261zM496 513v-49l-181.5 -185l-170.5 -187l-55 38c8 17.333 17.333 35.333 28 54l88 155l81 146l-121 229l-77 138l55 41
c36 -42 94.333 -106.333 175 -193z" />
    <glyph glyph-name="ellipsis" unicode="&#x2026;" horiz-adv-x="2048" 
d="M356 290c43.333 0 80.166 -15.167 110.499 -45.5s45.5 -67.166 45.5 -110.499s-15.167 -80.333 -45.5 -111s-67.166 -46 -110.499 -46s-80.333 15.333 -111 46s-46 67.667 -46 111s15.167 80.166 45.5 110.499s67.5 45.5 111.5 45.5zM1693 290
c43.333 0 80.333 -15.167 111 -45.5s46 -67.166 46 -110.499s-15.333 -80.333 -46 -111s-67.667 -46 -111 -46s-80.333 15.333 -111 46s-46 67.667 -46 111s15.167 80.166 45.5 110.499s67.5 45.5 111.5 45.5zM1024 290c44 0 81.167 -15.167 111.5 -45.5
s45.5 -67.166 45.5 -110.499s-15.333 -80.333 -46 -111s-67.667 -46 -111 -46s-80.166 15.333 -110.499 46s-45.5 67.667 -45.5 111s15.167 80.166 45.5 110.499s67.166 45.5 110.499 45.5z" />
    <glyph glyph-name="uni00A0" unicode="&#xa0;" horiz-adv-x="512" 
 />
    <glyph glyph-name="Agrave" unicode="&#xc0;" horiz-adv-x="1593" 
d="M49 0l-0.000976562 83c55.333 4 88.666 7.83301 99.999 11.5s21.333 10.167 30 19.5s25.334 42.666 50.001 99.999c36.667 82.667 81.334 189.667 134.001 321l261 644l88 227h142l447 -1044l69 -154c23.333 -54 38.333 -85.167 45 -93.5s14 -14.166 22 -17.499
c8.66699 -4 30 -7.33301 64 -10c10 -0.666992 24.667 -2 44 -4v-83l-278 6l-351 -6v83c74 3.33301 117.833 7.16602 131.5 11.499s20.5 14.5 20.5 30.5c0 16.667 -7.66699 44 -23 82l-86 220h-514l-44 -120c-33.333 -91.333 -50 -148.666 -50 -171.999
c0 -16 5.33301 -27.333 16 -34c16 -9.33301 63.667 -15.333 143 -18v-83l-231 6zM490.999 541c62 -2 133 -3 213 -3c78 0 146.667 1 206 3l-214 516zM826.999 1495l-263 149c-48 27.333 -81 53 -99 77c-12.667 16.667 -19 35 -19 55c0 28.667 10.667 53 32 73s50 30 86 30
c18 0 34.667 -3.16699 50 -9.5s31 -16.833 47 -31.5c10.667 -8.66699 28 -28 52 -58l235 -285h-121z" />
    <glyph glyph-name="Atilde" unicode="&#xc3;" horiz-adv-x="1593" 
d="M49 0l-0.000976562 83c55.333 4 88.666 7.83301 99.999 11.5s21.333 10.167 30 19.5s25.334 42.666 50.001 99.999c36.667 82.667 81.334 189.667 134.001 321l261 644l88 227h142l447 -1044l69 -154c23.333 -54 38.333 -85.167 45 -93.5s14 -14.166 22 -17.499
c8.66699 -4 30 -7.33301 64 -10c10 -0.666992 24.667 -2 44 -4v-83l-278 6l-351 -6v83c74 3.33301 117.833 7.16602 131.5 11.499s20.5 14.5 20.5 30.5c0 16.667 -7.66699 44 -23 82l-86 220h-514l-44 -120c-33.333 -91.333 -50 -148.666 -50 -171.999
c0 -16 5.33301 -27.333 16 -34c16 -9.33301 63.667 -15.333 143 -18v-83l-231 6zM490.999 541c62 -2 133 -3 213 -3c78 0 146.667 1 206 3l-214 516zM489.999 1540l-95.999 0.00195312c22.667 99.333 55.5 169.833 98.5 211.5s91.5 62.5 145.5 62.5
c51.333 0 117.666 -18.333 198.999 -55c51.333 -22.667 87.333 -37.334 108 -44.001c11.333 -3.33301 22.666 -5 33.999 -5c19.333 0 35.333 5.66699 48 17c17.333 14.667 33.666 42 48.999 82h98c-25.333 -102.667 -59.333 -174.334 -102 -215.001s-91.667 -61 -147 -61
c-28 0 -55.167 3.5 -81.5 10.5s-64.166 21.833 -113.499 44.5s-82.166 36.5 -98.499 41.5s-30.5 7.5 -42.5 7.5c-19.333 0 -37.333 -7.16699 -54 -21.5s-31.667 -39.5 -45 -75.5z" />
    <glyph glyph-name="Otilde" unicode="&#xd5;" horiz-adv-x="1706" 
d="M108 683c0 122 18.332 228.336 54.999 319.003s89.5 167.667 158.5 231s143.5 108.666 223.5 135.999c103.333 36 216.333 54 339 54c108.667 0 207.834 -13.667 297.501 -41s167 -69.5 232 -126.5s114.167 -121.167 147.5 -192.5c43.333 -91.333 65 -200 65 -326
c0 -92.667 -12.5 -182.5 -37.5 -269.5s-63 -164 -114 -231s-109.667 -120 -176 -159s-138.833 -67.5 -217.5 -85.5s-159 -27 -241 -27c-114 0 -215.333 15.5 -304 46.5s-166.667 79.167 -234 144.5s-116.5 142.166 -147.5 230.499s-46.5 187.166 -46.5 296.499z
M415.999 742.003c0 -101.333 10.333 -195.999 31 -283.999c14 -59.333 34.333 -113.166 61 -161.499s57.167 -88.5 91.5 -120.5s74.166 -56.333 119.499 -73s99 -25 161 -25c50 0 96.833 7.16699 140.5 21.5s80.834 33.333 111.501 57s59 55.5 85 95.5s47.333 89 64 147
c24.667 87.333 37 183.666 37 288.999c0 91.333 -10 175.833 -30 253.5s-49.167 144 -87.5 199s-83.333 96.833 -135 125.5s-120.167 43 -205.5 43c-71.333 0 -134.333 -12 -189 -36s-101 -59.833 -139 -107.5s-66.833 -108.834 -86.5 -183.501s-29.5 -154.667 -29.5 -240z
M560.999 1533l-95.999 0.00195312c22.667 99.333 55.5 169.833 98.5 211.5s91.5 62.5 145.5 62.5c51.333 0 117.666 -18.333 198.999 -55c51.333 -22.667 87.333 -37.334 108 -44.001c11.333 -3.33301 22.666 -5 33.999 -5c19.333 0 35.333 5.66699 48 17
c17.333 14.667 33.666 42 48.999 82h98c-25.333 -102.667 -59.333 -174.334 -102 -215.001s-91.667 -61 -147 -61c-28 0 -55.167 3.5 -81.5 10.5s-64.166 21.833 -113.499 44.5s-82.166 36.5 -98.499 41.5s-30.5 7.5 -42.5 7.5c-19.333 0 -37.333 -7.16699 -54 -21.5
s-31.667 -39.5 -45 -75.5z" />
    <glyph glyph-name="OE" unicode="&#x152;" horiz-adv-x="2048" 
d="M1945 9c-40 -6 -110.998 -9.00195 -212.998 -9.00195c-39.333 0 -116.666 1.66699 -231.999 5c-74.667 2.66699 -136.334 4 -185.001 4c-52.667 0 -96.5 -1.16699 -131.5 -3.5s-96.833 -8.16602 -185.5 -17.499c-89.333 -10 -167 -15 -233 -15
c-92.667 0 -180.667 15 -264 45c-62 22.667 -116.833 53.5 -164.5 92.5s-89.334 85.333 -125.001 139s-63.5 111.834 -83.5 174.501c-28 89.333 -42 189 -42 299c0 117.333 16.667 220.166 50 308.499s85.333 162.5 156 222.5s147.167 103.167 229.5 129.5
s181.833 39.5 298.5 39.5c43.333 0 83.333 -1 120 -3c20 -2 60.667 -6.83301 122 -14.5s99 -11.834 113 -12.501c29.333 -2 63.666 -3 102.999 -3c38.667 0 135.334 1.66699 290.001 5c107.333 2.66699 187 4 239 4c54.667 0 101.667 -1.66699 141 -5l14 -12l-17 -132
c0 -2 -1.66699 -26.333 -5 -73l-6 -87h-76c-2.66699 22.667 -4.66699 52.5 -6 89.5s-4.66602 59 -9.99902 66s-22.333 13.833 -51 20.5c-50.667 10.667 -132.334 16 -245.001 16c-60 0 -117.333 -2 -172 -6c-2.66699 -39.333 -4.33398 -99.666 -5.00098 -180.999l-3 -264
c0 -11.333 0.333008 -27.666 1 -48.999c50.667 -1.33301 105 -2 163 -2c53.333 0 103.333 2 150 6c16 1.33301 26.333 3.33301 31 6c3.33301 2 6 5 8 9c2.66699 5.33301 5 15.666 7 30.999l12 109h84l-2 -25c0 -4 -0.333008 -44 -1 -120l-3 -300h-85
c-1.33301 86.667 -5.66602 136.334 -12.999 149.001c-4.66699 8 -19 14 -43 18c-36.667 7.33301 -110.667 11 -222 11c-36 0 -64.667 -1.66699 -86 -5c-1.33301 -26.667 -2 -41.334 -2 -44.001c0 -125.333 1.66699 -259.333 5 -402c0.666992 -33.333 2 -65 4 -95
c77.333 -6.66699 137 -10 179 -10c34.667 0 87.334 2 158.001 6c48 2.66699 81.333 6.33398 100 11.001c13.333 3.33301 27.666 9.66602 42.999 18.999c9.33301 22.667 16.666 51.334 21.999 86.001c8 48.667 14 83 18 103h83l-20 -250c-1.33301 -22.667 -2 -41 -2 -55v-18z
M1081 1221c-29.333 29.333 -67.334 51.502 -114.001 66.502s-97.667 22.5 -153 22.5c-77.333 0 -145.333 -15.333 -204 -46c-39.333 -20.667 -73.666 -49.667 -102.999 -87c-39.333 -50.667 -68.333 -112.167 -87 -184.5s-28 -153.5 -28 -243.5
c0 -130.667 17 -247.334 51 -350.001s83.667 -180.5 149 -233.5s146.333 -79.5 243 -79.5c54 0 103 5.83301 147 17.5s77 26.5 99 44.5c2.66699 30 4.66699 73.333 6 130c2.66699 130.667 4 242 4 334l-1 193c0 35.333 -0.333008 70.666 -1 105.999z" />
    <glyph glyph-name="oe" unicode="&#x153;" horiz-adv-x="1706" 
d="M1614 158l-47.9951 -98.998c-54.667 -32.667 -107.834 -55.834 -159.501 -69.501s-105.834 -20.5 -162.501 -20.5c-147.333 0 -257.333 43.333 -330 130c-40 -36 -71.667 -61 -95 -75c-31.333 -18.667 -63.666 -32.334 -96.999 -41.001c-46 -12 -99.667 -18 -161 -18
c-104 0 -189.5 18.333 -256.5 55s-119.5 94.5 -157.5 173.5s-57 172.167 -57 279.5c0 154.667 43.833 275.334 131.5 362.001s212.167 130 373.5 130c81.333 0 149.333 -10.333 204 -31s103 -50.667 145 -90c49.333 43.333 98 74.333 146 93s103.333 28 166 28
c83.333 0 154.166 -16.833 212.499 -50.5s100.5 -80.5 126.5 -140.5s39 -130 39 -210c0 -20.667 -1.66699 -43 -5 -67l-117 -22c-26 -4.66699 -75.667 -7.33398 -149 -8.00098l-287 -6h-42c3.33301 -108 34.666 -192 93.999 -252s137 -90 233 -90
c41.333 0 78.666 5 111.999 15s71.666 27.667 114.999 53zM596.005 62.002c38 0 72 9.83203 102 29.499s53.167 53.334 69.5 101.001s24.5 119.5 24.5 215.5c0 91.333 -7.5 174.833 -22.5 250.5s-38.5 128.667 -70.5 159s-74.333 45.5 -127 45.5
c-41.333 0 -76.333 -10.333 -105 -31s-52 -56.334 -70 -107.001s-27 -112.667 -27 -186c0 -62.667 4.66699 -129.167 14 -199.5s23.333 -124.666 42 -162.999s42 -67 70 -86s61.333 -28.5 100 -28.5zM1029 567.001c72.667 -4.66699 158.332 -7 256.999 -7
c32.667 0 61.667 2 87 6c1.33301 72.667 -6 133 -22 181c-12.667 36 -31.667 63 -57 81s-55.666 27 -90.999 27c-37.333 0 -69 -9.83301 -95 -29.5s-46 -50.5 -60 -92.5s-21 -82.333 -21 -121c0 -10 0.666992 -25 2 -45z" />
    <glyph glyph-name="endash" unicode="&#x2013;" 
d="M-10 424v168h1044v-168h-1044z" />
    <glyph glyph-name="emdash" unicode="&#x2014;" horiz-adv-x="2048" 
d="M3 424v168h2042v-168h-2042z" />
    <glyph glyph-name="quotedblleft" unicode="&#x201c;" 
d="M78 836c50 102.667 101.167 199.667 153.5 291s99.5 168.666 141.5 231.999l127 64l36 -29c-36 -74 -60.333 -127 -73 -159c-22 -57.333 -41 -115.666 -57 -174.999s-28 -121 -36 -185c-102 -17.333 -190.333 -40.333 -265 -69zM508 836
c42 87.333 89.334 177.833 142.001 271.5s103.334 177.5 152.001 251.5l128 64l36 -29c-34 -69.333 -58.333 -122.333 -73 -159c-22.667 -57.333 -41.834 -115.833 -57.501 -175.5s-27.834 -121.167 -36.501 -184.5c-102.667 -17.333 -191 -40.333 -265 -69z" />
    <glyph glyph-name="quotedblright" unicode="&#x201d;" 
d="M948 1393c-93.333 -190.667 -191.667 -365.001 -295 -523.001l-128 -64l-36 29c34.667 70 59 123 73 159c22.667 57.333 42 115.833 58 175.5s28 121.5 36 185.5c102.667 16.667 191 39.334 265 68.001zM499.999 1395c-25.333 -60 -69.167 -149.999 -131.5 -269.999
s-110.5 -206.333 -144.5 -259l-118 -60l-32 27c28.667 71.333 51 133.333 67 186c22.667 75.333 38.667 135.333 48 180l24 159c42 5.33301 78.667 11.666 110 18.999s82 22.333 152 45z" />
    <glyph glyph-name="quoteleft" unicode="&#x2018;" horiz-adv-x="569" 
d="M88 831l-28.998 27.999c8 20 20.333 45.667 37 77l150 274c31.333 54.667 64.666 107.334 99.999 158.001l135 55l29 -29c-2.66699 -8 -11.834 -28.833 -27.501 -62.5s-24.5 -53.167 -26.5 -58.5c-18.667 -52.667 -35.5 -103.167 -50.5 -151.5s-25.833 -89 -32.5 -122
s-11.667 -67.167 -15 -102.5c-9.33301 -2.66699 -34.333 -8 -75 -16c-52.667 -10 -85.667 -16.667 -99 -20c-26.667 -7.33301 -58.667 -17.333 -96 -30z" />
    <glyph glyph-name="quoteright" unicode="&#x2019;" horiz-adv-x="569" 
d="M56 861c2.66699 8 11.8311 28.668 27.498 62.001s24.167 52.333 25.5 57c20 55.333 37.333 106.666 52 153.999s25.334 87.5 32.001 120.5s11.667 67.5 15 103.5c9.33301 2 34 7 74 15c53.333 10.667 87 17.667 101 21c26 7.33301 57.667 17 95 29l29 -27
c-7.33301 -19.333 -18.666 -43.333 -33.999 -72l-150 -274c-36.667 -64 -71 -118.667 -103 -164l-135 -55z" />
    <glyph glyph-name="divide" unicode="&#xf7;" horiz-adv-x="1124" 
d="M562 1153c36.667 0 67.834 -12.833 93.501 -38.5s38.5 -56.834 38.5 -93.501c0 -36 -12.833 -66.833 -38.5 -92.5s-56.834 -38.5 -93.501 -38.5c-36 0 -66.833 12.833 -92.5 38.5s-38.5 56.5 -38.5 92.5c0 36.667 12.833 67.834 38.5 93.501s56.5 38.5 92.5 38.5zM12 687
h1101v-172h-1101v172zM563 312c36 0 66.833 -12.833 92.5 -38.5s38.5 -56.5 38.5 -92.5c0 -36.667 -12.833 -67.834 -38.5 -93.501s-56.5 -38.5 -92.5 -38.5c-36.667 0 -67.834 12.833 -93.501 38.5s-38.5 56.834 -38.5 93.501c0 36 12.833 66.833 38.5 92.5
s56.834 38.5 93.501 38.5z" />
    <glyph glyph-name="lozenge" unicode="&#x25ca;" horiz-adv-x="1012" 
d="M433 0l-425 754l425 733h149l421 -733l-421 -754h-149zM507 151l324 603l-324 581l-324 -581z" />
    <glyph glyph-name="ydieresis" unicode="&#xff;" horiz-adv-x="1139" 
d="M67 -504c10 46 16.666 77.998 19.999 95.998l15 101l27 5c16.667 -24 34.667 -41 54 -51c28 -14 56.667 -21 86 -21c34.667 0 66.667 13.333 96 40s61.333 80.334 96 161.001l42 95l-324 831c-19.333 49.333 -37.5 79.833 -54.5 91.5s-50.167 17.167 -99.5 16.5v79
c63.333 -2.66699 143 -4 239 -4c116 0 216 1.33301 300 4v-79h-23c-41.333 0.666992 -70 -4 -86 -14c-10 -6.66699 -15 -15.334 -15 -26.001c0 -12 3.33301 -26.667 10 -44l49 -135l146 -381l88 208c56.667 136 95.334 235 116.001 297c8.66699 26 13 45.667 13 59
c0 10 -4 17.333 -12 22c-16 8 -54 12.667 -114 14v79c41.333 -2.66699 94.333 -4 159 -4c82 0 156 1.33301 222 4v-79h-16c-18.667 0.666992 -35.667 -2.66602 -51 -9.99902c-10 -4 -18.333 -10 -25 -18c-8.66699 -10.667 -28 -48 -58 -112l-94 -205l-143 -329l-161 -393
c-26 -62.667 -51.833 -115.167 -77.5 -157.5s-53.667 -76.166 -84 -101.499s-61 -43.833 -92 -55.5s-66.167 -17.5 -105.5 -17.5c-26 0 -49.667 2.5 -71 7.5s-45.333 13.833 -72 26.5zM369.999 1404c40 0 74.167 -14.333 102.5 -43s42.5 -63 42.5 -103
s-14.167 -74.167 -42.5 -102.5s-62.5 -42.5 -102.5 -42.5s-74.167 14.167 -102.5 42.5s-42.5 62.5 -42.5 102.5c0 40.667 14.167 75.167 42.5 103.5s62.5 42.5 102.5 42.5zM809.999 1404c40 0 74.167 -14.333 102.5 -43s42.5 -63 42.5 -103s-14.167 -74.167 -42.5 -102.5
s-62.5 -42.5 -102.5 -42.5s-74.167 14.167 -102.5 42.5s-42.5 62.5 -42.5 102.5c0 40.667 14.167 75.167 42.5 103.5s62.5 42.5 102.5 42.5z" />
    <glyph glyph-name="Ydieresis" unicode="&#x178;" horiz-adv-x="1366" 
d="M808 735l138.001 226.003l198 348c21.333 37.333 37.666 67.333 48.999 90h157v-45c-80 -108 -167 -235.667 -261 -383s-152 -242.333 -174 -285c-14 -28 -23.667 -52.667 -29 -74c-3.33301 -14.667 -5 -39.334 -5 -74.001v-169c0 -86 2.16699 -148.167 6.5 -186.5
s9.66602 -61.5 15.999 -69.5s16.666 -13.833 30.999 -17.5s57.833 -6.16699 130.5 -7.5v-88c-126 4 -241 6 -345 6c-101.333 0 -202.666 -2 -303.999 -6v88c76 2.66699 120.5 5.5 133.5 8.5s22 8 27 15s8.5 25.833 10.5 56.5c4 74 6 140 6 198v190
c0 16 -13.333 48.333 -40 97c-58 107.333 -122 216.333 -192 327c-57.333 90 -113 165.333 -167 226c-32.667 36 -57.667 58 -75 66c-9.33301 4.66699 -38 7 -86 7v75l223 44c31.333 7.33301 64.666 15.666 99.999 24.999c40.667 -22.667 70.334 -42.834 89.001 -60.501
s44.667 -51.5 78 -101.5c48.667 -72 98.334 -157.333 149.001 -256zM535.001 1801c40 0 74.167 -14.333 102.5 -43s42.5 -63 42.5 -103s-14.167 -74.167 -42.5 -102.5s-62.5 -42.5 -102.5 -42.5s-74.167 14.167 -102.5 42.5s-42.5 62.5 -42.5 102.5
c0 40.667 14.167 75.167 42.5 103.5s62.5 42.5 102.5 42.5zM975.001 1801c40 0 74.167 -14.333 102.5 -43s42.5 -63 42.5 -103s-14.167 -74.167 -42.5 -102.5s-62.5 -42.5 -102.5 -42.5s-74.167 14.167 -102.5 42.5s-42.5 62.5 -42.5 102.5
c0 40.667 14.167 75.167 42.5 103.5s62.5 42.5 102.5 42.5z" />
    <glyph glyph-name="fraction" unicode="&#x2044;" horiz-adv-x="342" 
d="M-340 -27l898 1385h123l-898 -1385h-123z" />
    <glyph glyph-name="Euro" unicode="&#x20ac;" horiz-adv-x="1241" 
d="M256 204l-91.001 96l99 100c-27.333 33.333 -46.333 64.333 -57 93c-20 52.667 -30 107.667 -30 165s10 112 30 164c10.667 28.667 29.667 58.667 57 90l-99 102l99 100l95 -100c36.667 26.667 70.334 45.334 101.001 56.001c55.333 18.667 110.333 28 165 28
c50 0 98 -8.33301 144 -25c32.667 -11.333 67.334 -31 104.001 -59l105 100l97 -100l-97 -102c27.333 -32 45.666 -60.667 54.999 -86c19.333 -56 29 -112.667 29 -170c0 -52 -8.66699 -102.667 -26 -152c-12.667 -34.667 -32 -69.334 -58 -104.001l97 -100l-97 -96l-95 96
c-40 -29.333 -77 -50 -111 -62c-44 -14.667 -93.333 -22 -148 -22c-57.333 0 -109.333 8 -156 24c-34 11.333 -70.333 31.333 -109 60zM340.999 654c0 -47.333 12.332 -93 36.999 -137s60 -78.833 106 -104.5s92.333 -38.5 139 -38.5c46 0 91.333 12.5 136 37.5
s79.334 60 104.001 105s37 91.167 37 138.5c0 46 -12 91.667 -36 137s-57.833 80.666 -101.5 105.999s-90.167 38 -139.5 38c-76 0 -142 -27.667 -198 -83s-84 -121.666 -84 -198.999z" />
    <glyph glyph-name="guilsinglleft" unicode="&#x2039;" horiz-adv-x="797" 
d="M633 849l-152.999 -242l-70 -110c16 -36.667 51.667 -95 107 -175c42 -59.333 80.667 -122 116 -188l-53 -45l-14 13h-1l-207 203l-180 167l-1 51c49.333 40 95.666 79.5 138.999 118.5s131.333 122.833 264 251.5z" />
    <glyph glyph-name="guilsinglright" unicode="&#x203a;" horiz-adv-x="797" 
d="M177 132l149 237l75 116c-28 49.333 -66.5 111.666 -115.5 186.999s-84.833 134 -107.5 176l52 45l14 -13h1l206 -203l182 -167v-51c-55.333 -45.333 -107.333 -90.166 -156 -134.499l-247 -235.5z" />
    <glyph glyph-name="uniFB01" unicode="&#xfb01;" horiz-adv-x="1251" 
d="M679 0l0.0078125 73.998l94 10c12 2 20.833 5.33301 26.5 10s10.167 11.334 13.5 20.001c5.33301 14 8.66602 52.333 9.99902 115c2.66699 86.667 4 152.667 4 198v252c0 48.667 -2 78.834 -6 90.501s-10.333 19.5 -19 23.5c-14 8 -32 12 -54 12h-67l-12 -40h-228v-374
l2 -160c0 -66 3 -106.333 9 -121c2.66699 -6.66699 7 -11.667 13 -15c17.333 -9.33301 62 -15 134 -17v-78l-272 4l-275 -4v74l86 9c17.333 2 29.666 5.5 36.999 10.5s12.666 12.167 15.999 21.5s5 27.333 5 54l1 152v318l-4 126
c-26.667 -1.33301 -72.334 -3.33301 -137.001 -6v46l100 64c10 6.66699 21.667 15.667 35 27c0 108 4 175.667 12 203c12.667 42 36 80.667 70 116c19.333 20 65.166 63.5 137.499 130.5s113.833 103.167 124.5 108.5c32 18 64.333 27 97 27c34 0 63 -3.66699 87 -11
c0.666992 -12.667 1 -22 1 -28c0 -12 -1 -30.5 -3 -55.5s-3 -41.833 -3 -50.5l3 -84l-36 -15l-19 18.5c-8.66699 8.33301 -14.334 13.5 -17.001 15.5c-7.33301 4 -18.5 8.33301 -33.5 13s-30.5 7 -46.5 7c-25.333 0 -47.5 -5.66699 -66.5 -17s-32.333 -25.166 -40 -41.499
s-12.167 -45.833 -13.5 -88.5c-2.66699 -76 -4 -123 -4 -141v-119l230 4c65.333 1.33301 122.166 7 170.499 17s120.166 32 215.499 66l24 -13c-6 -70.667 -9.33301 -128 -10 -172c-2 -64.667 -3 -184.334 -3 -359.001c0 -78.667 0.666992 -148 2 -208
c1.33301 -60.667 4.33301 -97 9 -109c2 -4.66699 5 -8.66699 9 -12c6.66699 -4.66699 19 -8.66699 37 -12c8 -1.33301 37 -4 87 -8v-78l-277 4h-68c-70 0 -132.667 -1.33301 -188 -4zM816.008 1293c0 42.667 14.832 79 44.499 109s65.5 45 107.5 45
c43.333 0 80 -14.833 110 -44.5s45 -65.5 45 -107.5c0 -42.667 -15 -79 -45 -109s-66.333 -45 -109 -45c-41.333 0 -77.166 15.333 -107.499 46s-45.5 66 -45.5 106z" />
    <glyph glyph-name="uniFB02" unicode="&#xfb02;" horiz-adv-x="1251" 
d="M1215 78l0.000976562 -78c-91.333 4.66699 -180.333 7 -267 7c-84.667 0 -174 -2.33301 -268 -7v78c59.333 3.33301 92.333 5.66602 99 6.99902c10.667 2.66699 18.5 6.5 23.5 11.5s8.83301 12.167 11.5 21.5c4.66699 20 7.66699 76 9 168
c2.66699 113.333 4 214.666 4 303.999v329c0 6 -1.66699 75.667 -5 209c-2 88.667 -5.66699 141.334 -11 158.001c-2 6.66699 -6 11.667 -12 15c-14 8.66699 -43.667 13 -89 13l-1 -61l-32 -12c-20.667 20.667 -39 34.667 -55 42s-34.333 11 -55 11
c-26.667 0 -48.5 -5 -65.5 -15s-29.333 -23 -37 -39s-11.834 -43.333 -12.501 -82l-3 -131l2 -137c30 -2 51.333 -3 64 -3c80 0 139.667 3.33301 179 10l7 -8l-20 -123l-232 -1v-374l2 -159c0 -66.667 2.66699 -107.334 8 -122.001c2.66699 -6.66699 7 -11.667 13 -15
c17.333 -9.33301 62 -15 134 -17v-78c-81.333 2.66699 -166.666 4 -255.999 4c-96.667 0 -193.667 -1.33301 -291 -4v74c28.667 3.33301 47.667 5.33301 57 6c35.333 2 58.5 8.5 69.5 19.5s16.5 31.167 16.5 60.5l2 161v318l-4 126
c-26.667 -1.33301 -72.334 -3.33301 -137.001 -6v46l100 64c10 6.66699 21.667 15.667 35 27v86c0 67.333 5.66699 115.5 17 144.5s33 61 65 96s82 83.5 150 145.5c51.333 47.333 89.5 78.166 114.5 92.499s50.167 21.5 75.5 21.5c30 0 54.333 -2.66699 73 -8
c5.33301 -1.33301 11.333 -5.33301 18 -12v-67c45.333 4 86 9.66699 122 17c23.333 4 46.333 9.33301 69 16l163 46l18 -12l-9 -195c-1.33301 -44.667 -3 -185.667 -5 -423v-257l-1 -83c0 -62.667 1.66699 -157.667 5 -285c2 -59.333 5 -95.333 9 -108
c2 -5.33301 5.83301 -10.166 11.5 -14.499s14.667 -7.66602 27 -9.99902s43.833 -5.16602 94.5 -8.49902z" />
    <glyph glyph-name="daggerdbl" unicode="&#x2021;" 
d="M396 -489l-12 9.99902c6.66699 44.667 13.667 112.5 21 203.5s11 146.833 11 167.5c0 2 -0.333008 9.33301 -1 22c-122.667 0 -234.334 -6.33301 -335.001 -19l-11 9c5.33301 35.333 8 66 8 92c0 20.667 -2.33301 51.667 -7 93l9 11c48.667 -5.33301 90 -9 124 -11
l218 -11c-2 16 -7 86.333 -15 211l-14 178l14 163l12 183v1c0 2 1 10.333 3 25l-228 -11c-32.667 -2.66699 -70.667 -6 -114 -10l-9 10c4.66699 42 7 73.333 7 94c0 25.333 -2.66699 56 -8 92l11 9c100 -13.333 211.667 -20 335 -20c0.666992 13.333 1 21.333 1 24
c0 26.667 -2.33301 69 -7 127c-10.667 122 -19 203 -25 243l12 10c43.333 -6 83 -9 119 -9s75.667 3 119 9l12 -10c-7.33301 -46 -14.666 -114 -21.999 -204s-11 -145.667 -11 -167c0 -2 0.333008 -9.66699 1 -23c123.333 0 235.333 6.66699 336 20l11 -9
c-5.33301 -36 -8 -66.667 -8 -92c0 -20.667 2.33301 -52 7 -94l-10 -10c-52.667 5.33301 -95.667 9 -129 11c-5.33301 0.666992 -76 4 -212 10l3 -25v-1l12 -178c0 -4.66699 4.33301 -60.667 13 -168l-18 -252l-7 -111c0 -2 -1 -10.667 -3 -26l230 12
c33.333 2.66699 70.333 6 111 10l10 -11c-4.66699 -41.333 -7 -72.666 -7 -93.999c0 -25.333 2.66699 -55.666 8 -90.999l-11 -9c-103.333 13.333 -215.333 19.666 -336 18.999c-0.666992 -12.667 -1 -20 -1 -22c0 -33.333 3.66699 -86 11 -158c10.667 -114 18 -185 22 -213
l-12 -10c-43.333 6 -83 9 -119 9s-75.667 -3 -119 -9z" />
    <glyph glyph-name="periodcentered" unicode="&#xb7;" horiz-adv-x="512" 
d="M253 778c44 0 81.167 -15.333 111.5 -46s45.5 -67.667 45.5 -111s-15.333 -80.333 -46 -111s-67.667 -46 -111 -46s-80.333 15.333 -111 46s-46 67.667 -46 111s15.333 80.333 46 111s67.667 46 111 46z" />
    <glyph glyph-name="quotesinglbase" unicode="&#x201a;" horiz-adv-x="682" 
d="M112 -282c2.66699 8 11.833 28.668 27.5 62.001s24.167 52.666 25.5 57.999c20 55.333 37.333 106.5 52 153.5s25.334 87 32.001 120s11.667 67.5 15 103.5c9.33301 2.66699 34 8 74 16c53.333 10 86.666 16.667 99.999 20c26 7.33301 58 17.333 96 30l29 -27
c-7.33301 -20 -19 -44.667 -35 -74l-151 -275c-36 -63.333 -69.667 -117 -101 -161l-135 -55z" />
    <glyph glyph-name="quotedblbase" unicode="&#x201e;" 
d="M74 -301c16 33.333 35.667 85.667 59 157s40.333 131.333 51 180c6.66699 29.333 17 91.333 31 186l147 29c18 4.66699 56 17 114 37l27 -31c-35.333 -79.333 -80.333 -171 -135 -275s-102 -189 -142 -255l-117 -55zM517 -300.999c15.333 32 33 78.333 53 139
c26.667 83.333 45.667 149.333 57 198c6.66699 28.667 17 90.667 31 186l147 29c18 4.66699 56 17 114 37l26 -31c-36 -82 -82.167 -176.333 -138.5 -283s-102.5 -189 -138.5 -247l-117 -55z" />
    <glyph glyph-name="perthousand" unicode="&#x2030;" horiz-adv-x="2048" 
d="M1140 1484l-839 -1550h-110l840 1550h109zM22 1103c0 100 30.167 181.167 90.5 243.5s136.166 93.5 227.499 93.5c90 0 164.333 -30.5 223 -91.5s88 -142.167 88 -243.5c0 -86 -21 -158.667 -63 -218c-59.333 -84.667 -143 -127 -251 -127
c-93.333 0 -169.166 30.333 -227.499 91s-87.5 144.667 -87.5 252zM223 1096c0 -68.667 4.66699 -124.001 14 -166.001s23 -70.333 41 -85s37.333 -22 58 -22c18 0 35.5 6 52.5 18s30.167 35.333 39.5 70c14.667 50.667 22 118.667 22 204
c0 52.667 -2.5 94.834 -7.5 126.501s-12.667 58.167 -23 79.5s-21.333 36 -33 44s-27.167 12 -46.5 12c-32.667 0 -57.667 -13.667 -75 -41c-28 -43.333 -42 -123.333 -42 -240zM688 308.999c0 100 30.165 181 90.498 243s135.833 93 226.5 93s165.334 -30.333 224.001 -91
s88 -142 88 -244c0 -104 -29.833 -187.5 -89.5 -250.5s-134.5 -94.5 -224.5 -94.5c-93.333 0 -169.166 30.333 -227.499 91s-87.5 145 -87.5 253zM888.998 301.999c0 -69.333 4.66602 -124.83 13.999 -166.497s22.833 -70 40.5 -85s37.167 -22.5 58.5 -22.5
c18 0 35.333 6 52 18s30 35.333 40 70c14 50.667 21 118.667 21 204c0 54 -2.33301 96 -7 126c-2.66699 19.333 -7.16699 38.666 -13.5 57.999s-13.666 34.666 -21.999 45.999s-17.5 19.666 -27.5 24.999s-23.333 8 -40 8c-32 0 -57 -14 -75 -42
c-27.333 -43.333 -41 -123 -41 -239zM1398 309.002c0 100 30.165 181 90.498 243s135.833 93 226.5 93s165.334 -30.333 224.001 -91s88 -142 88 -244c0 -104 -29.833 -187.5 -89.5 -250.5s-134.5 -94.5 -224.5 -94.5c-93.333 0 -169.166 30.5 -227.499 91.5
s-87.5 145.167 -87.5 252.5zM1599 302.002c0 -69.333 4.66602 -124.998 13.999 -166.998s23 -70.333 41 -85s37.333 -22 58 -22c18 0 35.333 6 52 18s30 35.667 40 71c14.667 50 22 117.667 22 203c0 54 -2.66699 95.667 -8 125c-2.66699 20 -7.16699 39.667 -13.5 59
s-13.666 34.666 -21.999 45.999s-17.5 19.666 -27.5 24.999s-23.333 8 -40 8c-32 0 -57 -14 -75 -42c-27.333 -43.333 -41 -123 -41 -239z" />
    <glyph glyph-name="Acircumflex" unicode="&#xc2;" horiz-adv-x="1593" 
d="M49 0l-0.000976562 83c55.333 4 88.666 7.83301 99.999 11.5s21.333 10.167 30 19.5s25.334 42.666 50.001 99.999c36.667 82.667 81.334 189.667 134.001 321l261 644l88 227h142l447 -1044l69 -154c23.333 -54 38.333 -85.167 45 -93.5s14 -14.166 22 -17.499
c8.66699 -4 30 -7.33301 64 -10c10 -0.666992 24.667 -2 44 -4v-83l-278 6l-351 -6v83c74 3.33301 117.833 7.16602 131.5 11.499s20.5 14.5 20.5 30.5c0 16.667 -7.66699 44 -23 82l-86 220h-514l-44 -120c-33.333 -91.333 -50 -148.666 -50 -171.999
c0 -16 5.33301 -27.333 16 -34c16 -9.33301 63.667 -15.333 143 -18v-83l-231 6zM490.999 541c62 -2 133 -3 213 -3c78 0 146.667 1 206 3l-214 516zM669.999 1851h213l249 -356h-134l-226 190l-219 -190h-131z" />
    <glyph glyph-name="Ecircumflex" unicode="&#xca;" horiz-adv-x="1251" 
d="M123 0l-0.000976562 53.998c40.667 18.667 73.334 37.667 98.001 57c4 28.667 7.33301 73.334 10 134.001c5.33301 116 8 200.333 8 253v450c0 17.333 -1 82.333 -3 195c-2 75.333 -6.66699 121.333 -14 138c-3.33301 6.66699 -8.33301 11.334 -15 14.001
c-18 8.66699 -66 15 -144 19v85l244 -5c40.667 -0.666992 80.667 -1 120 -1c90.667 0 192.334 1 305.001 3l223 5c24 0 72.667 -1.33301 146 -4c6.66699 0 17.667 -2 33 -6l7 -13l-19 -144c-0.666992 -10.667 -4 -58.667 -10 -144h-78
c-1.33301 80.667 -4.66602 130.334 -9.99902 149.001c-2 7.33301 -6.33301 13 -13 17c-11.333 7.33301 -47.5 13.5 -108.5 18.5s-118.833 7.5 -173.5 7.5c-65.333 0 -129.333 -2.33301 -192 -7c-9.33301 -75.333 -14 -171 -14 -287v-205c46 -3.33301 93.333 -5 142 -5
c51.333 0 115 1.33301 191 4c18 0.666992 30.333 2.66699 37 6c4.66699 2 8.33398 5.33301 11.001 10c4 6.66699 7.66699 21 11 43c4.66699 32 7.33398 64 8.00098 96h81l-4 -220l4 -219h-87c1.33301 66.667 -1.66699 110.334 -9 131.001
c-4.66699 13.333 -11.334 22.666 -20.001 27.999s-29 9.66602 -61 12.999c-48 4.66699 -94.667 7 -140 7c-68 0 -122.667 -2 -164 -6v-424c0 -48 1 -88.667 3 -122c56 -4 120.333 -6 193 -6c70.667 0 136.667 2.33301 198 7s98.666 11 111.999 19
c5.33301 3.33301 9.66602 9.33301 12.999 18c12.667 30.667 25.667 91.667 39 183h82c-14.667 -132 -22 -240.667 -22 -326l-13 -13c-18.667 -2 -38.667 -3.33301 -60 -4c-62 -2 -102.667 -3 -122 -3l-116 2c-136 2.66699 -260 4 -372 4c-16.667 0 -128.334 -2 -335.001 -6z
M513.999 1854h213l249 -356h-134l-226 190l-219 -190h-131z" />
    <glyph glyph-name="Aacute" unicode="&#xc1;" horiz-adv-x="1593" 
d="M49 0l-0.000976562 83c55.333 4 88.666 7.83301 99.999 11.5s21.333 10.167 30 19.5s25.334 42.666 50.001 99.999c36.667 82.667 81.334 189.667 134.001 321l261 644l88 227h142l447 -1044l69 -154c23.333 -54 38.333 -85.167 45 -93.5s14 -14.166 22 -17.499
c8.66699 -4 30 -7.33301 64 -10c10 -0.666992 24.667 -2 44 -4v-83l-278 6l-351 -6v83c74 3.33301 117.833 7.16602 131.5 11.499s20.5 14.5 20.5 30.5c0 16.667 -7.66699 44 -23 82l-86 220h-514l-44 -120c-33.333 -91.333 -50 -148.666 -50 -171.999
c0 -16 5.33301 -27.333 16 -34c16 -9.33301 63.667 -15.333 143 -18v-83l-231 6zM490.999 541c62 -2 133 -3 213 -3c78 0 146.667 1 206 3l-214 516zM733.999 1495l-121 0.000976562l235 285c24 29.333 41 48.666 51 57.999c14 12.667 29.167 22.667 45.5 30
s34.5 11 54.5 11c34.667 0 62.667 -10 84 -30s32 -44.667 32 -74c0 -19.333 -6 -37 -18 -53c-19.333 -24.667 -53 -50.667 -101 -78z" />
    <glyph glyph-name="Edieresis" unicode="&#xcb;" horiz-adv-x="1251" 
d="M123 0l-0.000976562 53.998c40.667 18.667 73.334 37.667 98.001 57c4 28.667 7.33301 73.334 10 134.001c5.33301 116 8 200.333 8 253v450c0 17.333 -1 82.333 -3 195c-2 75.333 -6.66699 121.333 -14 138c-3.33301 6.66699 -8.33301 11.334 -15 14.001
c-18 8.66699 -66 15 -144 19v85l244 -5c40.667 -0.666992 80.667 -1 120 -1c90.667 0 192.334 1 305.001 3l223 5c24 0 72.667 -1.33301 146 -4c6.66699 0 17.667 -2 33 -6l7 -13l-19 -144c-0.666992 -10.667 -4 -58.667 -10 -144h-78
c-1.33301 80.667 -4.66602 130.334 -9.99902 149.001c-2 7.33301 -6.33301 13 -13 17c-11.333 7.33301 -47.5 13.5 -108.5 18.5s-118.833 7.5 -173.5 7.5c-65.333 0 -129.333 -2.33301 -192 -7c-9.33301 -75.333 -14 -171 -14 -287v-205c46 -3.33301 93.333 -5 142 -5
c51.333 0 115 1.33301 191 4c18 0.666992 30.333 2.66699 37 6c4.66699 2 8.33398 5.33301 11.001 10c4 6.66699 7.66699 21 11 43c4.66699 32 7.33398 64 8.00098 96h81l-4 -220l4 -219h-87c1.33301 66.667 -1.66699 110.334 -9 131.001
c-4.66699 13.333 -11.334 22.666 -20.001 27.999s-29 9.66602 -61 12.999c-48 4.66699 -94.667 7 -140 7c-68 0 -122.667 -2 -164 -6v-424c0 -48 1 -88.667 3 -122c56 -4 120.333 -6 193 -6c70.667 0 136.667 2.33301 198 7s98.666 11 111.999 19
c5.33301 3.33301 9.66602 9.33301 12.999 18c12.667 30.667 25.667 91.667 39 183h82c-14.667 -132 -22 -240.667 -22 -326l-13 -13c-18.667 -2 -38.667 -3.33301 -60 -4c-62 -2 -102.667 -3 -122 -3l-116 2c-136 2.66699 -260 4 -372 4c-16.667 0 -128.334 -2 -335.001 -6z
M405.999 1803c40 0 74.167 -14.333 102.5 -43s42.5 -63 42.5 -103s-14.167 -74.167 -42.5 -102.5s-62.5 -42.5 -102.5 -42.5s-74.167 14.167 -102.5 42.5s-42.5 62.5 -42.5 102.5c0 40.667 14.167 75.167 42.5 103.5s62.5 42.5 102.5 42.5zM845.999 1803
c40 0 74.167 -14.333 102.5 -43s42.5 -63 42.5 -103s-14.167 -74.167 -42.5 -102.5s-62.5 -42.5 -102.5 -42.5s-74.167 14.167 -102.5 42.5s-42.5 62.5 -42.5 102.5c0 40.667 14.167 75.167 42.5 103.5s62.5 42.5 102.5 42.5z" />
    <glyph glyph-name="Egrave" unicode="&#xc8;" horiz-adv-x="1251" 
d="M123 0l-0.000976562 53.998c40.667 18.667 73.334 37.667 98.001 57c4 28.667 7.33301 73.334 10 134.001c5.33301 116 8 200.333 8 253v450c0 17.333 -1 82.333 -3 195c-2 75.333 -6.66699 121.333 -14 138c-3.33301 6.66699 -8.33301 11.334 -15 14.001
c-18 8.66699 -66 15 -144 19v85l244 -5c40.667 -0.666992 80.667 -1 120 -1c90.667 0 192.334 1 305.001 3l223 5c24 0 72.667 -1.33301 146 -4c6.66699 0 17.667 -2 33 -6l7 -13l-19 -144c-0.666992 -10.667 -4 -58.667 -10 -144h-78
c-1.33301 80.667 -4.66602 130.334 -9.99902 149.001c-2 7.33301 -6.33301 13 -13 17c-11.333 7.33301 -47.5 13.5 -108.5 18.5s-118.833 7.5 -173.5 7.5c-65.333 0 -129.333 -2.33301 -192 -7c-9.33301 -75.333 -14 -171 -14 -287v-205c46 -3.33301 93.333 -5 142 -5
c51.333 0 115 1.33301 191 4c18 0.666992 30.333 2.66699 37 6c4.66699 2 8.33398 5.33301 11.001 10c4 6.66699 7.66699 21 11 43c4.66699 32 7.33398 64 8.00098 96h81l-4 -220l4 -219h-87c1.33301 66.667 -1.66699 110.334 -9 131.001
c-4.66699 13.333 -11.334 22.666 -20.001 27.999s-29 9.66602 -61 12.999c-48 4.66699 -94.667 7 -140 7c-68 0 -122.667 -2 -164 -6v-424c0 -48 1 -88.667 3 -122c56 -4 120.333 -6 193 -6c70.667 0 136.667 2.33301 198 7s98.666 11 111.999 19
c5.33301 3.33301 9.66602 9.33301 12.999 18c12.667 30.667 25.667 91.667 39 183h82c-14.667 -132 -22 -240.667 -22 -326l-13 -13c-18.667 -2 -38.667 -3.33301 -60 -4c-62 -2 -102.667 -3 -122 -3l-116 2c-136 2.66699 -260 4 -372 4c-16.667 0 -128.334 -2 -335.001 -6z
M670.999 1498l-263 149c-48 27.333 -81 53 -99 77c-12.667 16.667 -19 35 -19 55c0 28.667 10.667 53 32 73s50 30 86 30c18 0 34.667 -3.16699 50 -9.5s31 -16.833 47 -31.5c10.667 -8.66699 28 -28 52 -58l235 -285h-121z" />
    <glyph glyph-name="Iacute" unicode="&#xcd;" horiz-adv-x="797" 
d="M732 1399l0.000976562 -88c-70.667 -2 -113.667 -5.33301 -129 -10c-10 -2.66699 -17.833 -7.5 -23.5 -14.5s-9.83398 -18.5 -12.501 -34.5c-1.33301 -12 -4 -82.333 -8 -211c-1.33301 -57.333 -2 -121.666 -2 -192.999v-403l3 -183
c0 -68.667 3.33301 -113.334 10 -134.001c2.66699 -9.33301 7.16699 -16.5 13.5 -21.5s16.333 -9 30 -12s53.167 -5.16699 118.5 -6.5v-88c-107.333 4 -223.333 6 -348 6c-110.667 0 -206.334 -2 -287.001 -6v88c72.667 2.66699 114.834 5.5 126.501 8.5
s19.667 6.83301 24 11.5s7.5 12.334 9.5 23.001c0.666992 5.33301 4.33398 55.666 11.001 150.999c2 33.333 3 85.333 3 156v418c0 134 -0.666992 219.667 -2 257c-4 86.667 -8.33301 140 -13 160c-1.33301 8 -4.33301 14.167 -9 18.5s-12.834 8 -24.501 11
s-53.5 5.83301 -125.5 8.5v88c83.333 -4 179.333 -6 288 -6c124 0 239.667 2 347 6zM368.001 1496l-121 0.000976562l235 285c24 29.333 41 48.666 51 57.999c14 12.667 29.167 22.667 45.5 30s34.5 11 54.5 11c34.667 0 62.667 -10 84 -30s32 -44.667 32 -74
c0 -19.333 -6 -37 -18 -53c-19.333 -24.667 -53 -50.667 -101 -78z" />
    <glyph glyph-name="Icircumflex" unicode="&#xce;" horiz-adv-x="797" 
d="M732 1399l0.000976562 -88c-70.667 -2 -113.667 -5.33301 -129 -10c-10 -2.66699 -17.833 -7.5 -23.5 -14.5s-9.83398 -18.5 -12.501 -34.5c-1.33301 -12 -4 -82.333 -8 -211c-1.33301 -57.333 -2 -121.666 -2 -192.999v-403l3 -183
c0 -68.667 3.33301 -113.334 10 -134.001c2.66699 -9.33301 7.16699 -16.5 13.5 -21.5s16.333 -9 30 -12s53.167 -5.16699 118.5 -6.5v-88c-107.333 4 -223.333 6 -348 6c-110.667 0 -206.334 -2 -287.001 -6v88c72.667 2.66699 114.834 5.5 126.501 8.5
s19.667 6.83301 24 11.5s7.5 12.334 9.5 23.001c0.666992 5.33301 4.33398 55.666 11.001 150.999c2 33.333 3 85.333 3 156v418c0 134 -0.666992 219.667 -2 257c-4 86.667 -8.33301 140 -13 160c-1.33301 8 -4.33301 14.167 -9 18.5s-12.834 8 -24.501 11
s-53.5 5.83301 -125.5 8.5v88c83.333 -4 179.333 -6 288 -6c124 0 239.667 2 347 6zM308.001 1852h213l249 -356h-134l-226 190l-219 -190h-131z" />
    </font>
</defs>
</svg>
