<svg xmlns="http://www.w3.org/2000/svg" width="78" height="78" viewBox="0 0 78 78"><defs><style>.a{fill:#e14b28;}</style></defs><g transform="translate(18.52 9.8)"><path class="a" d="M178.817,65.191a2.939,2.939,0,0,0-4.157,0l-35.267,35.173L126.67,86.54a2.94,2.94,0,1,0-4.325,3.982l14.8,16.069a2.936,2.936,0,0,0,2.1.948h.063a2.943,2.943,0,0,0,2.075-.857l37.432-37.334A2.939,2.939,0,0,0,178.817,65.191Z" transform="translate(-121.568 -64.327)"/></g><path class="a" d="M75.06,36.06A2.939,2.939,0,0,0,72.121,39,33.121,33.121,0,1,1,39,5.879,2.94,2.94,0,1,0,39,0,39,39,0,1,0,78,39,2.94,2.94,0,0,0,75.06,36.06Z"/></svg>